NotoAmalgamated-SemiBoldItalic.ufo
<glyph name="exclam" format="2">
  <advance width="286"/>
  <unicode hex="0021"/>
  <outline>
    <contour>
      <point x="69" y="237" type="line"/>
      <point x="195" y="237" type="line"/>
      <point x="316" y="714" type="line"/>
      <point x="150" y="714" type="line"/>
    </contour>
    <contour>
      <point x="88" y="-13" type="curve" smooth="yes"/>
      <point x="147" y="-13"/>
      <point x="185" y="27"/>
      <point x="185" y="82" type="curve" smooth="yes"/>
      <point x="185" y="127"/>
      <point x="156" y="153"/>
      <point x="112" y="153" type="curve" smooth="yes"/>
      <point x="39" y="153"/>
      <point x="12" y="104"/>
      <point x="12" y="56" type="curve" smooth="yes"/>
      <point x="12" y="21"/>
      <point x="32" y="-13"/>
    </contour>
  </outline>
</glyph>
<glyph name="quotedbl" format="2">
  <advance width="453"/>
  <unicode hex="0022"/>
  <outline>
    <contour>
      <point x="295" y="456" type="line"/>
      <point x="392" y="456" type="line"/>
      <point x="466" y="714" type="line"/>
      <point x="331" y="714" type="line"/>
    </contour>
    <contour>
      <point x="98" y="456" type="line"/>
      <point x="194" y="456" type="line"/>
      <point x="268" y="714" type="line"/>
      <point x="133" y="714" type="line"/>
    </contour>
  </outline>
</glyph>
<glyph name="numbersign" format="2">
  <advance width="646"/>
  <unicode hex="0023"/>
  <outline>
    <contour>
      <point x="81" y="0" type="line"/>
      <point x="186" y="0" type="line"/>
      <point x="242" y="199" type="line"/>
      <point x="337" y="199" type="line"/>
      <point x="280" y="0" type="line"/>
      <point x="387" y="0" type="line"/>
      <point x="444" y="199" type="line"/>
      <point x="589" y="199" type="line"/>
      <point x="598" y="300" type="line"/>
      <point x="472" y="300" type="line"/>
      <point x="506" y="413" type="line"/>
      <point x="642" y="413" type="line"/>
      <point x="651" y="515" type="line"/>
      <point x="534" y="515" type="line"/>
      <point x="591" y="714" type="line"/>
      <point x="486" y="714" type="line"/>
      <point x="429" y="515" type="line"/>
      <point x="332" y="515" type="line"/>
      <point x="389" y="714" type="line"/>
      <point x="283" y="714" type="line"/>
      <point x="225" y="515" type="line"/>
      <point x="84" y="515" type="line"/>
      <point x="75" y="413" type="line"/>
      <point x="198" y="413" type="line"/>
      <point x="164" y="300" type="line"/>
      <point x="29" y="300" type="line"/>
      <point x="20" y="199" type="line"/>
      <point x="136" y="199" type="line"/>
    </contour>
    <contour>
      <point x="270" y="300" type="line"/>
      <point x="304" y="413" type="line"/>
      <point x="400" y="413" type="line"/>
      <point x="366" y="300" type="line"/>
    </contour>
  </outline>
</glyph>
<glyph name="dollar" format="2">
  <advance width="551"/>
  <unicode hex="0024"/>
  <outline>
    <contour>
      <point x="198" y="40" type="curve"/>
      <point x="177" y="-58" type="line"/>
      <point x="245" y="-58" type="line"/>
      <point x="264" y="39" type="line"/>
      <point x="435" y="51"/>
      <point x="505" y="133"/>
      <point x="505" y="242" type="curve" smooth="yes"/>
      <point x="505" y="343"/>
      <point x="436" y="384"/>
      <point x="346" y="419" type="curve"/>
      <point x="377" y="565" type="line"/>
      <point x="415" y="562"/>
      <point x="458" y="547"/>
      <point x="495" y="529" type="curve"/>
      <point x="547" y="642" type="line"/>
      <point x="500" y="667"/>
      <point x="457" y="679"/>
      <point x="403" y="686" type="curve"/>
      <point x="419" y="760" type="line"/>
      <point x="351" y="760" type="line"/>
      <point x="334" y="686" type="line"/>
      <point x="198" y="677"/>
      <point x="101" y="610"/>
      <point x="101" y="490" type="curve" smooth="yes"/>
      <point x="101" y="394"/>
      <point x="170" y="345"/>
      <point x="257" y="312" type="curve"/>
      <point x="222" y="155" type="line"/>
      <point x="145" y="158"/>
      <point x="75" y="184"/>
      <point x="25" y="212" type="curve"/>
      <point x="25" y="82" type="line"/>
      <point x="73" y="57"/>
      <point x="130" y="44"/>
    </contour>
    <contour>
      <point x="290" y="157" type="curve"/>
      <point x="318" y="285" type="line"/>
      <point x="341" y="276"/>
      <point x="359" y="257"/>
      <point x="359" y="227" type="curve" smooth="yes"/>
      <point x="359" y="187"/>
      <point x="331" y="163"/>
    </contour>
    <contour>
      <point x="309" y="565" type="curve"/>
      <point x="284" y="445" type="line"/>
      <point x="257" y="456"/>
      <point x="245" y="475"/>
      <point x="245" y="499" type="curve" smooth="yes"/>
      <point x="245" y="543"/>
      <point x="275" y="561"/>
    </contour>
  </outline>
</glyph>
<glyph name="dollar.serif" format="2">
  <advance width="559"/>
  <unicode hex="0024"/>
  <outline>
    <contour>
      <point x="206" y="38" type="curve"/>
      <point x="181" y="-79" type="line"/>
      <point x="237" y="-79" type="line"/>
      <point x="261" y="37" type="line"/>
      <point x="409" y="40"/>
      <point x="503" y="112"/>
      <point x="503" y="235" type="curve" smooth="yes"/>
      <point x="503" y="311"/>
      <point x="459" y="366"/>
      <point x="367" y="414" type="curve" smooth="yes"/>
      <point x="344" y="426" type="line"/>
      <point x="386" y="623" type="line"/>
      <point x="427" y="602"/>
      <point x="444" y="545"/>
      <point x="444" y="497" type="curve"/>
      <point x="529" y="497"/>
      <point x="557" y="530"/>
      <point x="557" y="584" type="curve" smooth="yes"/>
      <point x="557" y="638"/>
      <point x="504" y="677"/>
      <point x="399" y="685" type="curve"/>
      <point x="416" y="760" type="line"/>
      <point x="360" y="760" type="line"/>
      <point x="344" y="687" type="line"/>
      <point x="208" y="683"/>
      <point x="117" y="618"/>
      <point x="117" y="507" type="curve" smooth="yes"/>
      <point x="117" y="415"/>
      <point x="169" y="365"/>
      <point x="264" y="315" type="curve"/>
      <point x="219" y="102" type="line"/>
      <point x="169" y="120"/>
      <point x="136" y="169"/>
      <point x="136" y="262" type="curve"/>
      <point x="66" y="262"/>
      <point x="25" y="235"/>
      <point x="25" y="172" type="curve" smooth="yes"/>
      <point x="25" y="97"/>
      <point x="85" y="48"/>
    </contour>
    <contour>
      <point x="273" y="94" type="curve"/>
      <point x="314" y="286" type="line"/>
      <point x="364" y="252"/>
      <point x="375" y="226"/>
      <point x="375" y="190" type="curve" smooth="yes"/>
      <point x="375" y="135"/>
      <point x="335" y="95"/>
    </contour>
    <contour>
      <point x="331" y="630" type="curve"/>
      <point x="294" y="456" type="line"/>
      <point x="262" y="479"/>
      <point x="246" y="502"/>
      <point x="246" y="540" type="curve" smooth="yes"/>
      <point x="246" y="597"/>
      <point x="285" y="624"/>
    </contour>
  </outline>
</glyph>
<glyph name="percent" format="2">
  <advance width="856"/>
  <unicode hex="0025"/>
  <outline>
    <contour>
      <point x="113" y="0" type="line"/>
      <point x="230" y="0" type="line"/>
      <point x="759" y="714" type="line"/>
      <point x="644" y="714" type="line"/>
    </contour>
    <contour>
      <point x="194" y="276" type="curve" smooth="yes"/>
      <point x="350" y="276"/>
      <point x="401" y="455"/>
      <point x="401" y="569" type="curve" smooth="yes"/>
      <point x="401" y="671"/>
      <point x="350" y="724"/>
      <point x="261" y="724" type="curve" smooth="yes"/>
      <point x="107" y="724"/>
      <point x="56" y="550"/>
      <point x="56" y="432" type="curve" smooth="yes"/>
      <point x="56" y="333"/>
      <point x="104" y="276"/>
    </contour>
    <contour>
      <point x="203" y="377" type="curve" smooth="yes"/>
      <point x="185" y="377"/>
      <point x="176" y="393"/>
      <point x="176" y="424" type="curve" smooth="yes"/>
      <point x="176" y="512"/>
      <point x="209" y="622"/>
      <point x="253" y="622" type="curve" smooth="yes"/>
      <point x="272" y="622"/>
      <point x="281" y="607"/>
      <point x="281" y="575" type="curve" smooth="yes"/>
      <point x="281" y="495"/>
      <point x="251" y="377"/>
    </contour>
    <contour>
      <point x="616" y="-9" type="curve" smooth="yes"/>
      <point x="768" y="-9"/>
      <point x="820" y="167"/>
      <point x="820" y="288" type="curve" smooth="yes"/>
      <point x="820" y="386"/>
      <point x="769" y="439"/>
      <point x="680" y="439" type="curve" smooth="yes"/>
      <point x="531" y="439"/>
      <point x="475" y="278"/>
      <point x="475" y="138" type="curve" smooth="yes"/>
      <point x="475" y="45"/>
      <point x="523" y="-9"/>
    </contour>
    <contour>
      <point x="622" y="92" type="curve" smooth="yes"/>
      <point x="604" y="92"/>
      <point x="595" y="108"/>
      <point x="595" y="139" type="curve" smooth="yes"/>
      <point x="595" y="227"/>
      <point x="628" y="337"/>
      <point x="672" y="337" type="curve" smooth="yes"/>
      <point x="691" y="337"/>
      <point x="700" y="322"/>
      <point x="700" y="290" type="curve" smooth="yes"/>
      <point x="700" y="210"/>
      <point x="670" y="92"/>
    </contour>
  </outline>
</glyph>
<glyph name="ampersand" format="2">
  <advance width="708"/>
  <unicode hex="0026"/>
  <outline>
    <contour>
      <point x="244" y="-10" type="curve" smooth="yes"/>
      <point x="328" y="-10"/>
      <point x="389" y="13"/>
      <point x="441" y="48" type="curve"/>
      <point x="476" y="0" type="line"/>
      <point x="647" y="0" type="line"/>
      <point x="547" y="140" type="line"/>
      <point x="611" y="207"/>
      <point x="658" y="288"/>
      <point x="698" y="383" type="curve"/>
      <point x="552" y="383" type="line"/>
      <point x="531" y="330"/>
      <point x="511" y="286"/>
      <point x="474" y="239" type="curve"/>
      <point x="379" y="367" type="line"/>
      <point x="490" y="412"/>
      <point x="557" y="476"/>
      <point x="557" y="575" type="curve" smooth="yes"/>
      <point x="557" y="655"/>
      <point x="505" y="725"/>
      <point x="380" y="725" type="curve" smooth="yes"/>
      <point x="259" y="725"/>
      <point x="168" y="655"/>
      <point x="168" y="520" type="curve" smooth="yes"/>
      <point x="168" y="479"/>
      <point x="180" y="436"/>
      <point x="205" y="394" type="curve"/>
      <point x="88" y="336"/>
      <point x="33" y="275"/>
      <point x="33" y="175" type="curve" smooth="yes"/>
      <point x="33" y="56"/>
      <point x="109" y="-10"/>
    </contour>
    <contour>
      <point x="266" y="115" type="curve" smooth="yes"/>
      <point x="216" y="115"/>
      <point x="187" y="150"/>
      <point x="187" y="189" type="curve" smooth="yes"/>
      <point x="187" y="247"/>
      <point x="217" y="277"/>
      <point x="264" y="304" type="curve"/>
      <point x="374" y="144" type="line"/>
      <point x="345" y="128"/>
      <point x="309" y="115"/>
    </contour>
    <contour>
      <point x="323" y="449" type="curve"/>
      <point x="312" y="467"/>
      <point x="303" y="500"/>
      <point x="303" y="530" type="curve" smooth="yes"/>
      <point x="303" y="574"/>
      <point x="326" y="611"/>
      <point x="371" y="611" type="curve" smooth="yes"/>
      <point x="397" y="611"/>
      <point x="420" y="595"/>
      <point x="420" y="558" type="curve" smooth="yes"/>
      <point x="420" y="507"/>
      <point x="376" y="476"/>
    </contour>
  </outline>
</glyph>
<glyph name="ampersand.serif" format="2">
  <advance width="801"/>
  <unicode hex="0026"/>
  <outline>
    <contour>
      <point x="268" y="-10" type="curve" smooth="yes"/>
      <point x="365" y="-10"/>
      <point x="437" y="22"/>
      <point x="492" y="69" type="curve"/>
      <point x="542" y="0" type="line"/>
      <point x="734" y="0" type="line"/>
      <point x="745" y="53" type="line"/>
      <point x="738" y="53" type="line" smooth="yes"/>
      <point x="695" y="53"/>
      <point x="665" y="67"/>
      <point x="645" y="94" type="curve" smooth="yes"/>
      <point x="582" y="177" type="line"/>
      <point x="611" y="222"/>
      <point x="633" y="267"/>
      <point x="653" y="306" type="curve" smooth="yes"/>
      <point x="684" y="366"/>
      <point x="727" y="373"/>
      <point x="772" y="373" type="curve" smooth="yes"/>
      <point x="781" y="373" type="line"/>
      <point x="792" y="426" type="line"/>
      <point x="592" y="426" type="line"/>
      <point x="584" y="388" type="line" smooth="yes"/>
      <point x="574" y="340"/>
      <point x="558" y="288"/>
      <point x="535" y="240" type="curve"/>
      <point x="412" y="402" type="line"/>
      <point x="555" y="460"/>
      <point x="607" y="502"/>
      <point x="607" y="594" type="curve" smooth="yes"/>
      <point x="607" y="667"/>
      <point x="552" y="724"/>
      <point x="429" y="724" type="curve" smooth="yes"/>
      <point x="287" y="724"/>
      <point x="205" y="666"/>
      <point x="205" y="552" type="curve" smooth="yes"/>
      <point x="205" y="505"/>
      <point x="222" y="455"/>
      <point x="252" y="404" type="curve"/>
      <point x="135" y="361"/>
      <point x="34" y="311"/>
      <point x="34" y="178" type="curve" smooth="yes"/>
      <point x="34" y="71"/>
      <point x="107" y="-10"/>
    </contour>
    <contour>
      <point x="299" y="57" type="curve" smooth="yes"/>
      <point x="224" y="57"/>
      <point x="181" y="112"/>
      <point x="181" y="186" type="curve"/>
      <point x="181" y="257"/>
      <point x="211" y="305"/>
      <point x="290" y="349" type="curve"/>
      <point x="453" y="123" type="line"/>
      <point x="412" y="83"/>
      <point x="361" y="57"/>
    </contour>
    <contour>
      <point x="379" y="450" type="curve"/>
      <point x="353" y="489"/>
      <point x="340" y="522"/>
      <point x="340" y="560" type="curve" smooth="yes"/>
      <point x="340" y="627"/>
      <point x="375" y="664"/>
      <point x="422" y="664" type="curve" smooth="yes"/>
      <point x="469" y="664"/>
      <point x="493" y="633"/>
      <point x="493" y="580" type="curve"/>
      <point x="493" y="518"/>
      <point x="461" y="485"/>
    </contour>
  </outline>
</glyph>
<glyph name="parenleft" format="2">
  <advance width="339"/>
  <unicode hex="0028"/>
  <outline>
    <contour>
      <point x="109" y="-158" type="curve"/>
      <point x="223" y="-158" type="line"/>
      <point x="187" y="-70"/>
      <point x="166" y="30"/>
      <point x="166" y="132" type="curve"/>
      <point x="166" y="370"/>
      <point x="268" y="559"/>
      <point x="410" y="714" type="curve"/>
      <point x="282" y="714" type="line"/>
      <point x="122" y="549"/>
      <point x="36" y="368"/>
      <point x="36" y="137" type="curve"/>
      <point x="36" y="30"/>
      <point x="60" y="-72"/>
    </contour>
  </outline>
</glyph>
<glyph name="parenright" format="2">
  <advance width="339"/>
  <unicode hex="0029"/>
  <outline>
    <contour>
      <point x="-72" y="-158" type="curve"/>
      <point x="56" y="-158" type="line"/>
      <point x="216" y="7"/>
      <point x="302" y="188"/>
      <point x="302" y="419" type="curve"/>
      <point x="302" y="526"/>
      <point x="278" y="628"/>
      <point x="229" y="714" type="curve"/>
      <point x="115" y="714" type="line"/>
      <point x="151" y="626"/>
      <point x="172" y="526"/>
      <point x="172" y="424" type="curve"/>
      <point x="172" y="186"/>
      <point x="70" y="-3"/>
    </contour>
  </outline>
</glyph>
<glyph name="asterisk" format="2">
  <advance width="545"/>
  <unicode hex="002A"/>
  <outline>
    <contour>
      <point x="350" y="282" type="line"/>
      <point x="470" y="318" type="line"/>
      <point x="392" y="482" type="line"/>
      <point x="557" y="461" type="line"/>
      <point x="566" y="585" type="line"/>
      <point x="377" y="571" type="line"/>
      <point x="432" y="743" type="line"/>
      <point x="307" y="768" type="line"/>
      <point x="291" y="588" type="line"/>
      <point x="126" y="673" type="line"/>
      <point x="84" y="557" type="line"/>
      <point x="243" y="512" type="line"/>
      <point x="109" y="391" type="line"/>
      <point x="210" y="311" type="line"/>
      <point x="306" y="447" type="line"/>
    </contour>
  </outline>
</glyph>
<glyph name="plus" format="2">
  <advance width="572"/>
  <unicode hex="002B"/>
  <outline>
    <contour>
      <point x="349" y="406" type="line"/>
      <point x="349" y="596" type="line"/>
      <point x="242" y="596" type="line"/>
      <point x="242" y="406" type="line"/>
      <point x="53" y="406" type="line"/>
      <point x="53" y="299" type="line"/>
      <point x="242" y="299" type="line"/>
      <point x="242" y="111" type="line"/>
      <point x="349" y="111" type="line"/>
      <point x="349" y="299" type="line"/>
      <point x="538" y="299" type="line"/>
      <point x="538" y="406" type="line"/>
    </contour>
  </outline>
</glyph>
<glyph name="comma" format="2">
  <advance width="285"/>
  <unicode hex="002C"/>
  <outline>
    <contour>
      <point x="-50" y="-129" type="curve"/>
      <point x="60" y="-129" type="line"/>
      <point x="107" y="-56"/>
      <point x="156" y="34"/>
      <point x="188" y="105" type="curve"/>
      <point x="184" y="116" type="line"/>
      <point x="45" y="116" type="line"/>
      <point x="20" y="47"/>
      <point x="-15" y="-50"/>
    </contour>
  </outline>
</glyph>
<glyph name="zero" format="2">
  <advance width="551"/>
  <unicode hex="0030"/>
  <outline>
    <contour>
      <point x="229" y="-10" type="curve" smooth="yes"/>
      <point x="450" y="-10"/>
      <point x="542" y="240"/>
      <point x="542" y="494" type="curve" smooth="yes"/>
      <point x="542" y="655"/>
      <point x="469" y="725"/>
      <point x="347" y="725" type="curve" smooth="yes"/>
      <point x="141" y="725"/>
      <point x="32" y="489"/>
      <point x="32" y="228" type="curve" smooth="yes"/>
      <point x="32" y="76"/>
      <point x="94" y="-10"/>
    </contour>
    <contour>
      <point x="241" y="112" type="curve" smooth="yes"/>
      <point x="196" y="112"/>
      <point x="180" y="151"/>
      <point x="180" y="225" type="curve" smooth="yes"/>
      <point x="180" y="349"/>
      <point x="234" y="603"/>
      <point x="334" y="603" type="curve" smooth="yes"/>
      <point x="374" y="603"/>
      <point x="394" y="571"/>
      <point x="394" y="499" type="curve" smooth="yes"/>
      <point x="394" y="341"/>
      <point x="336" y="112"/>
    </contour>
  </outline>
</glyph>
<glyph name="one" format="2">
  <advance width="551"/>
  <unicode hex="0031"/>
  <outline>
    <contour>
      <point x="275" y="405" type="curve" smooth="yes"/>
      <point x="187" y="0" type="line"/>
      <point x="336" y="0" type="line"/>
      <point x="487" y="714" type="line"/>
      <point x="365" y="714" type="line"/>
      <point x="89" y="544" type="line"/>
      <point x="154" y="439" type="line"/>
      <point x="249" y="499" type="line" smooth="yes"/>
      <point x="270" y="512"/>
      <point x="300" y="535"/>
      <point x="312" y="545" type="curve"/>
      <point x="299" y="502"/>
      <point x="282" y="439"/>
    </contour>
  </outline>
</glyph>
<glyph name="two" format="2">
  <advance width="551"/>
  <unicode hex="0032"/>
  <outline>
    <contour>
      <point x="-24" y="0" type="line"/>
      <point x="446" y="0" type="line"/>
      <point x="472" y="127" type="line"/>
      <point x="195" y="127" type="line"/>
      <point x="195" y="132" type="line"/>
      <point x="326" y="240" type="line" smooth="yes"/>
      <point x="447" y="339"/>
      <point x="536" y="423"/>
      <point x="536" y="550" type="curve" smooth="yes"/>
      <point x="536" y="639"/>
      <point x="475" y="724"/>
      <point x="335" y="724" type="curve" smooth="yes"/>
      <point x="233" y="724"/>
      <point x="157" y="680"/>
      <point x="90" y="623" type="curve"/>
      <point x="161" y="524" type="line"/>
      <point x="222" y="574"/>
      <point x="263" y="598"/>
      <point x="311" y="598" type="curve" smooth="yes"/>
      <point x="356" y="598"/>
      <point x="385" y="572"/>
      <point x="385" y="523" type="curve" smooth="yes"/>
      <point x="385" y="468"/>
      <point x="346" y="414"/>
      <point x="230" y="311" type="curve" smooth="yes"/>
      <point x="-3" y="104" type="line"/>
    </contour>
  </outline>
</glyph>
<glyph name="three" format="2">
  <advance width="551"/>
  <unicode hex="0033"/>
  <outline>
    <contour>
      <point x="196" y="-10" type="curve" smooth="yes"/>
      <point x="406" y="-10"/>
      <point x="495" y="102"/>
      <point x="495" y="215" type="curve" smooth="yes"/>
      <point x="495" y="306"/>
      <point x="437" y="351"/>
      <point x="365" y="365" type="curve"/>
      <point x="365" y="369" type="line"/>
      <point x="477" y="389"/>
      <point x="539" y="462"/>
      <point x="539" y="561" type="curve" smooth="yes"/>
      <point x="539" y="654"/>
      <point x="473" y="724"/>
      <point x="341" y="724" type="curve" smooth="yes"/>
      <point x="236" y="724"/>
      <point x="171" y="695"/>
      <point x="107" y="653" type="curve"/>
      <point x="169" y="553" type="line"/>
      <point x="203" y="575"/>
      <point x="250" y="602"/>
      <point x="309" y="602" type="curve" smooth="yes"/>
      <point x="365" y="602"/>
      <point x="389" y="572"/>
      <point x="389" y="533" type="curve" smooth="yes"/>
      <point x="389" y="448"/>
      <point x="299" y="419"/>
      <point x="214" y="419" type="curve" smooth="yes"/>
      <point x="178" y="419" type="line"/>
      <point x="156" y="311" type="line"/>
      <point x="223" y="311" type="line" smooth="yes"/>
      <point x="320" y="311"/>
      <point x="349" y="275"/>
      <point x="349" y="227" type="curve" smooth="yes"/>
      <point x="349" y="148"/>
      <point x="284" y="110"/>
      <point x="189" y="110" type="curve" smooth="yes"/>
      <point x="129" y="110"/>
      <point x="61" y="127"/>
      <point x="7" y="159" type="curve"/>
      <point x="7" y="29" type="line"/>
      <point x="55" y="3"/>
      <point x="122" y="-10"/>
    </contour>
  </outline>
</glyph>
<glyph name="four" format="2">
  <advance width="551"/>
  <unicode hex="0034"/>
  <outline>
    <contour>
      <point x="245" y="0" type="line"/>
      <point x="388" y="0" type="line"/>
      <point x="419" y="148" type="line"/>
      <point x="502" y="148" type="line"/>
      <point x="527" y="265" type="line"/>
      <point x="444" y="265" type="line"/>
      <point x="539" y="714" type="line"/>
      <point x="387" y="714" type="line"/>
      <point x="11" y="262" type="line"/>
      <point x="-12" y="148" type="line"/>
      <point x="276" y="148" type="line"/>
    </contour>
    <contour>
      <point x="149" y="265" type="line"/>
      <point x="302" y="447" type="line" smooth="yes"/>
      <point x="325" y="475"/>
      <point x="349" y="509"/>
      <point x="364" y="535" type="curve"/>
      <point x="369" y="535" type="line"/>
      <point x="360" y="511"/>
      <point x="340" y="437"/>
      <point x="329" y="386" type="curve" smooth="yes"/>
      <point x="301" y="265" type="line"/>
    </contour>
  </outline>
</glyph>
<glyph name="five" format="2">
  <advance width="551"/>
  <unicode hex="0035"/>
  <outline>
    <contour>
      <point x="199" y="-10" type="curve" smooth="yes"/>
      <point x="406" y="-10"/>
      <point x="497" y="112"/>
      <point x="497" y="260" type="curve" smooth="yes"/>
      <point x="497" y="390"/>
      <point x="412" y="450"/>
      <point x="304" y="450" type="curve" smooth="yes"/>
      <point x="279" y="450"/>
      <point x="258" y="446"/>
      <point x="242" y="443" type="curve"/>
      <point x="285" y="586" type="line"/>
      <point x="524" y="586" type="line"/>
      <point x="551" y="714" type="line"/>
      <point x="182" y="714" type="line"/>
      <point x="81" y="356" type="line"/>
      <point x="132" y="318" type="line"/>
      <point x="156" y="325"/>
      <point x="196" y="334"/>
      <point x="236" y="334" type="curve" smooth="yes"/>
      <point x="319" y="334"/>
      <point x="345" y="292"/>
      <point x="345" y="242" type="curve" smooth="yes"/>
      <point x="345" y="180"/>
      <point x="305" y="113"/>
      <point x="185" y="113" type="curve" smooth="yes"/>
      <point x="121" y="113"/>
      <point x="61" y="134"/>
      <point x="13" y="161" type="curve"/>
      <point x="13" y="30" type="line"/>
      <point x="54" y="7"/>
      <point x="122" y="-10"/>
    </contour>
  </outline>
</glyph>
<glyph name="six" format="2">
  <advance width="551"/>
  <unicode hex="0036"/>
  <outline>
    <contour>
      <point x="252" y="-10" type="curve" smooth="yes"/>
      <point x="456" y="-10"/>
      <point x="515" y="171"/>
      <point x="515" y="283" type="curve" smooth="yes"/>
      <point x="515" y="402"/>
      <point x="453" y="464"/>
      <point x="355" y="464" type="curve" smooth="yes"/>
      <point x="284" y="464"/>
      <point x="236" y="429"/>
      <point x="203" y="383" type="curve"/>
      <point x="199" y="383" type="line"/>
      <point x="239" y="529"/>
      <point x="312" y="604"/>
      <point x="445" y="604" type="curve" smooth="yes"/>
      <point x="477" y="604"/>
      <point x="514" y="599"/>
      <point x="538" y="592" type="curve"/>
      <point x="563" y="712" type="line"/>
      <point x="537" y="719"/>
      <point x="495" y="725"/>
      <point x="454" y="725" type="curve" smooth="yes"/>
      <point x="344" y="725"/>
      <point x="266" y="696"/>
      <point x="201" y="637" type="curve" smooth="yes"/>
      <point x="102" y="547"/>
      <point x="43" y="384"/>
      <point x="43" y="229" type="curve" smooth="yes"/>
      <point x="43" y="76"/>
      <point x="114" y="-10"/>
    </contour>
    <contour>
      <point x="259" y="111" type="curve" smooth="yes"/>
      <point x="213" y="111"/>
      <point x="187" y="151"/>
      <point x="187" y="206" type="curve" smooth="yes"/>
      <point x="187" y="221"/>
      <point x="188" y="236"/>
      <point x="191" y="251" type="curve" smooth="yes"/>
      <point x="199" y="296"/>
      <point x="245" y="348"/>
      <point x="302" y="348" type="curve" smooth="yes"/>
      <point x="346" y="348"/>
      <point x="368" y="318"/>
      <point x="368" y="272" type="curve" smooth="yes"/>
      <point x="368" y="193"/>
      <point x="332" y="111"/>
    </contour>
  </outline>
</glyph>
<glyph name="seven" format="2">
  <advance width="551"/>
  <unicode hex="0037"/>
  <outline>
    <contour>
      <point x="38" y="0" type="line"/>
      <point x="207" y="0" type="line"/>
      <point x="574" y="619" type="line"/>
      <point x="594" y="714" type="line"/>
      <point x="118" y="714" type="line"/>
      <point x="91" y="587" type="line"/>
      <point x="398" y="587" type="line"/>
    </contour>
  </outline>
</glyph>
<glyph name="eight" format="2">
  <advance width="551"/>
  <unicode hex="0038"/>
  <outline>
    <contour>
      <point x="251" y="-10" type="curve" smooth="yes"/>
      <point x="424" y="-10"/>
      <point x="504" y="91"/>
      <point x="504" y="196" type="curve" smooth="yes"/>
      <point x="504" y="287"/>
      <point x="450" y="340"/>
      <point x="398" y="374" type="curve"/>
      <point x="477" y="402"/>
      <point x="550" y="459"/>
      <point x="550" y="562" type="curve" smooth="yes"/>
      <point x="550" y="650"/>
      <point x="485" y="725"/>
      <point x="352" y="725" type="curve" smooth="yes"/>
      <point x="198" y="725"/>
      <point x="116" y="635"/>
      <point x="116" y="525" type="curve" smooth="yes"/>
      <point x="116" y="458"/>
      <point x="157" y="410"/>
      <point x="197" y="379" type="curve"/>
      <point x="88" y="339"/>
      <point x="27" y="273"/>
      <point x="27" y="171" type="curve" smooth="yes"/>
      <point x="27" y="68"/>
      <point x="102" y="-10"/>
    </contour>
    <contour>
      <point x="262" y="101" type="curve" smooth="yes"/>
      <point x="207" y="101"/>
      <point x="172" y="135"/>
      <point x="172" y="187" type="curve" smooth="yes"/>
      <point x="172" y="246"/>
      <point x="209" y="285"/>
      <point x="284" y="314" type="curve"/>
      <point x="329" y="285"/>
      <point x="361" y="250"/>
      <point x="361" y="195" type="curve" smooth="yes"/>
      <point x="361" y="147"/>
      <point x="330" y="101"/>
    </contour>
    <contour>
      <point x="318" y="436" type="curve"/>
      <point x="282" y="456"/>
      <point x="258" y="487"/>
      <point x="258" y="534" type="curve" smooth="yes"/>
      <point x="258" y="579"/>
      <point x="287" y="615"/>
      <point x="339" y="615" type="curve" smooth="yes"/>
      <point x="380" y="615"/>
      <point x="408" y="588"/>
      <point x="408" y="544" type="curve" smooth="yes"/>
      <point x="408" y="492"/>
      <point x="374" y="458"/>
    </contour>
  </outline>
</glyph>
<glyph name="nine" format="2">
  <advance width="551"/>
  <unicode hex="0039"/>
  <outline>
    <contour>
      <point x="159" y="-10" type="curve" smooth="yes"/>
      <point x="266" y="-10"/>
      <point x="341" y="25"/>
      <point x="397" y="83" type="curve" smooth="yes"/>
      <point x="488" y="178"/>
      <point x="533" y="348"/>
      <point x="533" y="489" type="curve" smooth="yes"/>
      <point x="533" y="655"/>
      <point x="453" y="725"/>
      <point x="331" y="725" type="curve" smooth="yes"/>
      <point x="117" y="725"/>
      <point x="60" y="547"/>
      <point x="60" y="441" type="curve" smooth="yes"/>
      <point x="60" y="332"/>
      <point x="113" y="251"/>
      <point x="227" y="251" type="curve" smooth="yes"/>
      <point x="294" y="251"/>
      <point x="339" y="282"/>
      <point x="371" y="328" type="curve"/>
      <point x="375" y="328" type="line"/>
      <point x="348" y="220"/>
      <point x="298" y="111"/>
      <point x="153" y="111" type="curve" smooth="yes"/>
      <point x="109" y="111"/>
      <point x="67" y="122"/>
      <point x="42" y="131" type="curve"/>
      <point x="42" y="6" type="line"/>
      <point x="69" y="-2"/>
      <point x="115" y="-10"/>
    </contour>
    <contour>
      <point x="277" y="367" type="curve" smooth="yes"/>
      <point x="233" y="367"/>
      <point x="207" y="397"/>
      <point x="207" y="453" type="curve" smooth="yes"/>
      <point x="207" y="522"/>
      <point x="242" y="604"/>
      <point x="315" y="604" type="curve" smooth="yes"/>
      <point x="364" y="604"/>
      <point x="386" y="566"/>
      <point x="386" y="511" type="curve" smooth="yes"/>
      <point x="386" y="496"/>
      <point x="385" y="481"/>
      <point x="382" y="466" type="curve" smooth="yes"/>
      <point x="374" y="421"/>
      <point x="334" y="367"/>
    </contour>
  </outline>
</glyph>
<glyph name="semicolon" format="2">
  <advance width="285"/>
  <unicode hex="003B"/>
  <outline>
    <contour>
      <point x="-50" y="-129" type="curve"/>
      <point x="60" y="-129" type="line"/>
      <point x="107" y="-56"/>
      <point x="156" y="34"/>
      <point x="188" y="105" type="curve"/>
      <point x="184" y="116" type="line"/>
      <point x="45" y="116" type="line"/>
      <point x="20" y="47"/>
      <point x="-15" y="-50"/>
    </contour>
    <contour>
      <point x="177" y="390" type="curve" smooth="yes"/>
      <point x="236" y="390"/>
      <point x="274" y="430"/>
      <point x="274" y="485" type="curve" smooth="yes"/>
      <point x="274" y="530"/>
      <point x="245" y="556"/>
      <point x="201" y="556" type="curve" smooth="yes"/>
      <point x="128" y="556"/>
      <point x="101" y="507"/>
      <point x="101" y="459" type="curve" smooth="yes"/>
      <point x="101" y="424"/>
      <point x="121" y="390"/>
    </contour>
  </outline>
</glyph>
<glyph name="equal" format="2">
  <advance width="572"/>
  <unicode hex="003D"/>
  <outline>
    <contour>
      <point x="53" y="394" type="line"/>
      <point x="538" y="394" type="line"/>
      <point x="538" y="500" type="line"/>
      <point x="53" y="500" type="line"/>
    </contour>
    <contour>
      <point x="53" y="204" type="line"/>
      <point x="538" y="204" type="line"/>
      <point x="538" y="311" type="line"/>
      <point x="53" y="311" type="line"/>
    </contour>
  </outline>
</glyph>
<glyph name="question" format="2">
  <advance width="459"/>
  <unicode hex="003F"/>
  <outline>
    <contour>
      <point x="127" y="237" type="curve"/>
      <point x="253" y="237" type="line"/>
      <point x="267" y="294"/>
      <point x="285" y="318"/>
      <point x="344" y="357" type="curve" smooth="yes"/>
      <point x="428" y="413"/>
      <point x="491" y="462"/>
      <point x="491" y="562" type="curve" smooth="yes"/>
      <point x="491" y="663"/>
      <point x="421" y="724"/>
      <point x="304" y="724" type="curve" smooth="yes"/>
      <point x="220" y="724"/>
      <point x="147" y="696"/>
      <point x="87" y="663" type="curve"/>
      <point x="132" y="555" type="line"/>
      <point x="190" y="583"/>
      <point x="235" y="604"/>
      <point x="282" y="604" type="curve" smooth="yes"/>
      <point x="328" y="604"/>
      <point x="347" y="582"/>
      <point x="347" y="546" type="curve" smooth="yes"/>
      <point x="347" y="504"/>
      <point x="319" y="481"/>
      <point x="254" y="437" type="curve" smooth="yes"/>
      <point x="174" y="383"/>
      <point x="144" y="329"/>
    </contour>
    <contour>
      <point x="153" y="-13" type="curve" smooth="yes"/>
      <point x="212" y="-13"/>
      <point x="250" y="27"/>
      <point x="250" y="82" type="curve" smooth="yes"/>
      <point x="250" y="127"/>
      <point x="221" y="153"/>
      <point x="177" y="153" type="curve" smooth="yes"/>
      <point x="104" y="153"/>
      <point x="77" y="104"/>
      <point x="77" y="56" type="curve" smooth="yes"/>
      <point x="77" y="21"/>
      <point x="97" y="-13"/>
    </contour>
  </outline>
</glyph>
<glyph name="at" format="2">
  <advance width="856"/>
  <unicode hex="0040"/>
  <outline>
    <contour>
      <point x="391" y="-91" type="curve" smooth="yes"/>
      <point x="480" y="-91"/>
      <point x="555" y="-72"/>
      <point x="618" y="-47" type="curve"/>
      <point x="618" y="44" type="line"/>
      <point x="548" y="17"/>
      <point x="485" y="2"/>
      <point x="403" y="2" type="curve" smooth="yes"/>
      <point x="225" y="2"/>
      <point x="154" y="118"/>
      <point x="154" y="255" type="curve" smooth="yes"/>
      <point x="154" y="479"/>
      <point x="304" y="622"/>
      <point x="502" y="622" type="curve" smooth="yes"/>
      <point x="663" y="622"/>
      <point x="738" y="540"/>
      <point x="738" y="408" type="curve" smooth="yes"/>
      <point x="738" y="305"/>
      <point x="686" y="189"/>
      <point x="615" y="189" type="curve" smooth="yes"/>
      <point x="599" y="189"/>
      <point x="587" y="198"/>
      <point x="587" y="222" type="curve" smooth="yes"/>
      <point x="587" y="243"/>
      <point x="593" y="262"/>
      <point x="600" y="291" type="curve" smooth="yes"/>
      <point x="652" y="496" type="line"/>
      <point x="612" y="511"/>
      <point x="564" y="523"/>
      <point x="492" y="523" type="curve" smooth="yes"/>
      <point x="334" y="523"/>
      <point x="237" y="386"/>
      <point x="237" y="251" type="curve" smooth="yes"/>
      <point x="237" y="144"/>
      <point x="294" y="100"/>
      <point x="368" y="100" type="curve" smooth="yes"/>
      <point x="430" y="100"/>
      <point x="465" y="128"/>
      <point x="493" y="172" type="curve"/>
      <point x="498" y="172" type="line"/>
      <point x="510" y="122"/>
      <point x="552" y="100"/>
      <point x="604" y="100" type="curve" smooth="yes"/>
      <point x="757" y="100"/>
      <point x="846" y="252"/>
      <point x="846" y="410" type="curve" smooth="yes"/>
      <point x="846" y="602"/>
      <point x="721" y="714"/>
      <point x="514" y="714" type="curve" smooth="yes"/>
      <point x="266" y="714"/>
      <point x="45" y="547"/>
      <point x="45" y="244" type="curve" smooth="yes"/>
      <point x="45" y="56"/>
      <point x="163" y="-91"/>
    </contour>
    <contour>
      <point x="394" y="189" type="curve" smooth="yes"/>
      <point x="370" y="189"/>
      <point x="348" y="206"/>
      <point x="348" y="257" type="curve" smooth="yes"/>
      <point x="348" y="327"/>
      <point x="392" y="434"/>
      <point x="486" y="434" type="curve" smooth="yes"/>
      <point x="503" y="434"/>
      <point x="514" y="432"/>
      <point x="526" y="429" type="curve"/>
      <point x="498" y="321" type="line" smooth="yes"/>
      <point x="477" y="242"/>
      <point x="446" y="189"/>
    </contour>
  </outline>
</glyph>
<glyph name="at.serif" format="2">
  <advance width="921"/>
  <unicode hex="0040"/>
  <outline>
    <contour>
      <point x="458" y="-142" type="curve" smooth="yes"/>
      <point x="585" y="-142"/>
      <point x="696" y="-98"/>
      <point x="766" y="-45" type="curve"/>
      <point x="742" y="-7" type="line"/>
      <point x="680" y="-49"/>
      <point x="580" y="-91"/>
      <point x="472" y="-91" type="curve" smooth="yes"/>
      <point x="292" y="-91"/>
      <point x="141" y="2"/>
      <point x="141" y="238" type="curve" smooth="yes"/>
      <point x="141" y="501"/>
      <point x="325" y="663"/>
      <point x="515" y="663" type="curve" smooth="yes"/>
      <point x="676" y="663"/>
      <point x="793" y="571"/>
      <point x="793" y="388" type="curve" smooth="yes"/>
      <point x="793" y="224"/>
      <point x="731" y="135"/>
      <point x="678" y="135" type="curve" smooth="yes"/>
      <point x="656" y="135"/>
      <point x="630" y="147"/>
      <point x="630" y="202" type="curve" smooth="yes"/>
      <point x="630" y="218"/>
      <point x="634" y="254"/>
      <point x="637" y="270" type="curve" smooth="yes"/>
      <point x="679" y="520" type="line"/>
      <point x="655" y="520" type="line"/>
      <point x="613" y="499" type="line"/>
      <point x="592" y="515"/>
      <point x="559" y="529"/>
      <point x="513" y="529" type="curve" smooth="yes"/>
      <point x="319" y="529"/>
      <point x="244" y="355"/>
      <point x="244" y="248" type="curve" smooth="yes"/>
      <point x="244" y="131"/>
      <point x="317" y="77"/>
      <point x="401" y="77" type="curve" smooth="yes"/>
      <point x="471" y="77"/>
      <point x="511" y="119"/>
      <point x="539" y="171" type="curve"/>
      <point x="545" y="171" type="line"/>
      <point x="567" y="104"/>
      <point x="609" y="77"/>
      <point x="668" y="77" type="curve" smooth="yes"/>
      <point x="768" y="77"/>
      <point x="874" y="193"/>
      <point x="874" y="392" type="curve" smooth="yes"/>
      <point x="874" y="573"/>
      <point x="753" y="714"/>
      <point x="522" y="714" type="curve" smooth="yes"/>
      <point x="245" y="714"/>
      <point x="43" y="512"/>
      <point x="43" y="244" type="curve" smooth="yes"/>
      <point x="43" y="-15"/>
      <point x="230" y="-142"/>
    </contour>
    <contour>
      <point x="431" y="135" type="curve" smooth="yes"/>
      <point x="393" y="135"/>
      <point x="367" y="172"/>
      <point x="367" y="238" type="curve" smooth="yes"/>
      <point x="367" y="318"/>
      <point x="408" y="485"/>
      <point x="509" y="485" type="curve" smooth="yes"/>
      <point x="530" y="485"/>
      <point x="554" y="475"/>
      <point x="562" y="457" type="curve"/>
      <point x="522" y="253" type="line" smooth="yes"/>
      <point x="511" y="195"/>
      <point x="488" y="135"/>
    </contour>
  </outline>
</glyph>
<glyph name="B" format="2">
  <advance width="620"/>
  <unicode hex="0042"/>
  <anchor x="292" y="0" name="bottom"/>
  <anchor x="402" y="714" name="top"/>
  <anchor x="694" y="714" name="topright"/>
  <outline>
    <contour>
      <point x="26" y="0" type="line"/>
      <point x="281" y="0" type="line" smooth="yes"/>
      <point x="440" y="0"/>
      <point x="562" y="71"/>
      <point x="562" y="233" type="curve" smooth="yes"/>
      <point x="562" y="304"/>
      <point x="520" y="351"/>
      <point x="455" y="368" type="curve"/>
      <point x="455" y="372" type="line"/>
      <point x="554" y="393"/>
      <point x="611" y="458"/>
      <point x="611" y="555" type="curve" smooth="yes"/>
      <point x="611" y="669"/>
      <point x="521" y="714"/>
      <point x="385" y="714" type="curve" smooth="yes"/>
      <point x="177" y="714" type="line"/>
    </contour>
    <contour>
      <point x="289" y="125" type="curve" smooth="yes"/>
      <point x="201" y="125" type="line"/>
      <point x="241" y="311" type="line"/>
      <point x="322" y="311" type="line" smooth="yes"/>
      <point x="382" y="311"/>
      <point x="411" y="282"/>
      <point x="411" y="232" type="curve" smooth="yes"/>
      <point x="411" y="162"/>
      <point x="362" y="125"/>
    </contour>
    <contour>
      <point x="339" y="431" type="curve" smooth="yes"/>
      <point x="266" y="431" type="line"/>
      <point x="300" y="590" type="line"/>
      <point x="374" y="590" type="line" smooth="yes"/>
      <point x="430" y="590"/>
      <point x="457" y="567"/>
      <point x="457" y="523" type="curve" smooth="yes"/>
      <point x="457" y="458"/>
      <point x="410" y="431"/>
    </contour>
  </outline>
</glyph>
<glyph name="B.serif" format="2">
  <advance width="672"/>
  <unicode hex="0042"/>
  <anchor x="279" y="0" name="bottom"/>
  <anchor x="431" y="714" name="top"/>
  <anchor x="747" y="714" name="topright"/>
  <outline>
    <contour>
      <point x="-23" y="0" type="line"/>
      <point x="341" y="0" type="line" smooth="yes"/>
      <point x="530" y="0"/>
      <point x="629" y="82"/>
      <point x="629" y="228" type="curve" smooth="yes"/>
      <point x="629" y="312"/>
      <point x="579" y="361"/>
      <point x="507" y="374" type="curve"/>
      <point x="508" y="378" type="line"/>
      <point x="600" y="399"/>
      <point x="671" y="454"/>
      <point x="671" y="564" type="curve" smooth="yes"/>
      <point x="671" y="662"/>
      <point x="591" y="714"/>
      <point x="437" y="714" type="curve" smooth="yes"/>
      <point x="127" y="714" type="line"/>
      <point x="116" y="661" type="line"/>
      <point x="129" y="661" type="line" smooth="yes"/>
      <point x="170" y="661"/>
      <point x="199" y="653"/>
      <point x="199" y="624" type="curve" smooth="yes"/>
      <point x="199" y="609"/>
      <point x="195" y="594"/>
      <point x="190" y="569" type="curve" smooth="yes"/>
      <point x="93" y="113" type="line" smooth="yes"/>
      <point x="82" y="61"/>
      <point x="43" y="53"/>
      <point x="1" y="53" type="curve" smooth="yes"/>
      <point x="-12" y="53" type="line"/>
    </contour>
    <contour>
      <point x="308" y="61" type="curve" smooth="yes"/>
      <point x="239" y="61" type="line"/>
      <point x="299" y="343" type="line"/>
      <point x="362" y="343" type="line" smooth="yes"/>
      <point x="431" y="343"/>
      <point x="464" y="307"/>
      <point x="464" y="235" type="curve" smooth="yes"/>
      <point x="464" y="122"/>
      <point x="421" y="61"/>
    </contour>
    <contour>
      <point x="368" y="405" type="curve" smooth="yes"/>
      <point x="312" y="405" type="line"/>
      <point x="364" y="653" type="line"/>
      <point x="408" y="653" type="line" smooth="yes"/>
      <point x="469" y="653"/>
      <point x="502" y="617"/>
      <point x="502" y="547" type="curve" smooth="yes"/>
      <point x="502" y="456"/>
      <point x="463" y="405"/>
    </contour>
  </outline>
</glyph>
<glyph name="C.serif" format="2">
  <advance width="668"/>
  <unicode hex="0043"/>
  <anchor x="347" y="0" name="bottom"/>
  <anchor x="499" y="714" name="top"/>
  <anchor x="743" y="714" name="topright"/>
  <outline>
    <contour>
      <point x="366" y="-10" type="curve" smooth="yes"/>
      <point x="517" y="-10"/>
      <point x="599" y="64"/>
      <point x="599" y="131" type="curve" smooth="yes"/>
      <point x="599" y="146"/>
      <point x="590" y="159"/>
      <point x="582" y="165" type="curve"/>
      <point x="549" y="120"/>
      <point x="494" y="74"/>
      <point x="402" y="74" type="curve" smooth="yes"/>
      <point x="287" y="74"/>
      <point x="229" y="139"/>
      <point x="229" y="253" type="curve" smooth="yes"/>
      <point x="229" y="430"/>
      <point x="320" y="664"/>
      <point x="477" y="664" type="curve" smooth="yes"/>
      <point x="551" y="664"/>
      <point x="562" y="575"/>
      <point x="562" y="519" type="curve"/>
      <point x="643" y="519"/>
      <point x="703" y="551"/>
      <point x="703" y="609" type="curve" smooth="yes"/>
      <point x="703" y="681"/>
      <point x="638" y="728"/>
      <point x="505" y="728" type="curve" smooth="yes"/>
      <point x="238" y="728"/>
      <point x="63" y="499"/>
      <point x="63" y="259" type="curve" smooth="yes"/>
      <point x="63" y="88"/>
      <point x="175" y="-10"/>
    </contour>
  </outline>
</glyph>
<glyph name="D" format="2">
  <advance width="677"/>
  <unicode hex="0044"/>
  <anchor x="283" y="0" name="bottom"/>
  <anchor x="379" y="357" name="center"/>
  <anchor x="429" y="714" name="top"/>
  <anchor x="751" y="714" name="topright"/>
  <outline>
    <contour>
      <point x="26" y="0" type="line"/>
      <point x="246" y="0" type="line" smooth="yes"/>
      <point x="502" y="0"/>
      <point x="646" y="173"/>
      <point x="646" y="444" type="curve" smooth="yes"/>
      <point x="646" y="619"/>
      <point x="545" y="714"/>
      <point x="370" y="714" type="curve" smooth="yes"/>
      <point x="177" y="714" type="line"/>
    </contour>
    <contour>
      <point x="253" y="125" type="curve" smooth="yes"/>
      <point x="201" y="125" type="line"/>
      <point x="300" y="590" type="line"/>
      <point x="356" y="590" type="line" smooth="yes"/>
      <point x="441" y="590"/>
      <point x="493" y="541"/>
      <point x="493" y="436" type="curve" smooth="yes"/>
      <point x="493" y="271"/>
      <point x="417" y="125"/>
    </contour>
  </outline>
</glyph>
<glyph name="D.serif" format="2">
  <advance width="768"/>
  <unicode hex="0044"/>
  <anchor x="327" y="0" name="bottom"/>
  <anchor x="422" y="357" name="center"/>
  <anchor x="479" y="714" name="top"/>
  <anchor x="843" y="714" name="topright"/>
  <outline>
    <contour>
      <point x="-24" y="0" type="line"/>
      <point x="328" y="0" type="line" smooth="yes"/>
      <point x="600" y="0"/>
      <point x="750" y="204"/>
      <point x="750" y="442" type="curve" smooth="yes"/>
      <point x="750" y="619"/>
      <point x="638" y="714"/>
      <point x="447" y="714" type="curve" smooth="yes"/>
      <point x="127" y="714" type="line"/>
      <point x="116" y="661" type="line"/>
      <point x="129" y="661" type="line" smooth="yes"/>
      <point x="171" y="661"/>
      <point x="201" y="656"/>
      <point x="201" y="627" type="curve" smooth="yes"/>
      <point x="201" y="622"/>
      <point x="199" y="611"/>
      <point x="197" y="604" type="curve" smooth="yes"/>
      <point x="93" y="113" type="line" smooth="yes"/>
      <point x="82" y="61"/>
      <point x="43" y="53"/>
      <point x="1" y="53" type="curve" smooth="yes"/>
      <point x="-13" y="53" type="line"/>
    </contour>
    <contour>
      <point x="285" y="62" type="curve"/>
      <point x="240" y="62" type="line"/>
      <point x="365" y="653" type="line"/>
      <point x="407" y="653" type="line" smooth="yes"/>
      <point x="514" y="653"/>
      <point x="582" y="590"/>
      <point x="582" y="450" type="curve" smooth="yes"/>
      <point x="582" y="222"/>
      <point x="472" y="62"/>
    </contour>
  </outline>
</glyph>
<glyph name="E" format="2">
  <advance width="542"/>
  <unicode hex="0045"/>
  <anchor x="246" y="0" name="bottom"/>
  <anchor x="368" y="714" name="top"/>
  <anchor x="616" y="714" name="topright"/>
  <outline>
    <contour>
      <point x="26" y="0" type="line"/>
      <point x="425" y="0" type="line"/>
      <point x="451" y="125" type="line"/>
      <point x="201" y="125" type="line"/>
      <point x="240" y="309" type="line"/>
      <point x="473" y="309" type="line"/>
      <point x="500" y="433" type="line"/>
      <point x="267" y="433" type="line"/>
      <point x="300" y="590" type="line"/>
      <point x="550" y="590" type="line"/>
      <point x="576" y="714" type="line"/>
      <point x="177" y="714" type="line"/>
    </contour>
  </outline>
</glyph>
<glyph name="E.serif" format="2">
  <advance width="633"/>
  <unicode hex="0045"/>
  <anchor x="260" y="0" name="bottom"/>
  <anchor x="412" y="714" name="top"/>
  <anchor x="708" y="714" name="topright"/>
  <outline>
    <contour>
      <point x="-23" y="0" type="line"/>
      <point x="551" y="0" type="line"/>
      <point x="597" y="186" type="line"/>
      <point x="526" y="186" type="line"/>
      <point x="510" y="143" type="line" smooth="yes"/>
      <point x="494" y="99"/>
      <point x="460" y="61"/>
      <point x="397" y="61" type="curve" smooth="yes"/>
      <point x="239" y="61" type="line"/>
      <point x="299" y="343" type="line"/>
      <point x="526" y="343" type="line"/>
      <point x="539" y="403" type="line"/>
      <point x="312" y="403" type="line"/>
      <point x="365" y="653" type="line"/>
      <point x="498" y="653" type="line" smooth="yes"/>
      <point x="550" y="653"/>
      <point x="569" y="623"/>
      <point x="569" y="586" type="curve" smooth="yes"/>
      <point x="569" y="581"/>
      <point x="565" y="537"/>
      <point x="564" y="528" type="curve"/>
      <point x="635" y="528" type="line"/>
      <point x="670" y="714" type="line"/>
      <point x="127" y="714" type="line"/>
      <point x="116" y="661" type="line"/>
      <point x="129" y="661" type="line" smooth="yes"/>
      <point x="171" y="661"/>
      <point x="201" y="656"/>
      <point x="201" y="627" type="curve" smooth="yes"/>
      <point x="201" y="622"/>
      <point x="199" y="611"/>
      <point x="197" y="604" type="curve" smooth="yes"/>
      <point x="93" y="113" type="line" smooth="yes"/>
      <point x="82" y="61"/>
      <point x="43" y="53"/>
      <point x="1" y="53" type="curve" smooth="yes"/>
      <point x="-12" y="53" type="line"/>
    </contour>
  </outline>
</glyph>
<glyph name="F.serif" format="2">
  <advance width="621"/>
  <unicode hex="0046"/>
  <anchor x="152" y="0" name="bottom"/>
  <anchor x="406" y="714" name="top"/>
  <anchor x="696" y="714" name="topright"/>
  <outline>
    <contour>
      <point x="-23" y="0" type="line"/>
      <point x="321" y="0" type="line"/>
      <point x="332" y="53" type="line"/>
      <point x="319" y="53" type="line" smooth="yes"/>
      <point x="277" y="53"/>
      <point x="246" y="58"/>
      <point x="246" y="87" type="curve" smooth="yes"/>
      <point x="246" y="92"/>
      <point x="248" y="103"/>
      <point x="251" y="118" type="curve" smooth="yes"/>
      <point x="295" y="321" type="line"/>
      <point x="532" y="321" type="line"/>
      <point x="544" y="380" type="line"/>
      <point x="307" y="380" type="line"/>
      <point x="365" y="653" type="line"/>
      <point x="501" y="653" type="line" smooth="yes"/>
      <point x="557" y="653"/>
      <point x="576" y="624"/>
      <point x="576" y="586" type="curve" smooth="yes"/>
      <point x="576" y="581"/>
      <point x="573" y="550"/>
      <point x="571" y="528" type="curve"/>
      <point x="642" y="528" type="line"/>
      <point x="677" y="714" type="line"/>
      <point x="127" y="714" type="line"/>
      <point x="116" y="661" type="line"/>
      <point x="129" y="661" type="line" smooth="yes"/>
      <point x="171" y="661"/>
      <point x="201" y="656"/>
      <point x="201" y="627" type="curve" smooth="yes"/>
      <point x="201" y="622"/>
      <point x="199" y="611"/>
      <point x="195" y="593" type="curve" smooth="yes"/>
      <point x="93" y="113" type="line" smooth="yes"/>
      <point x="82" y="61"/>
      <point x="43" y="53"/>
      <point x="1" y="53" type="curve" smooth="yes"/>
      <point x="-12" y="53" type="line"/>
    </contour>
  </outline>
</glyph>
<glyph name="I.serif" format="2">
  <advance width="401"/>
  <unicode hex="0049"/>
  <anchor x="144" y="0" name="bottom"/>
  <anchor x="296" y="714" name="top"/>
  <anchor x="476" y="714" name="topright"/>
  <outline>
    <contour>
      <point x="-23" y="0" type="line"/>
      <point x="321" y="0" type="line"/>
      <point x="332" y="53" type="line"/>
      <point x="319" y="53" type="line" smooth="yes"/>
      <point x="277" y="53"/>
      <point x="246" y="58"/>
      <point x="246" y="87" type="curve" smooth="yes"/>
      <point x="246" y="92"/>
      <point x="249" y="103"/>
      <point x="250" y="110" type="curve" smooth="yes"/>
      <point x="353" y="600" type="line" smooth="yes"/>
      <point x="364" y="653"/>
      <point x="404" y="661"/>
      <point x="448" y="661" type="curve" smooth="yes"/>
      <point x="461" y="661" type="line"/>
      <point x="472" y="714" type="line"/>
      <point x="127" y="714" type="line"/>
      <point x="116" y="661" type="line"/>
      <point x="129" y="661" type="line" smooth="yes"/>
      <point x="171" y="661"/>
      <point x="201" y="656"/>
      <point x="201" y="627" type="curve" smooth="yes"/>
      <point x="201" y="622"/>
      <point x="200" y="610"/>
      <point x="197" y="597" type="curve" smooth="yes"/>
      <point x="93" y="113" type="line" smooth="yes"/>
      <point x="82" y="61"/>
      <point x="43" y="53"/>
      <point x="1" y="53" type="curve" smooth="yes"/>
      <point x="-12" y="53" type="line"/>
    </contour>
  </outline>
</glyph>
<glyph name="J.serif" format="2">
  <advance width="401"/>
  <unicode hex="004A"/>
  <anchor x="-76" y="-240" name="bottom"/>
  <anchor x="296" y="714" name="top"/>
  <anchor x="476" y="714" name="topright"/>
  <outline>
    <contour>
      <point x="-76" y="-240" type="curve" smooth="yes"/>
      <point x="60" y="-240"/>
      <point x="192" y="-166"/>
      <point x="226" y="-3" type="curve" smooth="yes"/>
      <point x="353" y="600" type="line"/>
      <point x="364" y="653"/>
      <point x="404" y="661"/>
      <point x="448" y="661" type="curve" smooth="yes"/>
      <point x="461" y="661" type="line"/>
      <point x="472" y="714" type="line"/>
      <point x="127" y="714" type="line"/>
      <point x="116" y="661" type="line"/>
      <point x="129" y="661" type="line" smooth="yes"/>
      <point x="171" y="661"/>
      <point x="201" y="656"/>
      <point x="201" y="627" type="curve" smooth="yes"/>
      <point x="201" y="622"/>
      <point x="199" y="611"/>
      <point x="197" y="604" type="curve" smooth="yes"/>
      <point x="68" y="-3" type="line" smooth="yes"/>
      <point x="39" y="-137"/>
      <point x="-10" y="-183"/>
      <point x="-79" y="-183" type="curve" smooth="yes"/>
      <point x="-99" y="-183"/>
      <point x="-127" y="-180"/>
      <point x="-144" y="-174" type="curve"/>
      <point x="-158" y="-229" type="line"/>
      <point x="-134" y="-236"/>
      <point x="-112" y="-240"/>
    </contour>
  </outline>
</glyph>
<glyph name="L.serif" format="2">
  <advance width="654"/>
  <unicode hex="004C"/>
  <anchor x="270" y="0" name="bottom"/>
  <anchor x="365" y="357" name="center"/>
  <anchor x="422" y="714" name="top"/>
  <anchor x="729" y="714" name="topright"/>
  <outline>
    <contour>
      <point x="-23" y="0" type="line"/>
      <point x="563" y="0" type="line"/>
      <point x="618" y="223" type="line"/>
      <point x="554" y="223" type="line"/>
      <point x="536" y="170" type="line" smooth="yes"/>
      <point x="511" y="97"/>
      <point x="480" y="61"/>
      <point x="407" y="61" type="curve" smooth="yes"/>
      <point x="240" y="61" type="line"/>
      <point x="353" y="600" type="line" smooth="yes"/>
      <point x="364" y="653"/>
      <point x="404" y="661"/>
      <point x="448" y="661" type="curve" smooth="yes"/>
      <point x="461" y="661" type="line"/>
      <point x="472" y="714" type="line"/>
      <point x="127" y="714" type="line"/>
      <point x="116" y="661" type="line"/>
      <point x="129" y="661" type="line" smooth="yes"/>
      <point x="171" y="661"/>
      <point x="201" y="656"/>
      <point x="201" y="627" type="curve" smooth="yes"/>
      <point x="201" y="622"/>
      <point x="199" y="611"/>
      <point x="195" y="593" type="curve" smooth="yes"/>
      <point x="93" y="113" type="line" smooth="yes"/>
      <point x="82" y="61"/>
      <point x="43" y="53"/>
      <point x="1" y="53" type="curve" smooth="yes"/>
      <point x="-12" y="53" type="line"/>
    </contour>
  </outline>
</glyph>
<glyph name="N" format="2">
  <advance width="755"/>
  <unicode hex="004E"/>
  <anchor x="311" y="0" name="bottom"/>
  <anchor x="477" y="714" name="top"/>
  <anchor x="829" y="714" name="topright"/>
  <outline>
    <contour>
      <point x="26" y="0" type="line"/>
      <point x="160" y="0" type="line"/>
      <point x="231" y="336" type="line" smooth="yes"/>
      <point x="245" y="404"/>
      <point x="261" y="525"/>
      <point x="263" y="540" type="curve"/>
      <point x="268" y="540" type="line"/>
      <point x="442" y="0" type="line"/>
      <point x="609" y="0" type="line"/>
      <point x="760" y="714" type="line"/>
      <point x="626" y="714" type="line"/>
      <point x="554" y="376" type="line" smooth="yes"/>
      <point x="542" y="319"/>
      <point x="528" y="230"/>
      <point x="521" y="188" type="curve"/>
      <point x="517" y="188" type="line"/>
      <point x="351" y="714" type="line"/>
      <point x="177" y="714" type="line"/>
    </contour>
  </outline>
</glyph>
<glyph name="N.serif" format="2">
  <advance width="788"/>
  <unicode hex="004E"/>
  <anchor x="337" y="0" name="bottom"/>
  <anchor x="489" y="714" name="top"/>
  <anchor x="863" y="714" name="topright"/>
  <outline>
    <contour>
      <point x="-23" y="0" type="line"/>
      <point x="229" y="0" type="line"/>
      <point x="240" y="53" type="line"/>
      <point x="237" y="53" type="line" smooth="yes"/>
      <point x="195" y="53"/>
      <point x="164" y="58"/>
      <point x="164" y="87" type="curve" smooth="yes"/>
      <point x="164" y="92"/>
      <point x="166" y="103"/>
      <point x="169" y="118" type="curve" smooth="yes"/>
      <point x="263" y="566" type="line"/>
      <point x="534" y="0" type="line"/>
      <point x="626" y="0" type="line"/>
      <point x="753" y="601" type="line" smooth="yes"/>
      <point x="764" y="653"/>
      <point x="803" y="661"/>
      <point x="845" y="661" type="curve" smooth="yes"/>
      <point x="858" y="661" type="line"/>
      <point x="869" y="714" type="line"/>
      <point x="617" y="714" type="line"/>
      <point x="606" y="661" type="line"/>
      <point x="609" y="661" type="line" smooth="yes"/>
      <point x="651" y="661"/>
      <point x="682" y="656"/>
      <point x="682" y="627" type="curve" smooth="yes"/>
      <point x="682" y="622"/>
      <point x="680" y="611"/>
      <point x="677" y="596" type="curve" smooth="yes"/>
      <point x="593" y="201" type="line"/>
      <point x="349" y="714" type="line"/>
      <point x="127" y="714" type="line"/>
      <point x="116" y="661" type="line"/>
      <point x="129" y="661" type="line" smooth="yes"/>
      <point x="171" y="661"/>
      <point x="201" y="656"/>
      <point x="201" y="627" type="curve" smooth="yes"/>
      <point x="201" y="622"/>
      <point x="199" y="611"/>
      <point x="195" y="593" type="curve" smooth="yes"/>
      <point x="93" y="113" type="line" smooth="yes"/>
      <point x="82" y="61"/>
      <point x="43" y="53"/>
      <point x="1" y="53" type="curve" smooth="yes"/>
      <point x="-12" y="53" type="line"/>
    </contour>
  </outline>
</glyph>
<glyph name="O.serif" format="2">
  <advance width="792"/>
  <unicode hex="004F"/>
  <anchor x="339" y="0" name="bottom"/>
  <anchor x="434" y="357" name="center"/>
  <anchor x="491" y="714" name="top"/>
  <anchor x="867" y="714" name="topright"/>
  <outline>
    <contour>
      <point x="342" y="-11" type="curve" smooth="yes"/>
      <point x="628" y="-11"/>
      <point x="765" y="266"/>
      <point x="765" y="450" type="curve" smooth="yes"/>
      <point x="765" y="641"/>
      <point x="636" y="725"/>
      <point x="489" y="725" type="curve" smooth="yes"/>
      <point x="207" y="725"/>
      <point x="63" y="458"/>
      <point x="63" y="266" type="curve" smooth="yes"/>
      <point x="63" y="85"/>
      <point x="184" y="-11"/>
    </contour>
    <contour>
      <point x="362" y="55" type="curve"/>
      <point x="286" y="55"/>
      <point x="226" y="111"/>
      <point x="226" y="242" type="curve" smooth="yes"/>
      <point x="226" y="399"/>
      <point x="302" y="660"/>
      <point x="468" y="660" type="curve" smooth="yes"/>
      <point x="546" y="660"/>
      <point x="603" y="603"/>
      <point x="603" y="473" type="curve" smooth="yes"/>
      <point x="603" y="316"/>
      <point x="528" y="55"/>
    </contour>
  </outline>
</glyph>
<glyph name="P.serif" format="2">
  <advance width="663"/>
  <unicode hex="0050"/>
  <anchor x="152" y="0" name="bottom"/>
  <anchor x="427" y="714" name="top"/>
  <anchor x="738" y="714" name="topright"/>
  <outline>
    <contour>
      <point x="-23" y="0" type="line"/>
      <point x="341" y="0" type="line"/>
      <point x="352" y="53" type="line"/>
      <point x="319" y="53" type="line" smooth="yes"/>
      <point x="277" y="53"/>
      <point x="246" y="58"/>
      <point x="246" y="87" type="curve" smooth="yes"/>
      <point x="246" y="92"/>
      <point x="248" y="103"/>
      <point x="250" y="110" type="curve" smooth="yes"/>
      <point x="286" y="273" type="line"/>
      <point x="362" y="273" type="line" smooth="yes"/>
      <point x="619" y="273"/>
      <point x="668" y="417"/>
      <point x="668" y="519" type="curve" smooth="yes"/>
      <point x="668" y="647"/>
      <point x="570" y="714"/>
      <point x="413" y="714" type="curve" smooth="yes"/>
      <point x="127" y="714" type="line"/>
      <point x="116" y="661" type="line"/>
      <point x="129" y="661" type="line" smooth="yes"/>
      <point x="171" y="661"/>
      <point x="201" y="656"/>
      <point x="201" y="627" type="curve" smooth="yes"/>
      <point x="201" y="622"/>
      <point x="199" y="611"/>
      <point x="195" y="593" type="curve" smooth="yes"/>
      <point x="93" y="113" type="line" smooth="yes"/>
      <point x="82" y="61"/>
      <point x="43" y="53"/>
      <point x="1" y="53" type="curve" smooth="yes"/>
      <point x="-12" y="53" type="line"/>
    </contour>
    <contour>
      <point x="340" y="331" type="curve" smooth="yes"/>
      <point x="298" y="331" type="line"/>
      <point x="368" y="655" type="line"/>
      <point x="390" y="655" type="line" smooth="yes"/>
      <point x="457" y="655"/>
      <point x="505" y="616"/>
      <point x="505" y="516" type="curve" smooth="yes"/>
      <point x="505" y="408"/>
      <point x="461" y="331"/>
    </contour>
  </outline>
</glyph>
<glyph name="Q.serif" format="2">
  <advance width="787"/>
  <unicode hex="0051"/>
  <anchor x="286" y="-240" name="bottom"/>
  <anchor x="489" y="714" name="top"/>
  <anchor x="862" y="714" name="topright"/>
  <outline>
    <contour>
      <point x="482" y="-240" type="curve"/>
      <point x="521" y="-240"/>
      <point x="547" y="-235"/>
      <point x="574" y="-225" type="curve"/>
      <point x="567" y="-179" type="line"/>
      <point x="562" y="-180"/>
      <point x="552" y="-182"/>
      <point x="538" y="-182" type="curve" smooth="yes"/>
      <point x="484" y="-182"/>
      <point x="440" y="-147"/>
      <point x="436" y="0" type="curve"/>
      <point x="657" y="53"/>
      <point x="764" y="287"/>
      <point x="764" y="450" type="curve" smooth="yes"/>
      <point x="764" y="641"/>
      <point x="635" y="725"/>
      <point x="488" y="725" type="curve" smooth="yes"/>
      <point x="206" y="725"/>
      <point x="62" y="458"/>
      <point x="62" y="266" type="curve" smooth="yes"/>
      <point x="62" y="114"/>
      <point x="147" y="22"/>
      <point x="268" y="-3" type="curve"/>
      <point x="272" y="-172"/>
      <point x="362" y="-240"/>
    </contour>
    <contour>
      <point x="361" y="55" type="curve" smooth="yes"/>
      <point x="285" y="55"/>
      <point x="225" y="111"/>
      <point x="225" y="242" type="curve" smooth="yes"/>
      <point x="225" y="399"/>
      <point x="301" y="660"/>
      <point x="467" y="660" type="curve" smooth="yes"/>
      <point x="545" y="660"/>
      <point x="602" y="603"/>
      <point x="602" y="473" type="curve" smooth="yes"/>
      <point x="602" y="316"/>
      <point x="527" y="55"/>
    </contour>
  </outline>
</glyph>
<glyph name="S.serif" format="2">
  <advance width="586"/>
  <unicode hex="0053"/>
  <anchor x="236" y="0" name="bottom"/>
  <anchor x="388" y="714" name="top"/>
  <anchor x="661" y="714" name="topright"/>
  <outline>
    <contour>
      <point x="261" y="-10" type="curve" smooth="yes"/>
      <point x="429" y="-10"/>
      <point x="536" y="71"/>
      <point x="536" y="213" type="curve" smooth="yes"/>
      <point x="536" y="298"/>
      <point x="489" y="363"/>
      <point x="388" y="417" type="curve" smooth="yes"/>
      <point x="299" y="466"/>
      <point x="255" y="490"/>
      <point x="255" y="560" type="curve" smooth="yes"/>
      <point x="255" y="630"/>
      <point x="312" y="663"/>
      <point x="365" y="663" type="curve" smooth="yes"/>
      <point x="443" y="663"/>
      <point x="464" y="585"/>
      <point x="464" y="525" type="curve"/>
      <point x="557" y="525"/>
      <point x="595" y="558"/>
      <point x="595" y="612" type="curve" smooth="yes"/>
      <point x="595" y="675"/>
      <point x="522" y="724"/>
      <point x="374" y="724" type="curve" smooth="yes"/>
      <point x="216" y="724"/>
      <point x="115" y="640"/>
      <point x="115" y="520" type="curve" smooth="yes"/>
      <point x="115" y="415"/>
      <point x="169" y="355"/>
      <point x="273" y="298" type="curve" smooth="yes"/>
      <point x="373" y="243"/>
      <point x="396" y="210"/>
      <point x="396" y="154" type="curve" smooth="yes"/>
      <point x="396" y="96"/>
      <point x="352" y="51"/>
      <point x="277" y="51" type="curve" smooth="yes"/>
      <point x="198" y="51"/>
      <point x="144" y="108"/>
      <point x="144" y="230" type="curve"/>
      <point x="68" y="230"/>
      <point x="14" y="199"/>
      <point x="14" y="136" type="curve" smooth="yes"/>
      <point x="14" y="53"/>
      <point x="96" y="-10"/>
    </contour>
  </outline>
</glyph>
<glyph name="T" format="2">
  <advance width="531"/>
  <unicode hex="0054"/>
  <anchor x="208" y="0" name="bottom"/>
  <anchor x="306" y="357" name="center"/>
  <anchor x="360" y="714" name="top"/>
  <anchor x="605" y="714" name="topright"/>
  <outline>
    <contour>
      <point x="130" y="0" type="line"/>
      <point x="279" y="0" type="line"/>
      <point x="403" y="588" type="line"/>
      <point x="575" y="588" type="line"/>
      <point x="602" y="714" type="line"/>
      <point x="109" y="714" type="line"/>
      <point x="82" y="588" type="line"/>
      <point x="254" y="588" type="line"/>
    </contour>
  </outline>
</glyph>
<glyph name="T.serif" format="2">
  <advance width="653"/>
  <unicode hex="0054"/>
  <anchor x="270" y="0" name="bottom"/>
  <anchor x="365" y="357" name="center"/>
  <anchor x="422" y="714" name="top"/>
  <anchor x="728" y="714" name="topright"/>
  <outline>
    <contour>
      <point x="104" y="0" type="line"/>
      <point x="448" y="0" type="line"/>
      <point x="459" y="53" type="line"/>
      <point x="446" y="53" type="line" smooth="yes"/>
      <point x="404" y="53"/>
      <point x="373" y="58"/>
      <point x="373" y="87" type="curve" smooth="yes"/>
      <point x="373" y="92"/>
      <point x="376" y="103"/>
      <point x="377" y="110" type="curve" smooth="yes"/>
      <point x="492" y="653" type="line"/>
      <point x="572" y="653" type="line" smooth="yes"/>
      <point x="623" y="653"/>
      <point x="642" y="635"/>
      <point x="642" y="600" type="curve" smooth="yes"/>
      <point x="642" y="594"/>
      <point x="635" y="529"/>
      <point x="634" y="520" type="curve"/>
      <point x="701" y="520" type="line"/>
      <point x="736" y="714" type="line"/>
      <point x="114" y="714" type="line"/>
      <point x="68" y="520" type="line"/>
      <point x="135" y="520" type="line"/>
      <point x="149" y="563" type="line" smooth="yes"/>
      <point x="168" y="621"/>
      <point x="191" y="653"/>
      <point x="253" y="653" type="curve" smooth="yes"/>
      <point x="333" y="653" type="line"/>
      <point x="220" y="113" type="line" smooth="yes"/>
      <point x="209" y="61"/>
      <point x="170" y="53"/>
      <point x="128" y="53" type="curve" smooth="yes"/>
      <point x="115" y="53" type="line"/>
    </contour>
  </outline>
</glyph>
<glyph name="U.serif" format="2">
  <advance width="747"/>
  <unicode hex="0055"/>
  <anchor x="317" y="0" name="bottom"/>
  <anchor x="469" y="714" name="top"/>
  <anchor x="822" y="714" name="topright"/>
  <outline>
    <contour>
      <point x="341" y="-10" type="curve" smooth="yes"/>
      <point x="510" y="-10"/>
      <point x="600" y="71"/>
      <point x="632" y="220" type="curve" smooth="yes"/>
      <point x="712" y="600" type="line"/>
      <point x="723" y="653"/>
      <point x="763" y="661"/>
      <point x="806" y="661" type="curve" smooth="yes"/>
      <point x="819" y="661" type="line"/>
      <point x="830" y="714" type="line"/>
      <point x="567" y="714" type="line"/>
      <point x="556" y="661" type="line"/>
      <point x="569" y="661" type="line" smooth="yes"/>
      <point x="611" y="661"/>
      <point x="641" y="656"/>
      <point x="641" y="627" type="curve" smooth="yes"/>
      <point x="641" y="622"/>
      <point x="639" y="608"/>
      <point x="637" y="597" type="curve"/>
      <point x="560" y="236" type="line" smooth="yes"/>
      <point x="539" y="135"/>
      <point x="498" y="61"/>
      <point x="377" y="61" type="curve" smooth="yes"/>
      <point x="297" y="61"/>
      <point x="254" y="96"/>
      <point x="254" y="163" type="curve" smooth="yes"/>
      <point x="254" y="191"/>
      <point x="261" y="227"/>
      <point x="266" y="250" type="curve" smooth="yes"/>
      <point x="342" y="602" type="line" smooth="yes"/>
      <point x="353" y="653"/>
      <point x="393" y="661"/>
      <point x="437" y="661" type="curve" smooth="yes"/>
      <point x="450" y="661" type="line"/>
      <point x="461" y="714" type="line"/>
      <point x="115" y="714" type="line"/>
      <point x="104" y="661" type="line"/>
      <point x="117" y="661" type="line" smooth="yes"/>
      <point x="159" y="661"/>
      <point x="189" y="656"/>
      <point x="189" y="627" type="curve" smooth="yes"/>
      <point x="189" y="622"/>
      <point x="187" y="611"/>
      <point x="183" y="593" type="curve" smooth="yes"/>
      <point x="110" y="252" type="line"/>
      <point x="105" y="229"/>
      <point x="99" y="184"/>
      <point x="99" y="163" type="curve" smooth="yes"/>
      <point x="99" y="53"/>
      <point x="185" y="-10"/>
    </contour>
  </outline>
</glyph>
<glyph name="W" format="2">
  <advance width="894"/>
  <unicode hex="0057"/>
  <anchor x="394" y="0" name="bottom"/>
  <anchor x="541" y="714" name="top"/>
  <anchor x="968" y="714" name="topright"/>
  <outline>
    <contour>
      <point x="112" y="0" type="line"/>
      <point x="277" y="0" type="line"/>
      <point x="435" y="351" type="line" smooth="yes"/>
      <point x="455" y="396"/>
      <point x="473" y="444"/>
      <point x="490" y="497" type="curve"/>
      <point x="494" y="497" type="line"/>
      <point x="492" y="446"/>
      <point x="493" y="412"/>
      <point x="495" y="325" type="curve" smooth="yes"/>
      <point x="503" y="0" type="line"/>
      <point x="672" y="0" type="line"/>
      <point x="988" y="714" type="line"/>
      <point x="837" y="714" type="line"/>
      <point x="676" y="325" type="line" smooth="yes"/>
      <point x="657" y="280"/>
      <point x="631" y="210"/>
      <point x="613" y="155" type="curve"/>
      <point x="609" y="155" type="line"/>
      <point x="613" y="209"/>
      <point x="614" y="280"/>
      <point x="613" y="314" type="curve" smooth="yes"/>
      <point x="603" y="714" type="line"/>
      <point x="471" y="714" type="line"/>
      <point x="291" y="314" type="line" smooth="yes"/>
      <point x="273" y="273"/>
      <point x="248" y="207"/>
      <point x="230" y="155" type="curve"/>
      <point x="226" y="155" type="line"/>
      <point x="231" y="207"/>
      <point x="233" y="274"/>
      <point x="233" y="324" type="curve" smooth="yes"/>
      <point x="230" y="714" type="line"/>
      <point x="90" y="714" type="line"/>
    </contour>
  </outline>
</glyph>
<glyph name="W.serif" format="2">
  <advance width="1067"/>
  <unicode hex="0057"/>
  <anchor x="477" y="0" name="bottom"/>
  <anchor x="629" y="714" name="top"/>
  <anchor x="1142" y="714" name="topright"/>
  <outline>
    <contour>
      <point x="162" y="613" type="curve" smooth="yes"/>
      <point x="216" y="0" type="line"/>
      <point x="340" y="0" type="line"/>
      <point x="583" y="477" type="line"/>
      <point x="652" y="0" type="line"/>
      <point x="766" y="0" type="line"/>
      <point x="1046" y="588" type="line" smooth="yes"/>
      <point x="1075" y="648"/>
      <point x="1093" y="661"/>
      <point x="1132" y="661" type="curve" smooth="yes"/>
      <point x="1156" y="661" type="line"/>
      <point x="1167" y="714" type="line"/>
      <point x="906" y="714" type="line"/>
      <point x="896" y="661" type="line"/>
      <point x="919" y="661" type="line" smooth="yes"/>
      <point x="957" y="661"/>
      <point x="974" y="656"/>
      <point x="974" y="636" type="curve" smooth="yes"/>
      <point x="974" y="622"/>
      <point x="968" y="602"/>
      <point x="959" y="583" type="curve" smooth="yes"/>
      <point x="848" y="344" type="line" smooth="yes"/>
      <point x="818" y="280"/>
      <point x="787" y="204"/>
      <point x="772" y="159" type="curve"/>
      <point x="772" y="202"/>
      <point x="764" y="262"/>
      <point x="755" y="325" type="curve" smooth="yes"/>
      <point x="698" y="707" type="line"/>
      <point x="625" y="707" type="line"/>
      <point x="402" y="279" type="line" smooth="yes"/>
      <point x="382" y="240"/>
      <point x="363" y="200"/>
      <point x="349" y="161" type="curve"/>
      <point x="349" y="204"/>
      <point x="344" y="293"/>
      <point x="341" y="328" type="curve" smooth="yes"/>
      <point x="322" y="577" type="line" smooth="yes"/>
      <point x="321" y="596"/>
      <point x="320" y="610"/>
      <point x="320" y="621" type="curve" smooth="yes"/>
      <point x="320" y="653"/>
      <point x="347" y="661"/>
      <point x="390" y="661" type="curve" smooth="yes"/>
      <point x="413" y="661" type="line"/>
      <point x="424" y="714" type="line"/>
      <point x="97" y="714" type="line"/>
      <point x="86" y="661" type="line"/>
      <point x="99" y="661" type="line" smooth="yes"/>
      <point x="132" y="661"/>
      <point x="158" y="654"/>
    </contour>
  </outline>
</glyph>
<glyph name="X.serif" format="2">
  <advance width="732"/>
  <unicode hex="0058"/>
  <anchor x="309" y="0" name="bottom"/>
  <anchor x="461" y="714" name="top"/>
  <anchor x="807" y="714" name="topright"/>
  <outline>
    <contour>
      <point x="-42" y="0" type="line"/>
      <point x="210" y="0" type="line"/>
      <point x="221" y="53" type="line"/>
      <point x="218" y="53" type="line" smooth="yes"/>
      <point x="174" y="53"/>
      <point x="163" y="64"/>
      <point x="163" y="83" type="curve" smooth="yes"/>
      <point x="163" y="102"/>
      <point x="179" y="125"/>
      <point x="203" y="150" type="curve" smooth="yes"/>
      <point x="392" y="346" type="line"/>
      <point x="324" y="339" type="line"/>
      <point x="404" y="157" type="line" smooth="yes"/>
      <point x="416" y="130"/>
      <point x="423" y="107"/>
      <point x="423" y="88" type="curve" smooth="yes"/>
      <point x="423" y="66"/>
      <point x="406" y="53"/>
      <point x="366" y="53" type="curve" smooth="yes"/>
      <point x="351" y="53" type="line"/>
      <point x="340" y="0" type="line"/>
      <point x="670" y="0" type="line"/>
      <point x="681" y="53" type="line"/>
      <point x="668" y="53" type="line" smooth="yes"/>
      <point x="643" y="53"/>
      <point x="617" y="65"/>
      <point x="599" y="106" type="curve" smooth="yes"/>
      <point x="457" y="436" type="line"/>
      <point x="427" y="340" type="line"/>
      <point x="664" y="590" type="line" smooth="yes"/>
      <point x="715" y="644"/>
      <point x="738" y="661"/>
      <point x="777" y="661" type="curve" smooth="yes"/>
      <point x="786" y="661" type="line"/>
      <point x="797" y="714" type="line"/>
      <point x="564" y="714" type="line"/>
      <point x="553" y="661" type="line"/>
      <point x="556" y="661" type="line" smooth="yes"/>
      <point x="587" y="661"/>
      <point x="604" y="653"/>
      <point x="604" y="636" type="curve" smooth="yes"/>
      <point x="604" y="618"/>
      <point x="587" y="594"/>
      <point x="569" y="575" type="curve" smooth="yes"/>
      <point x="402" y="397" type="line"/>
      <point x="469" y="408" type="line"/>
      <point x="398" y="573" type="line" smooth="yes"/>
      <point x="386" y="601"/>
      <point x="380" y="620"/>
      <point x="380" y="633" type="curve" smooth="yes"/>
      <point x="380" y="651"/>
      <point x="394" y="661"/>
      <point x="427" y="661" type="curve" smooth="yes"/>
      <point x="450" y="661" type="line"/>
      <point x="461" y="714" type="line"/>
      <point x="130" y="714" type="line"/>
      <point x="119" y="661" type="line"/>
      <point x="128" y="661" type="line" smooth="yes"/>
      <point x="166" y="661"/>
      <point x="186" y="655"/>
      <point x="206" y="610" type="curve" smooth="yes"/>
      <point x="336" y="311" type="line"/>
      <point x="367" y="404" type="line"/>
      <point x="97" y="125" type="line" smooth="yes"/>
      <point x="45" y="71"/>
      <point x="19" y="53"/>
      <point x="-21" y="53" type="curve" smooth="yes"/>
      <point x="-31" y="53" type="line"/>
    </contour>
  </outline>
</glyph>
<glyph name="Y" format="2">
  <advance width="564"/>
  <unicode hex="0059"/>
  <anchor x="224" y="0" name="bottom"/>
  <anchor x="366" y="714" name="top"/>
  <anchor x="638" y="714" name="topright"/>
  <outline>
    <contour>
      <point x="148" y="0" type="line"/>
      <point x="296" y="0" type="line"/>
      <point x="354" y="273" type="line"/>
      <point x="656" y="714" type="line"/>
      <point x="489" y="714" type="line"/>
      <point x="306" y="425" type="line"/>
      <point x="243" y="714" type="line"/>
      <point x="91" y="714" type="line"/>
      <point x="206" y="273" type="line"/>
    </contour>
  </outline>
</glyph>
<glyph name="Y.serif" format="2">
  <advance width="693"/>
  <unicode hex="0059"/>
  <anchor x="290" y="0" name="bottom"/>
  <anchor x="442" y="714" name="top"/>
  <anchor x="768" y="714" name="topright"/>
  <outline>
    <contour>
      <point x="111" y="0" type="line"/>
      <point x="480" y="0" type="line"/>
      <point x="491" y="53" type="line"/>
      <point x="467" y="53" type="line" smooth="yes"/>
      <point x="425" y="53"/>
      <point x="394" y="58"/>
      <point x="394" y="87" type="curve" smooth="yes"/>
      <point x="394" y="92"/>
      <point x="397" y="103"/>
      <point x="398" y="110" type="curve" smooth="yes"/>
      <point x="428" y="252" type="line"/>
      <point x="676" y="596" type="line" smooth="yes"/>
      <point x="713" y="647"/>
      <point x="731" y="661"/>
      <point x="761" y="661" type="curve" smooth="yes"/>
      <point x="780" y="661" type="line"/>
      <point x="791" y="714" type="line"/>
      <point x="529" y="714" type="line"/>
      <point x="517" y="661" type="line"/>
      <point x="538" y="661" type="line" smooth="yes"/>
      <point x="582" y="661"/>
      <point x="599" y="652"/>
      <point x="599" y="634" type="curve" smooth="yes"/>
      <point x="599" y="612"/>
      <point x="585" y="583"/>
      <point x="569" y="560" type="curve" smooth="yes"/>
      <point x="470" y="419" type="line" smooth="yes"/>
      <point x="436" y="370"/>
      <point x="409" y="327"/>
      <point x="397" y="301" type="curve"/>
      <point x="395" y="334"/>
      <point x="384" y="387"/>
      <point x="374" y="426" type="curve" smooth="yes"/>
      <point x="338" y="567" type="line" smooth="yes"/>
      <point x="330" y="597"/>
      <point x="326" y="620"/>
      <point x="326" y="632" type="curve" smooth="yes"/>
      <point x="326" y="650"/>
      <point x="338" y="661"/>
      <point x="368" y="661" type="curve" smooth="yes"/>
      <point x="413" y="661" type="line"/>
      <point x="424" y="714" type="line"/>
      <point x="99" y="714" type="line"/>
      <point x="88" y="661" type="line"/>
      <point x="101" y="661" type="line" smooth="yes"/>
      <point x="140" y="661"/>
      <point x="149" y="647"/>
      <point x="161" y="608" type="curve" smooth="yes"/>
      <point x="269" y="253" type="line"/>
      <point x="240" y="114" type="line" smooth="yes"/>
      <point x="229" y="62"/>
      <point x="191" y="53"/>
      <point x="149" y="53" type="curve" smooth="yes"/>
      <point x="122" y="53" type="line"/>
    </contour>
  </outline>
</glyph>
<glyph name="Z" format="2">
  <advance width="536"/>
  <unicode hex="005A"/>
  <anchor x="211" y="0" name="bottom"/>
  <anchor x="363" y="714" name="top"/>
  <anchor x="610" y="714" name="topright"/>
  <outline>
    <contour>
      <point x="-30" y="0" type="line"/>
      <point x="449" y="0" type="line"/>
      <point x="475" y="125" type="line"/>
      <point x="184" y="125" type="line"/>
      <point x="566" y="615" type="line"/>
      <point x="586" y="714" type="line"/>
      <point x="129" y="714" type="line"/>
      <point x="103" y="589" type="line"/>
      <point x="368" y="589" type="line"/>
      <point x="-11" y="98" type="line"/>
    </contour>
  </outline>
</glyph>
<glyph name="Z.serif" format="2">
  <advance width="666"/>
  <unicode hex="005A"/>
  <anchor x="276" y="0" name="bottom"/>
  <anchor x="428" y="714" name="top"/>
  <anchor x="741" y="714" name="topright"/>
  <outline>
    <contour>
      <point x="-2" y="0" type="line"/>
      <point x="573" y="0" type="line"/>
      <point x="621" y="206" type="line"/>
      <point x="549" y="206" type="line"/>
      <point x="538" y="170" type="line" smooth="yes"/>
      <point x="514" y="90"/>
      <point x="468" y="61"/>
      <point x="407" y="61" type="curve" smooth="yes"/>
      <point x="201" y="61" type="line"/>
      <point x="695" y="663" type="line"/>
      <point x="705" y="714" type="line"/>
      <point x="173" y="714" type="line"/>
      <point x="124" y="508" type="line"/>
      <point x="196" y="508" type="line"/>
      <point x="213" y="566" type="line" smooth="yes"/>
      <point x="230" y="627"/>
      <point x="266" y="653"/>
      <point x="326" y="653" type="curve" smooth="yes"/>
      <point x="500" y="653" type="line"/>
      <point x="7" y="50" type="line"/>
    </contour>
  </outline>
</glyph>
<glyph name="bracketleft" format="2">
  <advance width="331"/>
  <unicode hex="005B"/>
  <outline>
    <contour>
      <point x="-18" y="-158" type="line"/>
      <point x="213" y="-158" type="line"/>
      <point x="235" y="-55" type="line"/>
      <point x="130" y="-55" type="line"/>
      <point x="272" y="611" type="line"/>
      <point x="377" y="611" type="line"/>
      <point x="399" y="714" type="line"/>
      <point x="168" y="714" type="line"/>
    </contour>
  </outline>
</glyph>
<glyph name="bracketright" format="2">
  <advance width="331"/>
  <unicode hex="005D"/>
  <outline>
    <contour>
      <point x="-67" y="-158" type="line"/>
      <point x="163" y="-158" type="line"/>
      <point x="349" y="714" type="line"/>
      <point x="118" y="714" type="line"/>
      <point x="96" y="611" type="line"/>
      <point x="201" y="611" type="line"/>
      <point x="59" y="-55" type="line"/>
      <point x="-45" y="-55" type="line"/>
    </contour>
  </outline>
</glyph>
<glyph name="asciicircum" format="2">
  <advance width="551"/>
  <unicode hex="005E"/>
  <outline>
    <contour>
      <point x="17" y="254" type="line"/>
      <point x="136" y="254" type="line"/>
      <point x="332" y="563" type="line"/>
      <point x="417" y="254" type="line"/>
      <point x="526" y="254" type="line"/>
      <point x="391" y="718" type="line"/>
      <point x="319" y="718" type="line"/>
    </contour>
  </outline>
</glyph>
<glyph name="underscore" format="2">
  <advance width="400"/>
  <unicode hex="005F"/>
  <outline>
    <contour>
      <point x="-91" y="-158" type="line"/>
      <point x="310" y="-158" type="line"/>
      <point x="325" y="-90" type="line"/>
      <point x="-76" y="-90" type="line"/>
    </contour>
  </outline>
</glyph>
<glyph name="grave" format="2">
  <advance width="322"/>
  <unicode hex="0060"/>
  <anchor x="257" y="546" name="_top"/>
  <outline>
    <contour>
      <point x="263" y="606" type="curve"/>
      <point x="353" y="606" type="line"/>
      <point x="353" y="618" type="line"/>
      <point x="328" y="667"/>
      <point x="308" y="721"/>
      <point x="297" y="766" type="curve"/>
      <point x="145" y="766" type="line"/>
      <point x="145" y="756" type="line"/>
      <point x="168" y="710"/>
      <point x="222" y="646"/>
    </contour>
  </outline>
</glyph>
<glyph name="grave.serif" format="2">
  <advance width="334"/>
  <unicode hex="0060"/>
  <outline>
    <contour>
      <point x="307" y="606" type="curve"/>
      <point x="366" y="606" type="line"/>
      <point x="369" y="619" type="line"/>
      <point x="347" y="650"/>
      <point x="310" y="718"/>
      <point x="294" y="766" type="curve"/>
      <point x="147" y="766" type="line"/>
      <point x="144" y="756" type="line"/>
      <point x="172" y="717"/>
      <point x="249" y="640"/>
    </contour>
  </outline>
</glyph>
<glyph name="b.serif" format="2">
  <advance width="623"/>
  <unicode hex="0062"/>
  <anchor x="255" y="0" name="bottom"/>
  <anchor x="417" y="760" name="top"/>
  <anchor x="708" y="760" name="topright"/>
  <outline>
    <contour>
      <point x="261" y="-10" type="curve" smooth="yes"/>
      <point x="463" y="-10"/>
      <point x="583" y="203"/>
      <point x="583" y="365" type="curve" smooth="yes"/>
      <point x="583" y="483"/>
      <point x="522" y="546"/>
      <point x="437" y="546" type="curve" smooth="yes"/>
      <point x="349" y="546"/>
      <point x="295" y="498"/>
      <point x="247" y="401" type="curve"/>
      <point x="242" y="401" type="line"/>
      <point x="252" y="429"/>
      <point x="289" y="532"/>
      <point x="297" y="570" type="curve" smooth="yes"/>
      <point x="337" y="760" type="line"/>
      <point x="95" y="760" type="line"/>
      <point x="85" y="707" type="line"/>
      <point x="108" y="707" type="line" smooth="yes"/>
      <point x="146" y="707"/>
      <point x="161" y="701"/>
      <point x="161" y="665" type="curve" smooth="yes"/>
      <point x="161" y="660"/>
      <point x="158" y="639"/>
      <point x="154" y="622" type="curve" smooth="yes"/>
      <point x="21" y="-3" type="line"/>
      <point x="77" y="-3" type="line"/>
      <point x="134" y="26" type="line"/>
      <point x="159" y="7"/>
      <point x="206" y="-10"/>
    </contour>
    <contour>
      <point x="256" y="54" type="curve" smooth="yes"/>
      <point x="228" y="54"/>
      <point x="205" y="66"/>
      <point x="191" y="82" type="curve"/>
      <point x="232" y="271" type="line" smooth="yes"/>
      <point x="243" y="321"/>
      <point x="304" y="466"/>
      <point x="378" y="466" type="curve" smooth="yes"/>
      <point x="407" y="466"/>
      <point x="431" y="437"/>
      <point x="431" y="358" type="curve" smooth="yes"/>
      <point x="431" y="255"/>
      <point x="373" y="54"/>
    </contour>
  </outline>
</glyph>
<glyph name="c.serif" format="2">
  <advance width="528"/>
  <unicode hex="0063"/>
  <anchor x="227" y="0" name="bottom"/>
  <anchor x="351" y="536" name="top"/>
  <anchor x="565" y="536" name="topright"/>
  <outline>
    <contour>
      <point x="261" y="-10" type="curve" smooth="yes"/>
      <point x="398" y="-10"/>
      <point x="458" y="52"/>
      <point x="458" y="104" type="curve" smooth="yes"/>
      <point x="458" y="124"/>
      <point x="451" y="140"/>
      <point x="443" y="148" type="curve"/>
      <point x="415" y="108"/>
      <point x="374" y="66"/>
      <point x="303" y="66" type="curve" smooth="yes"/>
      <point x="231" y="66"/>
      <point x="193" y="114"/>
      <point x="193" y="195" type="curve" smooth="yes"/>
      <point x="193" y="298"/>
      <point x="247" y="486"/>
      <point x="333" y="486" type="curve" smooth="yes"/>
      <point x="381" y="486"/>
      <point x="406" y="427"/>
      <point x="406" y="356" type="curve"/>
      <point x="494" y="356"/>
      <point x="528" y="399"/>
      <point x="528" y="440" type="curve" smooth="yes"/>
      <point x="528" y="497"/>
      <point x="480" y="546"/>
      <point x="369" y="546" type="curve" smooth="yes"/>
      <point x="153" y="546"/>
      <point x="40" y="345"/>
      <point x="40" y="197" type="curve" smooth="yes"/>
      <point x="40" y="58"/>
      <point x="140" y="-10"/>
    </contour>
  </outline>
</glyph>
<glyph name="d.serif" format="2">
  <advance width="665"/>
  <unicode hex="0064"/>
  <anchor x="276" y="0" name="bottom"/>
  <anchor x="390" y="268" name="center"/>
  <anchor x="438" y="760" name="top"/>
  <anchor x="710" y="760" name="topright"/>
  <outline>
    <contour>
      <point x="186" y="-10" type="curve" smooth="yes"/>
      <point x="268" y="-10"/>
      <point x="326" y="32"/>
      <point x="376" y="135" type="curve"/>
      <point x="382" y="135" type="line"/>
      <point x="378" y="117"/>
      <point x="375" y="95"/>
      <point x="375" y="70" type="curve" smooth="yes"/>
      <point x="375" y="17"/>
      <point x="415" y="-10"/>
      <point x="473" y="-10" type="curve" smooth="yes"/>
      <point x="542" y="-10"/>
      <point x="596" y="22"/>
      <point x="631" y="51" type="curve"/>
      <point x="609" y="90" type="line"/>
      <point x="593" y="80"/>
      <point x="570" y="69"/>
      <point x="553" y="69" type="curve" smooth="yes"/>
      <point x="535" y="69"/>
      <point x="518" y="83"/>
      <point x="518" y="114" type="curve" smooth="yes"/>
      <point x="518" y="138"/>
      <point x="527" y="185"/>
      <point x="533" y="215" type="curve" smooth="yes"/>
      <point x="649" y="760" type="line"/>
      <point x="408" y="760" type="line"/>
      <point x="399" y="707" type="line"/>
      <point x="422" y="707" type="line" smooth="yes"/>
      <point x="460" y="707"/>
      <point x="475" y="701"/>
      <point x="475" y="665" type="curve" smooth="yes"/>
      <point x="475" y="658"/>
      <point x="472" y="639"/>
      <point x="468" y="622" type="curve" smooth="yes"/>
      <point x="459" y="582" type="line" smooth="yes"/>
      <point x="456" y="570"/>
      <point x="450" y="538"/>
      <point x="448" y="521" type="curve"/>
      <point x="422" y="536"/>
      <point x="386" y="546"/>
      <point x="347" y="546" type="curve" smooth="yes"/>
      <point x="151" y="546"/>
      <point x="40" y="329"/>
      <point x="40" y="173" type="curve" smooth="yes"/>
      <point x="40" y="74"/>
      <point x="83" y="-10"/>
    </contour>
    <contour>
      <point x="246" y="70" type="curve" smooth="yes"/>
      <point x="215" y="70"/>
      <point x="192" y="96"/>
      <point x="192" y="172" type="curve" smooth="yes"/>
      <point x="192" y="282"/>
      <point x="253" y="482"/>
      <point x="366" y="482" type="curve" smooth="yes"/>
      <point x="390" y="482"/>
      <point x="418" y="472"/>
      <point x="432" y="454" type="curve"/>
      <point x="397" y="288" type="line" smooth="yes"/>
      <point x="374" y="180"/>
      <point x="305" y="70"/>
    </contour>
  </outline>
</glyph>
<glyph name="e" format="2">
  <advance width="557"/>
  <unicode hex="0065"/>
  <anchor x="245" y="0" name="bottom"/>
  <anchor x="343" y="546" name="top"/>
  <anchor x="595" y="546" name="topright"/>
  <outline>
    <contour>
      <point x="260" y="-10" type="curve" smooth="yes"/>
      <point x="338" y="-10"/>
      <point x="393" y="4"/>
      <point x="450" y="32" type="curve"/>
      <point x="450" y="143" type="line"/>
      <point x="386" y="113"/>
      <point x="346" y="101"/>
      <point x="289" y="101" type="curve" smooth="yes"/>
      <point x="227" y="101"/>
      <point x="192" y="138"/>
      <point x="192" y="197" type="curve" smooth="yes"/>
      <point x="192" y="204"/>
      <point x="192" y="209"/>
      <point x="193" y="217" type="curve"/>
      <point x="218" y="217" type="line" smooth="yes"/>
      <point x="430" y="217"/>
      <point x="532" y="292"/>
      <point x="532" y="407" type="curve" smooth="yes"/>
      <point x="532" y="494"/>
      <point x="471" y="556"/>
      <point x="349" y="556" type="curve" smooth="yes"/>
      <point x="150" y="556"/>
      <point x="44" y="384"/>
      <point x="44" y="201" type="curve" smooth="yes"/>
      <point x="44" y="59"/>
      <point x="132" y="-10"/>
    </contour>
    <contour>
      <point x="231" y="316" type="curve" smooth="yes"/>
      <point x="209" y="316" type="line"/>
      <point x="226" y="395"/>
      <point x="285" y="450"/>
      <point x="340" y="450" type="curve" smooth="yes"/>
      <point x="372" y="450"/>
      <point x="391" y="435"/>
      <point x="391" y="404" type="curve" smooth="yes"/>
      <point x="391" y="357"/>
      <point x="344" y="316"/>
    </contour>
  </outline>
</glyph>
<glyph name="e.serif" format="2">
  <advance width="535"/>
  <unicode hex="0065"/>
  <anchor x="231" y="0" name="bottom"/>
  <anchor x="365" y="536" name="top"/>
  <anchor x="572" y="536" name="topright"/>
  <outline>
    <contour>
      <point x="263" y="-10" type="curve" smooth="yes"/>
      <point x="400" y="-10"/>
      <point x="461" y="56"/>
      <point x="461" y="104" type="curve" smooth="yes"/>
      <point x="461" y="121"/>
      <point x="456" y="137"/>
      <point x="448" y="147" type="curve"/>
      <point x="420" y="107"/>
      <point x="367" y="66"/>
      <point x="302" y="66" type="curve" smooth="yes"/>
      <point x="229" y="66"/>
      <point x="193" y="110"/>
      <point x="193" y="187" type="curve" smooth="yes"/>
      <point x="193" y="198"/>
      <point x="193" y="212"/>
      <point x="195" y="225" type="curve"/>
      <point x="232" y="225" type="line" smooth="yes"/>
      <point x="404" y="225"/>
      <point x="530" y="320"/>
      <point x="530" y="428" type="curve" smooth="yes"/>
      <point x="530" y="502"/>
      <point x="474" y="546"/>
      <point x="379" y="546" type="curve" smooth="yes"/>
      <point x="158" y="546"/>
      <point x="40" y="346"/>
      <point x="40" y="197" type="curve" smooth="yes"/>
      <point x="40" y="57"/>
      <point x="141" y="-10"/>
    </contour>
    <contour>
      <point x="211" y="282" type="curve" smooth="yes"/>
      <point x="202" y="282" type="line"/>
      <point x="218" y="378"/>
      <point x="272" y="486"/>
      <point x="337" y="486" type="curve" smooth="yes"/>
      <point x="368" y="486"/>
      <point x="386" y="462"/>
      <point x="386" y="421" type="curve" smooth="yes"/>
      <point x="386" y="337"/>
      <point x="310" y="282"/>
    </contour>
  </outline>
</glyph>
<glyph name="g.serif" format="2">
  <advance width="580"/>
  <unicode hex="0067"/>
  <anchor x="182" y="-240" name="bottom"/>
  <anchor x="347" y="536" name="top"/>
  <anchor x="617" y="536" name="topright"/>
  <outline>
    <contour>
      <point x="170" y="-240" type="curve" smooth="yes"/>
      <point x="368" y="-240"/>
      <point x="481" y="-159"/>
      <point x="481" y="-38" type="curve" smooth="yes"/>
      <point x="481" y="47"/>
      <point x="424" y="89"/>
      <point x="326" y="98" type="curve" smooth="yes"/>
      <point x="214" y="109" type="line" smooth="yes"/>
      <point x="183" y="112"/>
      <point x="160" y="117"/>
      <point x="160" y="139" type="curve" smooth="yes"/>
      <point x="160" y="160"/>
      <point x="184" y="178"/>
      <point x="215" y="192" type="curve"/>
      <point x="226" y="190"/>
      <point x="254" y="189"/>
      <point x="266" y="189" type="curve" smooth="yes"/>
      <point x="433" y="189"/>
      <point x="507" y="316"/>
      <point x="507" y="403" type="curve" smooth="yes"/>
      <point x="507" y="433"/>
      <point x="496" y="464"/>
      <point x="482" y="483" type="curve"/>
      <point x="495" y="494"/>
      <point x="510" y="501"/>
      <point x="528" y="501" type="curve" smooth="yes"/>
      <point x="551" y="501"/>
      <point x="563" y="485"/>
      <point x="563" y="458" type="curve"/>
      <point x="612" y="458"/>
      <point x="627" y="496"/>
      <point x="627" y="529" type="curve" smooth="yes"/>
      <point x="627" y="560"/>
      <point x="609" y="582"/>
      <point x="568" y="582" type="curve" smooth="yes"/>
      <point x="519" y="582"/>
      <point x="482" y="552"/>
      <point x="452" y="514" type="curve"/>
      <point x="423" y="536"/>
      <point x="383" y="546"/>
      <point x="339" y="546" type="curve" smooth="yes"/>
      <point x="170" y="546"/>
      <point x="89" y="422"/>
      <point x="89" y="329" type="curve" smooth="yes"/>
      <point x="89" y="272"/>
      <point x="115" y="230"/>
      <point x="159" y="209" type="curve"/>
      <point x="84" y="168"/>
      <point x="51" y="139"/>
      <point x="51" y="97" type="curve" smooth="yes"/>
      <point x="51" y="62"/>
      <point x="76" y="29"/>
      <point x="102" y="15" type="curve"/>
      <point x="20" y="1"/>
      <point x="-58" y="-42"/>
      <point x="-58" y="-113" type="curve" smooth="yes"/>
      <point x="-58" y="-190"/>
      <point x="8" y="-240"/>
    </contour>
    <contour>
      <point x="185" y="-180" type="curve" smooth="yes"/>
      <point x="87" y="-180"/>
      <point x="61" y="-147"/>
      <point x="61" y="-106" type="curve" smooth="yes"/>
      <point x="61" y="-60"/>
      <point x="110" y="-22"/>
      <point x="168" y="-14" type="curve"/>
      <point x="257" y="-22" type="line" smooth="yes"/>
      <point x="326" y="-28"/>
      <point x="352" y="-47"/>
      <point x="352" y="-85" type="curve" smooth="yes"/>
      <point x="352" y="-135"/>
      <point x="302" y="-180"/>
    </contour>
    <contour>
      <point x="269" y="250" type="curve" smooth="yes"/>
      <point x="235" y="250"/>
      <point x="215" y="270"/>
      <point x="215" y="319" type="curve" smooth="yes"/>
      <point x="215" y="380"/>
      <point x="251" y="484"/>
      <point x="320" y="484" type="curve" smooth="yes"/>
      <point x="355" y="484"/>
      <point x="374" y="463"/>
      <point x="374" y="416" type="curve" smooth="yes"/>
      <point x="374" y="358"/>
      <point x="340" y="250"/>
    </contour>
  </outline>
</glyph>
<glyph name="h.serif" format="2">
  <advance width="656"/>
  <unicode hex="0068"/>
  <anchor x="271" y="0" name="bottom"/>
  <anchor x="385" y="268" name="center"/>
  <anchor x="433" y="760" name="top"/>
  <anchor x="741" y="760" name="topright"/>
  <outline>
    <contour>
      <point x="487" y="-10" type="curve" smooth="yes"/>
      <point x="560" y="-10"/>
      <point x="608" y="25"/>
      <point x="640" y="59" type="curve"/>
      <point x="616" y="93" type="line"/>
      <point x="593" y="78"/>
      <point x="578" y="70"/>
      <point x="557" y="70" type="curve" smooth="yes"/>
      <point x="535" y="70"/>
      <point x="522" y="86"/>
      <point x="522" y="115" type="curve" smooth="yes"/>
      <point x="522" y="143"/>
      <point x="528" y="175"/>
      <point x="536" y="211" type="curve" smooth="yes"/>
      <point x="559" y="318" type="line" smooth="yes"/>
      <point x="566" y="353"/>
      <point x="577" y="397"/>
      <point x="577" y="431" type="curve" smooth="yes"/>
      <point x="577" y="492"/>
      <point x="548" y="546"/>
      <point x="463" y="546" type="curve" smooth="yes"/>
      <point x="374" y="546"/>
      <point x="319" y="509"/>
      <point x="268" y="429" type="curve"/>
      <point x="262" y="429" type="line"/>
      <point x="270" y="460"/>
      <point x="283" y="511"/>
      <point x="290" y="540" type="curve" smooth="yes"/>
      <point x="337" y="760" type="line"/>
      <point x="95" y="760" type="line"/>
      <point x="86" y="707" type="line"/>
      <point x="107" y="707" type="line" smooth="yes"/>
      <point x="145" y="707"/>
      <point x="160" y="701"/>
      <point x="160" y="665" type="curve" smooth="yes"/>
      <point x="160" y="660"/>
      <point x="157" y="639"/>
      <point x="153" y="622" type="curve" smooth="yes"/>
      <point x="21" y="0" type="line"/>
      <point x="171" y="0" type="line"/>
      <point x="223" y="232" type="line" smooth="yes"/>
      <point x="240" y="310"/>
      <point x="309" y="460"/>
      <point x="377" y="460" type="curve" smooth="yes"/>
      <point x="412" y="460"/>
      <point x="419" y="428"/>
      <point x="419" y="403" type="curve" smooth="yes"/>
      <point x="419" y="370"/>
      <point x="407" y="317"/>
      <point x="401" y="291" type="curve" smooth="yes"/>
      <point x="384" y="212" type="line" smooth="yes"/>
      <point x="373" y="161"/>
      <point x="368" y="121"/>
      <point x="368" y="93" type="curve" smooth="yes"/>
      <point x="368" y="29"/>
      <point x="411" y="-10"/>
    </contour>
  </outline>
</glyph>
<glyph name="i" format="2">
  <advance width="297"/>
  <unicode hex="0069"/>
  <anchor x="91" y="0" name="bottom"/>
  <anchor x="252" y="760" name="top"/>
  <anchor x="380" y="760" name="topright"/>
  <outline>
    <contour>
      <point x="18" y="0" type="line"/>
      <point x="165" y="0" type="line"/>
      <point x="281" y="546" type="line"/>
      <point x="134" y="546" type="line"/>
    </contour>
    <contour>
      <point x="231" y="614" type="curve" smooth="yes"/>
      <point x="291" y="614"/>
      <point x="319" y="649"/>
      <point x="319" y="701" type="curve" smooth="yes"/>
      <point x="319" y="745"/>
      <point x="285" y="760"/>
      <point x="246" y="760" type="curve" smooth="yes"/>
      <point x="190" y="760"/>
      <point x="157" y="730"/>
      <point x="157" y="674" type="curve" smooth="yes"/>
      <point x="157" y="630"/>
      <point x="189" y="614"/>
    </contour>
  </outline>
</glyph>
<glyph name="i.serif" format="2">
  <advance width="354"/>
  <unicode hex="0069"/>
  <anchor x="120" y="0" name="bottom"/>
  <anchor x="284" y="770" name="top"/>
  <anchor x="441" y="770" name="topright"/>
  <outline>
    <contour>
      <point x="185" y="-10" type="curve" smooth="yes"/>
      <point x="258" y="-10"/>
      <point x="306" y="25"/>
      <point x="338" y="59" type="curve"/>
      <point x="314" y="93" type="line"/>
      <point x="291" y="78"/>
      <point x="276" y="70"/>
      <point x="255" y="70" type="curve" smooth="yes"/>
      <point x="233" y="70"/>
      <point x="220" y="86"/>
      <point x="220" y="115" type="curve" smooth="yes"/>
      <point x="220" y="143"/>
      <point x="226" y="175"/>
      <point x="234" y="211" type="curve" smooth="yes"/>
      <point x="303" y="536" type="line"/>
      <point x="67" y="536" type="line"/>
      <point x="57" y="483" type="line"/>
      <point x="75" y="483" type="line" smooth="yes"/>
      <point x="113" y="483"/>
      <point x="128" y="477"/>
      <point x="128" y="441" type="curve" smooth="yes"/>
      <point x="128" y="436"/>
      <point x="125" y="415"/>
      <point x="121" y="398" type="curve" smooth="yes"/>
      <point x="82" y="212" type="line" smooth="yes"/>
      <point x="71" y="161"/>
      <point x="66" y="121"/>
      <point x="66" y="93" type="curve" smooth="yes"/>
      <point x="66" y="29"/>
      <point x="109" y="-10"/>
    </contour>
    <contour>
      <point x="234" y="626" type="curve" smooth="yes"/>
      <point x="282" y="626"/>
      <point x="329" y="652"/>
      <point x="329" y="707" type="curve" smooth="yes"/>
      <point x="329" y="752"/>
      <point x="292" y="770"/>
      <point x="249" y="770" type="curve" smooth="yes"/>
      <point x="199" y="770"/>
      <point x="156" y="746"/>
      <point x="156" y="688" type="curve" smooth="yes"/>
      <point x="156" y="646"/>
      <point x="190" y="626"/>
    </contour>
  </outline>
</glyph>
<glyph name="j.serif" format="2">
  <advance width="338"/>
  <unicode hex="006A"/>
  <anchor x="-41" y="-240" name="bottom"/>
  <anchor x="276" y="770" name="top"/>
  <anchor x="425" y="770" name="topright"/>
  <outline>
    <contour>
      <point x="-41" y="-240" type="curve" smooth="yes"/>
      <point x="60" y="-240"/>
      <point x="151" y="-186"/>
      <point x="187" y="-8" type="curve" smooth="yes"/>
      <point x="303" y="536" type="line"/>
      <point x="67" y="536" type="line"/>
      <point x="57" y="483" type="line"/>
      <point x="75" y="483" type="line" smooth="yes"/>
      <point x="113" y="483"/>
      <point x="128" y="477"/>
      <point x="128" y="441" type="curve" smooth="yes"/>
      <point x="128" y="436"/>
      <point x="125" y="415"/>
      <point x="121" y="398" type="curve" smooth="yes"/>
      <point x="35" y="-8" type="line" smooth="yes"/>
      <point x="7" y="-141"/>
      <point x="-21" y="-183"/>
      <point x="-83" y="-183" type="curve" smooth="yes"/>
      <point x="-97" y="-183"/>
      <point x="-118" y="-179"/>
      <point x="-128" y="-176" type="curve"/>
      <point x="-140" y="-228" type="line"/>
      <point x="-112" y="-235"/>
      <point x="-83" y="-240"/>
    </contour>
    <contour>
      <point x="234" y="626" type="curve" smooth="yes"/>
      <point x="282" y="626"/>
      <point x="329" y="652"/>
      <point x="329" y="707" type="curve" smooth="yes"/>
      <point x="329" y="752"/>
      <point x="292" y="770"/>
      <point x="249" y="770" type="curve" smooth="yes"/>
      <point x="199" y="770"/>
      <point x="156" y="746"/>
      <point x="156" y="688" type="curve" smooth="yes"/>
      <point x="156" y="646"/>
      <point x="190" y="626"/>
    </contour>
  </outline>
</glyph>
<glyph name="k" format="2">
  <advance width="568"/>
  <unicode hex="006B"/>
  <anchor x="247" y="0" name="bottom"/>
  <anchor x="251" y="760" name="top"/>
  <anchor x="581" y="860" name="topright"/>
  <outline>
    <contour>
      <point x="18" y="0" type="line"/>
      <point x="165" y="0" type="line"/>
      <point x="201" y="170" type="line"/>
      <point x="260" y="205" type="line"/>
      <point x="349" y="0" type="line"/>
      <point x="513" y="0" type="line"/>
      <point x="374" y="300" type="line"/>
      <point x="617" y="546" type="line"/>
      <point x="449" y="546" type="line"/>
      <point x="228" y="314" type="line"/>
      <point x="224" y="314" type="line"/>
      <point x="230" y="336"/>
      <point x="247" y="388"/>
      <point x="254" y="421" type="curve" smooth="yes"/>
      <point x="326" y="760" type="line"/>
      <point x="179" y="760" type="line"/>
    </contour>
  </outline>
</glyph>
<glyph name="k.serif" format="2">
  <advance width="597"/>
  <unicode hex="006B"/>
  <anchor x="242" y="0" name="bottom"/>
  <anchor x="404" y="760" name="top"/>
  <anchor x="562" y="860" name="topright"/>
  <outline>
    <contour>
      <point x="507" y="0" type="curve" smooth="yes"/>
      <point x="558" y="0" type="line"/>
      <point x="569" y="53" type="line"/>
      <point x="540" y="53"/>
      <point x="504" y="71"/>
      <point x="461" y="164" type="curve" smooth="yes"/>
      <point x="371" y="360" type="line"/>
      <point x="334" y="279" type="line"/>
      <point x="466" y="401" type="line" smooth="yes"/>
      <point x="530" y="460"/>
      <point x="579" y="486"/>
      <point x="625" y="486" type="curve"/>
      <point x="635" y="536" type="line"/>
      <point x="383" y="536" type="line"/>
      <point x="373" y="486" type="line"/>
      <point x="403" y="486"/>
      <point x="420" y="478"/>
      <point x="420" y="464" type="curve" smooth="yes"/>
      <point x="420" y="454"/>
      <point x="414" y="440"/>
      <point x="382" y="411" type="curve" smooth="yes"/>
      <point x="226" y="270" type="line"/>
      <point x="250" y="359"/>
      <point x="261" y="410"/>
      <point x="284" y="516" type="curve" smooth="yes"/>
      <point x="337" y="760" type="line"/>
      <point x="95" y="760" type="line"/>
      <point x="86" y="707" type="line"/>
      <point x="107" y="707" type="line" smooth="yes"/>
      <point x="145" y="707"/>
      <point x="160" y="701"/>
      <point x="160" y="665" type="curve" smooth="yes"/>
      <point x="160" y="660"/>
      <point x="157" y="639"/>
      <point x="153" y="622" type="curve" smooth="yes"/>
      <point x="21" y="0" type="line"/>
      <point x="171" y="0" type="line"/>
      <point x="214" y="199" type="line"/>
      <point x="328" y="273" type="line"/>
      <point x="258" y="258" type="line"/>
      <point x="327" y="94" type="line" smooth="yes"/>
      <point x="355" y="27"/>
      <point x="409" y="0"/>
    </contour>
  </outline>
</glyph>
<glyph name="l" format="2">
  <advance width="297"/>
  <unicode hex="006C"/>
  <anchor x="91" y="0" name="bottom"/>
  <anchor x="207" y="273" name="center"/>
  <anchor x="254" y="760" name="top"/>
  <anchor x="343" y="760" name="topright"/>
  <outline>
    <contour>
      <point x="18" y="0" type="line"/>
      <point x="165" y="0" type="line"/>
      <point x="326" y="760" type="line"/>
      <point x="179" y="760" type="line"/>
    </contour>
  </outline>
</glyph>
<glyph name="l.serif" format="2">
  <advance width="354"/>
  <unicode hex="006C"/>
  <anchor x="120" y="0" name="bottom"/>
  <anchor x="234" y="268" name="center"/>
  <anchor x="282" y="760" name="top"/>
  <anchor x="439" y="760" name="topright"/>
  <outline>
    <contour>
      <point x="169" y="-10" type="curve" smooth="yes"/>
      <point x="242" y="-10"/>
      <point x="290" y="25"/>
      <point x="322" y="59" type="curve"/>
      <point x="298" y="93" type="line"/>
      <point x="275" y="78"/>
      <point x="260" y="70"/>
      <point x="239" y="70" type="curve" smooth="yes"/>
      <point x="217" y="70"/>
      <point x="204" y="86"/>
      <point x="204" y="115" type="curve" smooth="yes"/>
      <point x="204" y="143"/>
      <point x="210" y="175"/>
      <point x="218" y="211" type="curve" smooth="yes"/>
      <point x="337" y="760" type="line"/>
      <point x="95" y="760" type="line"/>
      <point x="86" y="707" type="line"/>
      <point x="107" y="707" type="line" smooth="yes"/>
      <point x="145" y="707"/>
      <point x="160" y="701"/>
      <point x="160" y="665" type="curve" smooth="yes"/>
      <point x="160" y="660"/>
      <point x="157" y="639"/>
      <point x="153" y="622" type="curve" smooth="yes"/>
      <point x="66" y="212" type="line" smooth="yes"/>
      <point x="55" y="161"/>
      <point x="50" y="121"/>
      <point x="50" y="93" type="curve" smooth="yes"/>
      <point x="50" y="29"/>
      <point x="93" y="-10"/>
    </contour>
  </outline>
</glyph>
<glyph name="o.serif" format="2">
  <advance width="618"/>
  <unicode hex="006F"/>
  <anchor x="252" y="0" name="bottom"/>
  <anchor x="366" y="268" name="center"/>
  <anchor x="366" y="536" name="top"/>
  <anchor x="655" y="536" name="topright"/>
  <outline>
    <contour>
      <point x="252" y="-10" type="curve" smooth="yes"/>
      <point x="478" y="-10"/>
      <point x="577" y="192"/>
      <point x="577" y="336" type="curve" smooth="yes"/>
      <point x="577" y="485"/>
      <point x="483" y="546"/>
      <point x="368" y="546" type="curve" smooth="yes"/>
      <point x="144" y="546"/>
      <point x="40" y="350"/>
      <point x="40" y="200" type="curve" smooth="yes"/>
      <point x="40" y="59"/>
      <point x="127" y="-10"/>
    </contour>
    <contour>
      <point x="270" y="62" type="curve" smooth="yes"/>
      <point x="222" y="62"/>
      <point x="193" y="94"/>
      <point x="193" y="176" type="curve" smooth="yes"/>
      <point x="193" y="288"/>
      <point x="247" y="479"/>
      <point x="349" y="479" type="curve" smooth="yes"/>
      <point x="396" y="479"/>
      <point x="425" y="447"/>
      <point x="425" y="368" type="curve" smooth="yes"/>
      <point x="425" y="262"/>
      <point x="377" y="62"/>
    </contour>
  </outline>
</glyph>
<glyph name="p.serif" format="2">
  <advance width="623"/>
  <unicode hex="0070"/>
  <anchor x="94" y="-240" name="bottom"/>
  <anchor x="369" y="536" name="top"/>
  <anchor x="660" y="536" name="topright"/>
  <outline>
    <contour>
      <point x="106" y="398" type="curve"/>
      <point x="-30" y="-240" type="line"/>
      <point x="224" y="-240" type="line"/>
      <point x="233" y="-187" type="line"/>
      <point x="195" y="-187" type="line" smooth="yes"/>
      <point x="157" y="-187"/>
      <point x="142" y="-181"/>
      <point x="142" y="-145" type="curve" smooth="yes"/>
      <point x="142" y="-140"/>
      <point x="145" y="-119"/>
      <point x="149" y="-102" type="curve" smooth="yes"/>
      <point x="163" y="-35" type="line" smooth="yes"/>
      <point x="167" y="-19"/>
      <point x="170" y="2"/>
      <point x="171" y="13" type="curve"/>
      <point x="197" y="-1"/>
      <point x="233" y="-10"/>
      <point x="273" y="-10" type="curve" smooth="yes"/>
      <point x="481" y="-10"/>
      <point x="583" y="221"/>
      <point x="583" y="365" type="curve" smooth="yes"/>
      <point x="583" y="482"/>
      <point x="525" y="546"/>
      <point x="437" y="546" type="curve" smooth="yes"/>
      <point x="338" y="546"/>
      <point x="293" y="487"/>
      <point x="247" y="403" type="curve"/>
      <point x="240" y="403" type="line"/>
      <point x="266" y="536" type="line"/>
      <point x="51" y="536" type="line"/>
      <point x="42" y="483" type="line"/>
      <point x="60" y="483" type="line" smooth="yes"/>
      <point x="98" y="483"/>
      <point x="113" y="477"/>
      <point x="113" y="441" type="curve" smooth="yes"/>
      <point x="113" y="436"/>
      <point x="110" y="415"/>
    </contour>
    <contour>
      <point x="262" y="54" type="curve" smooth="yes"/>
      <point x="231" y="54"/>
      <point x="203" y="70"/>
      <point x="191" y="82" type="curve"/>
      <point x="229" y="261" type="line"/>
      <point x="245" y="341"/>
      <point x="311" y="466"/>
      <point x="378" y="466" type="curve" smooth="yes"/>
      <point x="420" y="466"/>
      <point x="432" y="412"/>
      <point x="432" y="358" type="curve"/>
      <point x="432" y="245"/>
      <point x="370" y="54"/>
    </contour>
  </outline>
</glyph>
<glyph name="q.serif" format="2">
  <advance width="631"/>
  <unicode hex="0071"/>
  <anchor x="208" y="-240" name="bottom"/>
  <anchor x="373" y="536" name="top"/>
  <anchor x="668" y="536" name="topright"/>
  <outline>
    <contour>
      <point x="344" y="-40" type="curve" smooth="yes"/>
      <point x="304" y="-240" type="line"/>
      <point x="541" y="-240" type="line"/>
      <point x="550" y="-187" type="line"/>
      <point x="512" y="-187" type="line" smooth="yes"/>
      <point x="474" y="-187"/>
      <point x="459" y="-177"/>
      <point x="459" y="-153" type="curve" smooth="yes"/>
      <point x="459" y="-140"/>
      <point x="462" y="-119"/>
      <point x="466" y="-102" type="curve" smooth="yes"/>
      <point x="603" y="546" type="line"/>
      <point x="553" y="546" type="line"/>
      <point x="494" y="513" type="line"/>
      <point x="461" y="529"/>
      <point x="406" y="546"/>
      <point x="347" y="546" type="curve" smooth="yes"/>
      <point x="156" y="546"/>
      <point x="40" y="329"/>
      <point x="40" y="173" type="curve" smooth="yes"/>
      <point x="40" y="53"/>
      <point x="98" y="-10"/>
      <point x="182" y="-10" type="curve" smooth="yes"/>
      <point x="285" y="-10"/>
      <point x="330" y="48"/>
      <point x="376" y="135" type="curve"/>
      <point x="382" y="135" type="line"/>
      <point x="376" y="107"/>
      <point x="352" y="1"/>
    </contour>
    <contour>
      <point x="246" y="70" type="curve" smooth="yes"/>
      <point x="215" y="70"/>
      <point x="192" y="99"/>
      <point x="192" y="176" type="curve" smooth="yes"/>
      <point x="192" y="277"/>
      <point x="249" y="482"/>
      <point x="367" y="482" type="curve" smooth="yes"/>
      <point x="399" y="482"/>
      <point x="423" y="469"/>
      <point x="432" y="454" type="curve"/>
      <point x="396" y="289" type="line" smooth="yes"/>
      <point x="376" y="187"/>
      <point x="306" y="70"/>
    </contour>
  </outline>
</glyph>
<glyph name="s.serif" format="2">
  <advance width="514"/>
  <unicode hex="0073"/>
  <anchor x="200" y="0" name="bottom"/>
  <anchor x="314" y="536" name="top"/>
  <anchor x="551" y="536" name="topright"/>
  <outline>
    <contour>
      <point x="206" y="-10" type="curve" smooth="yes"/>
      <point x="366" y="-10"/>
      <point x="449" y="56"/>
      <point x="449" y="164" type="curve" smooth="yes"/>
      <point x="449" y="238"/>
      <point x="410" y="284"/>
      <point x="324" y="323" type="curve" smooth="yes"/>
      <point x="246" y="358"/>
      <point x="211" y="376"/>
      <point x="211" y="420" type="curve" smooth="yes"/>
      <point x="211" y="459"/>
      <point x="243" y="490"/>
      <point x="295" y="490" type="curve" smooth="yes"/>
      <point x="352" y="490"/>
      <point x="372" y="429"/>
      <point x="372" y="376" type="curve"/>
      <point x="443" y="376"/>
      <point x="487" y="399"/>
      <point x="487" y="452" type="curve" smooth="yes"/>
      <point x="487" y="501"/>
      <point x="439" y="546"/>
      <point x="304" y="546" type="curve" smooth="yes"/>
      <point x="164" y="546"/>
      <point x="78" y="485"/>
      <point x="78" y="387" type="curve" smooth="yes"/>
      <point x="78" y="309"/>
      <point x="128" y="265"/>
      <point x="206" y="228" type="curve" smooth="yes"/>
      <point x="284" y="191"/>
      <point x="319" y="171"/>
      <point x="319" y="125" type="curve" smooth="yes"/>
      <point x="319" y="77"/>
      <point x="278" y="50"/>
      <point x="223" y="50" type="curve" smooth="yes"/>
      <point x="151" y="50"/>
      <point x="124" y="114"/>
      <point x="124" y="185" type="curve"/>
      <point x="71" y="185"/>
      <point x="17" y="162"/>
      <point x="17" y="100" type="curve" smooth="yes"/>
      <point x="17" y="31"/>
      <point x="92" y="-10"/>
    </contour>
  </outline>
</glyph>
<glyph name="t.serif" format="2">
  <advance width="417"/>
  <unicode hex="0074"/>
  <anchor x="152" y="0" name="bottom"/>
  <anchor x="206" y="268" name="center"/>
  <anchor x="292" y="659" name="top"/>
  <anchor x="374" y="980" name="topright"/>
  <outline>
    <contour>
      <point x="197" y="-10" type="curve" smooth="yes"/>
      <point x="274" y="-10"/>
      <point x="327" y="22"/>
      <point x="371" y="60" type="curve"/>
      <point x="348" y="98" type="line"/>
      <point x="326" y="84"/>
      <point x="301" y="72"/>
      <point x="270" y="72" type="curve" smooth="yes"/>
      <point x="240" y="72"/>
      <point x="220" y="89"/>
      <point x="220" y="122" type="curve" smooth="yes"/>
      <point x="220" y="141"/>
      <point x="223" y="165"/>
      <point x="230" y="194" type="curve" smooth="yes"/>
      <point x="290" y="468" type="line"/>
      <point x="412" y="468" type="line"/>
      <point x="426" y="536" type="line"/>
      <point x="305" y="536" type="line"/>
      <point x="331" y="659" type="line"/>
      <point x="273" y="659" type="line"/>
      <point x="210" y="556"/>
      <point x="128" y="519"/>
      <point x="71" y="519" type="curve"/>
      <point x="60" y="468" type="line"/>
      <point x="137" y="468" type="line"/>
      <point x="77" y="191" type="line" smooth="yes"/>
      <point x="72" y="166"/>
      <point x="67" y="131"/>
      <point x="67" y="107" type="curve" smooth="yes"/>
      <point x="67" y="28"/>
      <point x="124" y="-10"/>
    </contour>
  </outline>
</glyph>
<glyph name="v.serif" format="2">
  <advance width="586"/>
  <unicode hex="0076"/>
  <anchor x="236" y="0" name="bottom"/>
  <anchor x="350" y="536" name="top"/>
  <anchor x="623" y="536" name="topright"/>
  <outline>
    <contour>
      <point x="95" y="430" type="curve" smooth="yes"/>
      <point x="166" y="-9" type="line"/>
      <point x="298" y="1" type="line"/>
      <point x="389" y="92"/>
      <point x="554" y="295"/>
      <point x="554" y="452" type="curve" smooth="yes"/>
      <point x="554" y="518"/>
      <point x="521" y="545"/>
      <point x="479" y="545" type="curve" smooth="yes"/>
      <point x="428" y="545"/>
      <point x="396" y="510"/>
      <point x="396" y="455" type="curve"/>
      <point x="433" y="455"/>
      <point x="462" y="435"/>
      <point x="462" y="390" type="curve" smooth="yes"/>
      <point x="462" y="308"/>
      <point x="380" y="178"/>
      <point x="289" y="85" type="curve"/>
      <point x="286" y="85" type="line"/>
      <point x="283" y="118"/>
      <point x="280" y="173"/>
      <point x="270" y="240" type="curve" smooth="yes"/>
      <point x="224" y="536" type="line"/>
      <point x="28" y="536" type="line"/>
      <point x="16" y="483" type="line"/>
      <point x="26" y="483" type="line" smooth="yes"/>
      <point x="65" y="483"/>
      <point x="88" y="472"/>
    </contour>
  </outline>
</glyph>
<glyph name="w.serif" format="2">
  <advance width="875"/>
  <unicode hex="0077"/>
  <anchor x="381" y="0" name="bottom"/>
  <anchor x="495" y="536" name="top"/>
  <anchor x="912" y="536" name="topright"/>
  <outline>
    <contour>
      <point x="468" y="-10" type="curve"/>
      <point x="590" y="1" type="line"/>
      <point x="724" y="147"/>
      <point x="852" y="323"/>
      <point x="852" y="461" type="curve" smooth="yes"/>
      <point x="852" y="515"/>
      <point x="826" y="546"/>
      <point x="782" y="546" type="curve" smooth="yes"/>
      <point x="745" y="546"/>
      <point x="712" y="526"/>
      <point x="708" y="475" type="curve"/>
      <point x="733" y="469"/>
      <point x="758" y="447"/>
      <point x="758" y="407" type="curve" smooth="yes"/>
      <point x="758" y="341"/>
      <point x="726" y="254"/>
      <point x="609" y="110" type="curve"/>
      <point x="602" y="110" type="line"/>
      <point x="602" y="178"/>
      <point x="590" y="431"/>
      <point x="579" y="531" type="curve"/>
      <point x="457" y="527" type="line"/>
      <point x="400" y="380"/>
      <point x="331" y="230"/>
      <point x="265" y="125" type="curve"/>
      <point x="258" y="125" type="line"/>
      <point x="258" y="283"/>
      <point x="254" y="399"/>
      <point x="246" y="536" type="curve"/>
      <point x="53" y="536" type="line"/>
      <point x="37" y="483" type="line"/>
      <point x="43" y="483" type="line" smooth="yes"/>
      <point x="82" y="483"/>
      <point x="111" y="471"/>
      <point x="112" y="410" type="curve" smooth="yes"/>
      <point x="122" y="-6" type="line"/>
      <point x="253" y="3" type="line"/>
      <point x="341" y="134"/>
      <point x="407" y="271"/>
      <point x="459" y="394" type="curve"/>
      <point x="464" y="311"/>
      <point x="468" y="113"/>
    </contour>
  </outline>
</glyph>
<glyph name="x" format="2">
  <advance width="531"/>
  <unicode hex="0078"/>
  <anchor x="208" y="0" name="bottom"/>
  <anchor x="317" y="546" name="top"/>
  <anchor x="569" y="546" name="topright"/>
  <outline>
    <contour>
      <point x="-49" y="0" type="line"/>
      <point x="122" y="0" type="line"/>
      <point x="251" y="167" type="line"/>
      <point x="312" y="0" type="line"/>
      <point x="471" y="0" type="line"/>
      <point x="352" y="272" type="line"/>
      <point x="580" y="546" type="line"/>
      <point x="407" y="546" type="line"/>
      <point x="288" y="383" type="line"/>
      <point x="232" y="546" type="line"/>
      <point x="75" y="546" type="line"/>
      <point x="185" y="280" type="line"/>
    </contour>
  </outline>
</glyph>
<glyph name="y.serif" format="2">
  <advance width="586"/>
  <unicode hex="0079"/>
  <anchor x="55" y="-240" name="bottom"/>
  <anchor x="310" y="536" name="top"/>
  <anchor x="593" y="536" name="topright"/>
  <outline>
    <contour>
      <point x="-64" y="-240" type="curve" smooth="yes"/>
      <point x="141" y="-240"/>
      <point x="220" y="-136"/>
      <point x="365" y="67" type="curve" smooth="yes"/>
      <point x="482" y="230"/>
      <point x="554" y="357"/>
      <point x="554" y="461" type="curve" smooth="yes"/>
      <point x="554" y="514"/>
      <point x="526" y="546"/>
      <point x="472" y="546" type="curve" smooth="yes"/>
      <point x="427" y="546"/>
      <point x="392" y="512"/>
      <point x="392" y="460" type="curve"/>
      <point x="431" y="460"/>
      <point x="454" y="436"/>
      <point x="454" y="391" type="curve" smooth="yes"/>
      <point x="454" y="315"/>
      <point x="388" y="202"/>
      <point x="309" y="95" type="curve"/>
      <point x="306" y="95" type="line"/>
      <point x="303" y="128"/>
      <point x="286" y="225"/>
      <point x="273" y="277" type="curve" smooth="yes"/>
      <point x="207" y="536" type="line"/>
      <point x="11" y="536" type="line"/>
      <point x="-1" y="483" type="line"/>
      <point x="9" y="483" type="line" smooth="yes"/>
      <point x="48" y="483"/>
      <point x="67" y="470"/>
      <point x="78" y="430" type="curve" smooth="yes"/>
      <point x="203" y="-26" type="line"/>
      <point x="132" y="-110"/>
      <point x="54" y="-179"/>
      <point x="-68" y="-179" type="curve" smooth="yes"/>
      <point x="-109" y="-179"/>
      <point x="-137" y="-171"/>
      <point x="-153" y="-166" type="curve"/>
      <point x="-168" y="-222" type="line"/>
      <point x="-140" y="-233"/>
      <point x="-102" y="-240"/>
    </contour>
  </outline>
</glyph>
<glyph name="z" format="2">
  <advance width="455"/>
  <unicode hex="007A"/>
  <anchor x="178" y="0" name="bottom"/>
  <anchor x="286" y="546" name="top"/>
  <anchor x="493" y="546" name="topright"/>
  <outline>
    <contour>
      <point x="-23" y="0" type="line"/>
      <point x="365" y="0" type="line"/>
      <point x="389" y="114" type="line"/>
      <point x="175" y="114" type="line"/>
      <point x="451" y="448" type="line"/>
      <point x="472" y="546" type="line"/>
      <point x="106" y="546" type="line"/>
      <point x="81" y="432" type="line"/>
      <point x="275" y="432" type="line"/>
      <point x="-6" y="88" type="line"/>
    </contour>
  </outline>
</glyph>
<glyph name="z.serif" format="2">
  <advance width="558"/>
  <unicode hex="007A"/>
  <anchor x="222" y="0" name="bottom"/>
  <anchor x="336" y="536" name="top"/>
  <anchor x="595" y="536" name="topright"/>
  <outline>
    <contour>
      <point x="0" y="0" type="line"/>
      <point x="460" y="0" type="line"/>
      <point x="503" y="181" type="line"/>
      <point x="445" y="181" type="line"/>
      <point x="435" y="158" type="line" smooth="yes"/>
      <point x="417" y="115"/>
      <point x="395" y="68"/>
      <point x="349" y="68" type="curve" smooth="yes"/>
      <point x="187" y="68" type="line"/>
      <point x="522" y="484" type="line"/>
      <point x="533" y="536" type="line"/>
      <point x="104" y="536" type="line"/>
      <point x="60" y="374" type="line"/>
      <point x="121" y="374" type="line"/>
      <point x="123" y="378" type="line" smooth="yes"/>
      <point x="148" y="431"/>
      <point x="165" y="468"/>
      <point x="218" y="468" type="curve" smooth="yes"/>
      <point x="345" y="468" type="line"/>
      <point x="11" y="51" type="line"/>
    </contour>
  </outline>
</glyph>
<glyph name="braceleft" format="2">
  <advance width="355"/>
  <unicode hex="007B"/>
  <outline>
    <contour>
      <point x="231" y="-158" type="curve" smooth="yes"/>
      <point x="257" y="-158" type="line"/>
      <point x="257" y="-48" type="line"/>
      <point x="219" y="-48"/>
      <point x="196" y="-37"/>
      <point x="196" y="-2" type="curve" smooth="yes"/>
      <point x="196" y="5"/>
      <point x="197" y="13"/>
      <point x="199" y="23" type="curve" smooth="yes"/>
      <point x="217" y="110" type="line"/>
      <point x="221" y="131"/>
      <point x="224" y="148"/>
      <point x="224" y="165" type="curve" smooth="yes"/>
      <point x="224" y="216"/>
      <point x="197" y="254"/>
      <point x="142" y="271" type="curve"/>
      <point x="142" y="275" type="line"/>
      <point x="214" y="284"/>
      <point x="261" y="318"/>
      <point x="277" y="390" type="curve" smooth="yes"/>
      <point x="309" y="535" type="line"/>
      <point x="321" y="591"/>
      <point x="351" y="603"/>
      <point x="400" y="604" type="curve"/>
      <point x="424" y="714" type="line"/>
      <point x="383" y="714" type="line"/>
      <point x="257" y="714"/>
      <point x="209" y="663"/>
      <point x="187" y="563" type="curve" smooth="yes"/>
      <point x="157" y="424" type="line"/>
      <point x="143" y="361"/>
      <point x="97" y="336"/>
      <point x="18" y="336" type="curve"/>
      <point x="-4" y="224" type="line"/>
      <point x="63" y="224"/>
      <point x="98" y="201"/>
      <point x="98" y="156" type="curve" smooth="yes"/>
      <point x="98" y="144"/>
      <point x="94" y="129"/>
      <point x="91" y="114" type="curve" smooth="yes"/>
      <point x="72" y="24" type="line"/>
      <point x="68" y="5"/>
      <point x="65" y="-15"/>
      <point x="65" y="-37" type="curve" smooth="yes"/>
      <point x="65" y="-108"/>
      <point x="111" y="-158"/>
    </contour>
  </outline>
</glyph>
<glyph name="braceright" format="2">
  <advance width="355"/>
  <unicode hex="007D"/>
  <outline>
    <contour>
      <point x="-49" y="-48" type="curve"/>
      <point x="-49" y="-158" type="line"/>
      <point x="-27" y="-158" type="line" smooth="yes"/>
      <point x="99" y="-158"/>
      <point x="147" y="-107"/>
      <point x="169" y="-7" type="curve" smooth="yes"/>
      <point x="199" y="132" type="line" smooth="yes"/>
      <point x="213" y="195"/>
      <point x="259" y="220"/>
      <point x="338" y="220" type="curve"/>
      <point x="360" y="332" type="line"/>
      <point x="293" y="332"/>
      <point x="258" y="355"/>
      <point x="258" y="400" type="curve" smooth="yes"/>
      <point x="258" y="412"/>
      <point x="262" y="427"/>
      <point x="265" y="442" type="curve" smooth="yes"/>
      <point x="284" y="532" type="line" smooth="yes"/>
      <point x="288" y="551"/>
      <point x="291" y="571"/>
      <point x="291" y="593" type="curve" smooth="yes"/>
      <point x="291" y="664"/>
      <point x="245" y="714"/>
      <point x="125" y="714" type="curve" smooth="yes"/>
      <point x="109" y="714" type="line"/>
      <point x="89" y="604" type="line"/>
      <point x="136" y="604"/>
      <point x="160" y="593"/>
      <point x="160" y="558" type="curve" smooth="yes"/>
      <point x="160" y="551"/>
      <point x="159" y="543"/>
      <point x="157" y="533" type="curve" smooth="yes"/>
      <point x="139" y="446" type="line" smooth="yes"/>
      <point x="135" y="425"/>
      <point x="132" y="408"/>
      <point x="132" y="391" type="curve" smooth="yes"/>
      <point x="132" y="340"/>
      <point x="159" y="302"/>
      <point x="214" y="285" type="curve"/>
      <point x="214" y="281" type="line"/>
      <point x="142" y="272"/>
      <point x="95" y="238"/>
      <point x="79" y="166" type="curve" smooth="yes"/>
      <point x="47" y="21" type="line" smooth="yes"/>
      <point x="35" y="-35"/>
      <point x="0" y="-47"/>
    </contour>
  </outline>
</glyph>
<glyph name="asciitilde" format="2">
  <advance width="572"/>
  <unicode hex="007E"/>
  <outline>
    <contour>
      <point x="278" y="301" type="curve" smooth="yes"/>
      <point x="341" y="275"/>
      <point x="374" y="270"/>
      <point x="413" y="270" type="curve" smooth="yes"/>
      <point x="464" y="270"/>
      <point x="505" y="288"/>
      <point x="538" y="323" type="curve"/>
      <point x="538" y="436" type="line"/>
      <point x="505" y="403"/>
      <point x="462" y="377"/>
      <point x="424" y="377" type="curve" smooth="yes"/>
      <point x="395" y="377"/>
      <point x="362" y="383"/>
      <point x="313" y="404" type="curve" smooth="yes"/>
      <point x="250" y="430"/>
      <point x="217" y="435"/>
      <point x="178" y="435" type="curve" smooth="yes"/>
      <point x="127" y="435"/>
      <point x="86" y="417"/>
      <point x="53" y="382" type="curve"/>
      <point x="53" y="269" type="line"/>
      <point x="86" y="302"/>
      <point x="129" y="328"/>
      <point x="167" y="328" type="curve" smooth="yes"/>
      <point x="197" y="328"/>
      <point x="229" y="322"/>
    </contour>
  </outline>
</glyph>
<glyph name="exclamdown" format="2">
  <advance width="286"/>
  <unicode hex="00A1"/>
  <outline>
    <contour>
      <point x="-36" y="-181" type="line"/>
      <point x="130" y="-181" type="line"/>
      <point x="207" y="296" type="line"/>
      <point x="89" y="296" type="line"/>
    </contour>
    <contour>
      <point x="168" y="380" type="curve" smooth="yes"/>
      <point x="241" y="380"/>
      <point x="268" y="429"/>
      <point x="268" y="477" type="curve" smooth="yes"/>
      <point x="268" y="512"/>
      <point x="248" y="546"/>
      <point x="192" y="546" type="curve" smooth="yes"/>
      <point x="133" y="546"/>
      <point x="95" y="506"/>
      <point x="95" y="451" type="curve" smooth="yes"/>
      <point x="95" y="406"/>
      <point x="124" y="380"/>
    </contour>
  </outline>
</glyph>
<glyph name="exclamdown.serif" format="2">
  <advance width="395"/>
  <unicode hex="00A1"/>
  <outline>
    <contour>
      <point x="12" y="-179" type="line"/>
      <point x="186" y="-179" type="line"/>
      <point x="243" y="307" type="line"/>
      <point x="185" y="307" type="line"/>
    </contour>
    <contour>
      <point x="232" y="381" type="curve" smooth="yes"/>
      <point x="285" y="381"/>
      <point x="319" y="417"/>
      <point x="319" y="471" type="curve" smooth="yes"/>
      <point x="319" y="520"/>
      <point x="286" y="543"/>
      <point x="238" y="543" type="curve" smooth="yes"/>
      <point x="196" y="543"/>
      <point x="151" y="520"/>
      <point x="151" y="453" type="curve"/>
      <point x="151" y="404"/>
      <point x="186" y="381"/>
    </contour>
  </outline>
</glyph>
<glyph name="cent" format="2">
  <advance width="551"/>
  <unicode hex="00A2"/>
  <outline>
    <contour>
      <point x="213" y="93" type="curve"/>
      <point x="189" y="-10" type="line"/>
      <point x="281" y="-10" type="line"/>
      <point x="301" y="84" type="line"/>
      <point x="360" y="87"/>
      <point x="405" y="101"/>
      <point x="447" y="123" type="curve"/>
      <point x="447" y="243" type="line"/>
      <point x="402" y="220"/>
      <point x="362" y="203"/>
      <point x="313" y="203" type="curve" smooth="yes"/>
      <point x="260" y="203"/>
      <point x="229" y="235"/>
      <point x="229" y="297" type="curve" smooth="yes"/>
      <point x="229" y="412"/>
      <point x="282" y="531"/>
      <point x="375" y="531" type="curve" smooth="yes"/>
      <point x="418" y="531"/>
      <point x="449" y="518"/>
      <point x="484" y="503" type="curve"/>
      <point x="529" y="615" type="line"/>
      <point x="496" y="631"/>
      <point x="461" y="642"/>
      <point x="419" y="647" type="curve"/>
      <point x="436" y="724" type="line"/>
      <point x="344" y="724" type="line"/>
      <point x="328" y="647" type="line"/>
      <point x="169" y="624"/>
      <point x="80" y="466"/>
      <point x="80" y="285" type="curve" smooth="yes"/>
      <point x="80" y="172"/>
      <point x="135" y="114"/>
    </contour>
  </outline>
</glyph>
<glyph name="cent.serif" format="2">
  <advance width="559"/>
  <unicode hex="00A2"/>
  <outline>
    <contour>
      <point x="253" y="85" type="curve"/>
      <point x="235" y="0" type="line"/>
      <point x="297" y="0" type="line"/>
      <point x="314" y="82" type="line"/>
      <point x="446" y="86"/>
      <point x="505" y="146"/>
      <point x="505" y="196" type="curve" smooth="yes"/>
      <point x="505" y="216"/>
      <point x="497" y="232"/>
      <point x="489" y="240" type="curve"/>
      <point x="458" y="198"/>
      <point x="416" y="158"/>
      <point x="330" y="157" type="curve"/>
      <point x="416" y="564" type="line"/>
      <point x="441" y="541"/>
      <point x="453" y="499"/>
      <point x="453" y="451" type="curve"/>
      <point x="541" y="451"/>
      <point x="575" y="494"/>
      <point x="575" y="535" type="curve" smooth="yes"/>
      <point x="575" y="588"/>
      <point x="532" y="634"/>
      <point x="432" y="640" type="curve"/>
      <point x="448" y="714" type="line"/>
      <point x="386" y="714" type="line"/>
      <point x="370" y="638" type="line"/>
      <point x="171" y="616"/>
      <point x="67" y="428"/>
      <point x="67" y="289" type="curve" smooth="yes"/>
      <point x="67" y="167"/>
      <point x="147" y="100"/>
    </contour>
    <contour>
      <point x="357" y="579" type="curve"/>
      <point x="272" y="174" type="line"/>
      <point x="238" y="194"/>
      <point x="220" y="233"/>
      <point x="220" y="287" type="curve" smooth="yes"/>
      <point x="220" y="384"/>
      <point x="272" y="559"/>
    </contour>
  </outline>
</glyph>
<glyph name="sterling" format="2">
  <advance width="551"/>
  <unicode hex="00A3"/>
  <outline>
    <contour>
      <point x="18" y="120" type="curve"/>
      <point x="-6" y="0" type="line"/>
      <point x="479" y="0" type="line"/>
      <point x="506" y="127" type="line"/>
      <point x="186" y="127" type="line"/>
      <point x="237" y="150"/>
      <point x="274" y="193"/>
      <point x="288" y="259" type="curve" smooth="yes"/>
      <point x="297" y="300" type="line"/>
      <point x="443" y="300" type="line"/>
      <point x="465" y="407" type="line"/>
      <point x="319" y="407" type="line"/>
      <point x="342" y="519" type="line" smooth="yes"/>
      <point x="355" y="579"/>
      <point x="386" y="603"/>
      <point x="435" y="603" type="curve" smooth="yes"/>
      <point x="471" y="603"/>
      <point x="512" y="589"/>
      <point x="551" y="570" type="curve"/>
      <point x="606" y="683" type="line"/>
      <point x="560" y="706"/>
      <point x="497" y="725"/>
      <point x="426" y="725" type="curve" smooth="yes"/>
      <point x="298" y="725"/>
      <point x="220" y="654"/>
      <point x="194" y="528" type="curve" smooth="yes"/>
      <point x="170" y="407" type="line"/>
      <point x="76" y="407" type="line"/>
      <point x="54" y="300" type="line"/>
      <point x="148" y="300" type="line"/>
      <point x="137" y="249" type="line" smooth="yes"/>
      <point x="120" y="172"/>
      <point x="76" y="135"/>
    </contour>
  </outline>
</glyph>
<glyph name="sterling.serif" format="2">
  <advance width="559"/>
  <unicode hex="00A3"/>
  <outline>
    <contour>
      <point x="370" y="-10" type="curve" smooth="yes"/>
      <point x="437" y="-10"/>
      <point x="515" y="54"/>
      <point x="546" y="87" type="curve"/>
      <point x="514" y="137" type="line"/>
      <point x="479" y="109"/>
      <point x="458" y="98"/>
      <point x="412" y="98" type="curve" smooth="yes"/>
      <point x="371" y="98"/>
      <point x="300" y="134"/>
      <point x="240" y="134" type="curve" smooth="yes"/>
      <point x="215" y="134"/>
      <point x="187" y="129"/>
      <point x="152" y="116" type="curve"/>
      <point x="151" y="120" type="line"/>
      <point x="243" y="165"/>
      <point x="296" y="215"/>
      <point x="296" y="297" type="curve" smooth="yes"/>
      <point x="296" y="314"/>
      <point x="294" y="337"/>
      <point x="293" y="347" type="curve"/>
      <point x="452" y="346" type="line"/>
      <point x="466" y="407" type="line"/>
      <point x="288" y="407" type="line"/>
      <point x="285" y="430"/>
      <point x="279" y="463"/>
      <point x="279" y="502" type="curve" smooth="yes"/>
      <point x="279" y="604"/>
      <point x="316" y="663"/>
      <point x="383" y="663" type="curve" smooth="yes"/>
      <point x="428" y="663"/>
      <point x="456" y="617"/>
      <point x="456" y="527" type="curve"/>
      <point x="536" y="527"/>
      <point x="581" y="558"/>
      <point x="581" y="615" type="curve" smooth="yes"/>
      <point x="581" y="675"/>
      <point x="519" y="724"/>
      <point x="406" y="724" type="curve" smooth="yes"/>
      <point x="249" y="724"/>
      <point x="146" y="643"/>
      <point x="146" y="502" type="curve" smooth="yes"/>
      <point x="146" y="469"/>
      <point x="152" y="432"/>
      <point x="156" y="407" type="curve"/>
      <point x="62" y="407" type="line"/>
      <point x="48" y="346" type="line"/>
      <point x="163" y="346" type="line"/>
      <point x="166" y="325"/>
      <point x="169" y="304"/>
      <point x="169" y="282" type="curve" smooth="yes"/>
      <point x="169" y="180"/>
      <point x="94" y="113"/>
      <point x="28" y="73" type="curve" smooth="yes"/>
      <point x="-6" y="52" type="line"/>
      <point x="16" y="-1" type="line"/>
      <point x="32" y="6" type="line" smooth="yes"/>
      <point x="77" y="27"/>
      <point x="111" y="36"/>
      <point x="164" y="36" type="curve" smooth="yes"/>
      <point x="246" y="36"/>
      <point x="304" y="-10"/>
    </contour>
  </outline>
</glyph>
<glyph name="currency" format="2">
  <advance width="551"/>
  <unicode hex="00A4"/>
  <outline>
    <contour>
      <point x="382" y="185" type="curve"/>
      <point x="444" y="124" type="line"/>
      <point x="515" y="195" type="line"/>
      <point x="454" y="256" type="line"/>
      <point x="471" y="285"/>
      <point x="480" y="317"/>
      <point x="480" y="353" type="curve" smooth="yes"/>
      <point x="480" y="388"/>
      <point x="470" y="423"/>
      <point x="454" y="450" type="curve"/>
      <point x="517" y="513" type="line"/>
      <point x="444" y="583" type="line"/>
      <point x="382" y="520" type="line"/>
      <point x="352" y="538"/>
      <point x="321" y="547"/>
      <point x="286" y="547" type="curve" smooth="yes"/>
      <point x="253" y="547"/>
      <point x="218" y="537"/>
      <point x="190" y="521" type="curve"/>
      <point x="128" y="583" type="line"/>
      <point x="56" y="511" type="line"/>
      <point x="119" y="449" type="line"/>
      <point x="103" y="421"/>
      <point x="93" y="388"/>
      <point x="93" y="353" type="curve" smooth="yes"/>
      <point x="93" y="318"/>
      <point x="102" y="286"/>
      <point x="119" y="257" type="curve"/>
      <point x="57" y="196" type="line"/>
      <point x="128" y="125" type="line"/>
      <point x="189" y="185" type="line"/>
      <point x="217" y="168"/>
      <point x="250" y="160"/>
      <point x="286" y="160" type="curve" smooth="yes"/>
      <point x="321" y="160"/>
      <point x="354" y="170"/>
    </contour>
    <contour>
      <point x="286" y="261" type="curve" smooth="yes"/>
      <point x="235" y="261"/>
      <point x="194" y="302"/>
      <point x="194" y="353" type="curve" smooth="yes"/>
      <point x="194" y="405"/>
      <point x="235" y="446"/>
      <point x="286" y="446" type="curve" smooth="yes"/>
      <point x="338" y="446"/>
      <point x="380" y="405"/>
      <point x="380" y="353" type="curve" smooth="yes"/>
      <point x="380" y="302"/>
      <point x="338" y="261"/>
    </contour>
  </outline>
</glyph>
<glyph name="currency.serif" format="2">
  <advance width="559"/>
  <unicode hex="00A4"/>
  <outline>
    <contour>
      <point x="133" y="146" type="line"/>
      <point x="191" y="204" type="line"/>
      <point x="220" y="184"/>
      <point x="256" y="173"/>
      <point x="294" y="173" type="curve" smooth="yes"/>
      <point x="332" y="173"/>
      <point x="368" y="185"/>
      <point x="398" y="205" type="curve"/>
      <point x="457" y="146" type="line"/>
      <point x="507" y="196" type="line"/>
      <point x="448" y="255" type="line"/>
      <point x="467" y="284"/>
      <point x="478" y="318"/>
      <point x="478" y="356" type="curve" smooth="yes"/>
      <point x="478" y="394"/>
      <point x="466" y="429"/>
      <point x="446" y="458" type="curve"/>
      <point x="507" y="520" type="line"/>
      <point x="457" y="571" type="line"/>
      <point x="395" y="509" type="line"/>
      <point x="366" y="529"/>
      <point x="331" y="540"/>
      <point x="294" y="540" type="curve" smooth="yes"/>
      <point x="256" y="540"/>
      <point x="222" y="529"/>
      <point x="193" y="510" type="curve"/>
      <point x="133" y="570" type="line"/>
      <point x="83" y="520" type="line"/>
      <point x="143" y="460" type="line"/>
      <point x="122" y="431"/>
      <point x="111" y="394"/>
      <point x="111" y="356" type="curve"/>
      <point x="111" y="318"/>
      <point x="121" y="284"/>
      <point x="140" y="255" type="curve"/>
      <point x="82" y="197" type="line"/>
    </contour>
    <contour>
      <point x="294" y="240" type="curve"/>
      <point x="230" y="240"/>
      <point x="179" y="292"/>
      <point x="179" y="356" type="curve"/>
      <point x="179" y="422"/>
      <point x="230" y="473"/>
      <point x="294" y="473" type="curve" smooth="yes"/>
      <point x="360" y="473"/>
      <point x="409" y="422"/>
      <point x="409" y="356" type="curve" smooth="yes"/>
      <point x="409" y="292"/>
      <point x="360" y="240"/>
    </contour>
  </outline>
</glyph>
<glyph name="yen" format="2">
  <advance width="551"/>
  <unicode hex="00A5"/>
  <outline>
    <contour>
      <point x="143" y="0" type="line"/>
      <point x="285" y="0" type="line"/>
      <point x="308" y="108" type="line"/>
      <point x="431" y="108" type="line"/>
      <point x="449" y="195" type="line"/>
      <point x="326" y="195" type="line"/>
      <point x="340" y="262" type="line"/>
      <point x="463" y="262" type="line"/>
      <point x="482" y="349" type="line"/>
      <point x="383" y="349" type="line"/>
      <point x="630" y="714" type="line"/>
      <point x="478" y="714" type="line"/>
      <point x="297" y="426" type="line"/>
      <point x="241" y="714" type="line"/>
      <point x="96" y="714" type="line"/>
      <point x="190" y="349" type="line"/>
      <point x="94" y="349" type="line"/>
      <point x="75" y="262" type="line"/>
      <point x="198" y="262" type="line"/>
      <point x="184" y="195" type="line"/>
      <point x="61" y="195" type="line"/>
      <point x="43" y="108" type="line"/>
      <point x="166" y="108" type="line"/>
    </contour>
  </outline>
</glyph>
<glyph name="yen.serif" format="2">
  <advance width="559"/>
  <unicode hex="00A5"/>
  <outline>
    <contour>
      <point x="44" y="0" type="line"/>
      <point x="402" y="0" type="line"/>
      <point x="413" y="53" type="line"/>
      <point x="389" y="53" type="line" smooth="yes"/>
      <point x="347" y="53"/>
      <point x="317" y="58"/>
      <point x="317" y="87" type="curve" smooth="yes"/>
      <point x="317" y="92"/>
      <point x="319" y="103"/>
      <point x="322" y="117" type="curve" smooth="yes"/>
      <point x="333" y="165" type="line"/>
      <point x="473" y="165" type="line"/>
      <point x="485" y="224" type="line"/>
      <point x="345" y="224" type="line"/>
      <point x="358" y="282" type="line"/>
      <point x="498" y="282" type="line"/>
      <point x="510" y="341" type="line"/>
      <point x="382" y="341" type="line"/>
      <point x="538" y="583" type="line" smooth="yes"/>
      <point x="572" y="636"/>
      <point x="600" y="661"/>
      <point x="630" y="661" type="curve" smooth="yes"/>
      <point x="633" y="661" type="line"/>
      <point x="644" y="714" type="line"/>
      <point x="432" y="714" type="line"/>
      <point x="420" y="661" type="line"/>
      <point x="440" y="661" type="line" smooth="yes"/>
      <point x="462" y="661"/>
      <point x="479" y="652"/>
      <point x="479" y="634" type="curve" smooth="yes"/>
      <point x="479" y="612"/>
      <point x="463" y="584"/>
      <point x="449" y="560" type="curve" smooth="yes"/>
      <point x="372" y="430" type="line" smooth="yes"/>
      <point x="355" y="402"/>
      <point x="340" y="375"/>
      <point x="333" y="357" type="curve"/>
      <point x="333" y="384"/>
      <point x="326" y="426"/>
      <point x="318" y="468" type="curve" smooth="yes"/>
      <point x="300" y="563" type="line" smooth="yes"/>
      <point x="294" y="594"/>
      <point x="288" y="620"/>
      <point x="288" y="632" type="curve" smooth="yes"/>
      <point x="288" y="650"/>
      <point x="300" y="661"/>
      <point x="330" y="661" type="curve" smooth="yes"/>
      <point x="358" y="661" type="line"/>
      <point x="369" y="714" type="line"/>
      <point x="96" y="714" type="line"/>
      <point x="85" y="661" type="line"/>
      <point x="98" y="661" type="line" smooth="yes"/>
      <point x="137" y="661"/>
      <point x="143" y="648"/>
      <point x="152" y="608" type="curve" smooth="yes"/>
      <point x="213" y="341" type="line"/>
      <point x="81" y="341" type="line"/>
      <point x="69" y="282" type="line"/>
      <point x="209" y="282" type="line"/>
      <point x="196" y="224" type="line"/>
      <point x="56" y="224" type="line"/>
      <point x="44" y="165" type="line"/>
      <point x="184" y="165" type="line"/>
      <point x="173" y="114" type="line" smooth="yes"/>
      <point x="162" y="62"/>
      <point x="124" y="53"/>
      <point x="82" y="53" type="curve" smooth="yes"/>
      <point x="55" y="53" type="line"/>
    </contour>
  </outline>
</glyph>
<glyph name="section" format="2">
  <advance width="486"/>
  <unicode hex="00A7"/>
  <outline>
    <contour>
      <point x="174" y="-10" type="curve" smooth="yes"/>
      <point x="309" y="-10"/>
      <point x="404" y="50"/>
      <point x="404" y="159" type="curve" smooth="yes"/>
      <point x="404" y="197"/>
      <point x="385" y="231"/>
      <point x="360" y="254" type="curve"/>
      <point x="408" y="283"/>
      <point x="454" y="326"/>
      <point x="454" y="400" type="curve" smooth="yes"/>
      <point x="454" y="464"/>
      <point x="415" y="511"/>
      <point x="336" y="546" type="curve" smooth="yes"/>
      <point x="280" y="571"/>
      <point x="254" y="590"/>
      <point x="254" y="617" type="curve" smooth="yes"/>
      <point x="254" y="654"/>
      <point x="283" y="669"/>
      <point x="324" y="669" type="curve" smooth="yes"/>
      <point x="381" y="669"/>
      <point x="426" y="649"/>
      <point x="462" y="628" type="curve"/>
      <point x="502" y="722" type="line"/>
      <point x="451" y="748"/>
      <point x="399" y="765"/>
      <point x="334" y="765" type="curve" smooth="yes"/>
      <point x="212" y="765"/>
      <point x="124" y="710"/>
      <point x="124" y="610" type="curve" smooth="yes"/>
      <point x="124" y="573"/>
      <point x="145" y="538"/>
      <point x="172" y="516" type="curve"/>
      <point x="112" y="479"/>
      <point x="73" y="434"/>
      <point x="73" y="369" type="curve" smooth="yes"/>
      <point x="73" y="304"/>
      <point x="117" y="258"/>
      <point x="193" y="221" type="curve" smooth="yes"/>
      <point x="251" y="193"/>
      <point x="271" y="174"/>
      <point x="271" y="147" type="curve" smooth="yes"/>
      <point x="271" y="110"/>
      <point x="242" y="85"/>
      <point x="178" y="85" type="curve" smooth="yes"/>
      <point x="115" y="85"/>
      <point x="56" y="108"/>
      <point x="10" y="136" type="curve"/>
      <point x="10" y="27" type="line"/>
      <point x="49" y="5"/>
      <point x="102" y="-10"/>
    </contour>
    <contour>
      <point x="283" y="299" type="curve"/>
      <point x="216" y="329"/>
      <point x="192" y="354"/>
      <point x="192" y="387" type="curve" smooth="yes"/>
      <point x="192" y="421"/>
      <point x="214" y="452"/>
      <point x="247" y="468" type="curve"/>
      <point x="302" y="446"/>
      <point x="333" y="418"/>
      <point x="333" y="382" type="curve" smooth="yes"/>
      <point x="333" y="343"/>
      <point x="308" y="315"/>
    </contour>
  </outline>
</glyph>
<glyph name="section.serif" format="2">
  <advance width="544"/>
  <unicode hex="00A7"/>
  <outline>
    <contour>
      <point x="217" y="-115" type="curve" smooth="yes"/>
      <point x="350" y="-115"/>
      <point x="437" y="-23"/>
      <point x="437" y="90" type="curve" smooth="yes"/>
      <point x="437" y="125"/>
      <point x="426" y="154"/>
      <point x="414" y="173" type="curve"/>
      <point x="466" y="206"/>
      <point x="510" y="258"/>
      <point x="510" y="320" type="curve" smooth="yes"/>
      <point x="510" y="381"/>
      <point x="475" y="424"/>
      <point x="377" y="476" type="curve" smooth="yes"/>
      <point x="286" y="524"/>
      <point x="256" y="547"/>
      <point x="256" y="606" type="curve" smooth="yes"/>
      <point x="256" y="674"/>
      <point x="308" y="705"/>
      <point x="356" y="705" type="curve" smooth="yes"/>
      <point x="411" y="705"/>
      <point x="442" y="649"/>
      <point x="442" y="577" type="curve"/>
      <point x="501" y="577"/>
      <point x="541" y="594"/>
      <point x="541" y="652" type="curve" smooth="yes"/>
      <point x="541" y="711"/>
      <point x="486" y="760"/>
      <point x="365" y="760" type="curve" smooth="yes"/>
      <point x="249" y="760"/>
      <point x="150" y="694"/>
      <point x="150" y="579" type="curve" smooth="yes"/>
      <point x="150" y="539"/>
      <point x="162" y="508"/>
      <point x="174" y="489" type="curve"/>
      <point x="127" y="461"/>
      <point x="80" y="418"/>
      <point x="80" y="346" type="curve" smooth="yes"/>
      <point x="80" y="289"/>
      <point x="107" y="238"/>
      <point x="209" y="184" type="curve" smooth="yes"/>
      <point x="316" y="127"/>
      <point x="340" y="100"/>
      <point x="340" y="47" type="curve" smooth="yes"/>
      <point x="340" y="-12"/>
      <point x="297" y="-59"/>
      <point x="228" y="-59" type="curve" smooth="yes"/>
      <point x="158" y="-59"/>
      <point x="116" y="4"/>
      <point x="116" y="88" type="curve"/>
      <point x="78" y="88"/>
      <point x="22" y="73"/>
      <point x="22" y="5" type="curve" smooth="yes"/>
      <point x="22" y="-66"/>
      <point x="95" y="-115"/>
    </contour>
    <contour>
      <point x="379" y="214" type="curve"/>
      <point x="356" y="233"/>
      <point x="318" y="255"/>
      <point x="281" y="273" type="curve" smooth="yes"/>
      <point x="193" y="315"/>
      <point x="168" y="342"/>
      <point x="168" y="385" type="curve" smooth="yes"/>
      <point x="168" y="413"/>
      <point x="183" y="431"/>
      <point x="204" y="447" type="curve"/>
      <point x="234" y="423"/>
      <point x="269" y="403"/>
      <point x="312" y="383" type="curve" smooth="yes"/>
      <point x="393" y="345"/>
      <point x="413" y="311"/>
      <point x="413" y="281" type="curve" smooth="yes"/>
      <point x="413" y="254"/>
      <point x="400" y="231"/>
    </contour>
  </outline>
</glyph>
<glyph name="dieresis" format="2">
  <advance width="554"/>
  <unicode hex="00A8"/>
  <outline>
    <contour>
      <point x="452" y="621" type="curve" smooth="yes"/>
      <point x="502" y="621"/>
      <point x="525" y="652"/>
      <point x="525" y="699" type="curve" smooth="yes"/>
      <point x="525" y="739"/>
      <point x="497" y="752"/>
      <point x="464" y="752" type="curve" smooth="yes"/>
      <point x="417" y="752"/>
      <point x="390" y="725"/>
      <point x="390" y="675" type="curve" smooth="yes"/>
      <point x="390" y="635"/>
      <point x="416" y="621"/>
    </contour>
    <contour>
      <point x="265" y="621" type="curve" smooth="yes"/>
      <point x="315" y="621"/>
      <point x="338" y="652"/>
      <point x="338" y="699" type="curve" smooth="yes"/>
      <point x="338" y="739"/>
      <point x="310" y="752"/>
      <point x="277" y="752" type="curve" smooth="yes"/>
      <point x="230" y="752"/>
      <point x="203" y="725"/>
      <point x="203" y="675" type="curve" smooth="yes"/>
      <point x="203" y="635"/>
      <point x="229" y="621"/>
    </contour>
  </outline>
</glyph>
<glyph name="dieresis.serif" format="2">
  <advance width="577"/>
  <unicode hex="00A8"/>
  <outline>
    <contour>
      <point x="457" y="622" type="curve" smooth="yes"/>
      <point x="489" y="622"/>
      <point x="524" y="642"/>
      <point x="524" y="701" type="curve" smooth="yes"/>
      <point x="524" y="743"/>
      <point x="498" y="763"/>
      <point x="462" y="763" type="curve" smooth="yes"/>
      <point x="421" y="763"/>
      <point x="395" y="731"/>
      <point x="395" y="684" type="curve" smooth="yes"/>
      <point x="395" y="642"/>
      <point x="420" y="622"/>
    </contour>
    <contour>
      <point x="234" y="622" type="curve" smooth="yes"/>
      <point x="266" y="622"/>
      <point x="301" y="642"/>
      <point x="301" y="701" type="curve" smooth="yes"/>
      <point x="301" y="743"/>
      <point x="275" y="763"/>
      <point x="239" y="763" type="curve" smooth="yes"/>
      <point x="198" y="763"/>
      <point x="172" y="731"/>
      <point x="172" y="684" type="curve" smooth="yes"/>
      <point x="172" y="642"/>
      <point x="197" y="622"/>
    </contour>
  </outline>
</glyph>
<glyph name="ordfeminine" format="2">
  <advance width="377"/>
  <unicode hex="00AA"/>
  <anchor x="200" y="368" name="bottom"/>
  <anchor x="274" y="719" name="top"/>
  <outline>
    <contour>
      <point x="180" y="365" type="curve" smooth="yes"/>
      <point x="224" y="365"/>
      <point x="255" y="385"/>
      <point x="279" y="416" type="curve"/>
      <point x="283" y="416" type="line"/>
      <point x="279" y="371" type="line"/>
      <point x="351" y="371" type="line"/>
      <point x="428" y="714" type="line"/>
      <point x="353" y="714" type="line"/>
      <point x="334" y="670" type="line"/>
      <point x="330" y="670" type="line"/>
      <point x="311" y="702"/>
      <point x="285" y="720"/>
      <point x="243" y="720" type="curve" smooth="yes"/>
      <point x="122" y="720"/>
      <point x="74" y="583"/>
      <point x="74" y="496" type="curve" smooth="yes"/>
      <point x="74" y="399"/>
      <point x="125" y="365"/>
    </contour>
    <contour>
      <point x="216" y="439" type="curve" smooth="yes"/>
      <point x="187" y="439"/>
      <point x="174" y="458"/>
      <point x="174" y="493" type="curve" smooth="yes"/>
      <point x="174" y="563"/>
      <point x="207" y="645"/>
      <point x="259" y="645" type="curve" smooth="yes"/>
      <point x="289" y="645"/>
      <point x="302" y="623"/>
      <point x="302" y="593" type="curve" smooth="yes"/>
      <point x="302" y="543"/>
      <point x="275" y="439"/>
    </contour>
  </outline>
</glyph>
<glyph name="ordfeminine.serif" format="2">
  <advance width="431"/>
  <unicode hex="00AA"/>
  <anchor x="238" y="382" name="bottom"/>
  <anchor x="312" y="716" name="top"/>
  <outline>
    <contour>
      <point x="173" y="381" type="curve" smooth="yes"/>
      <point x="232" y="381"/>
      <point x="274" y="423"/>
      <point x="308" y="487" type="curve"/>
      <point x="312" y="487" type="line"/>
      <point x="310" y="474"/>
      <point x="307" y="450"/>
      <point x="307" y="434" type="curve" smooth="yes"/>
      <point x="307" y="399"/>
      <point x="333" y="381"/>
      <point x="377" y="381" type="curve" smooth="yes"/>
      <point x="422" y="381"/>
      <point x="462" y="409"/>
      <point x="479" y="427" type="curve"/>
      <point x="466" y="451" type="line"/>
      <point x="451" y="442"/>
      <point x="436" y="435"/>
      <point x="423" y="435" type="curve" smooth="yes"/>
      <point x="409" y="435"/>
      <point x="402" y="444"/>
      <point x="402" y="461" type="curve" smooth="yes"/>
      <point x="402" y="478"/>
      <point x="408" y="502"/>
      <point x="413" y="529" type="curve" smooth="yes"/>
      <point x="450" y="711" type="line"/>
      <point x="416" y="711" type="line"/>
      <point x="381" y="697" type="line"/>
      <point x="361" y="709"/>
      <point x="339" y="718"/>
      <point x="303" y="718" type="curve" smooth="yes"/>
      <point x="147" y="718"/>
      <point x="76" y="588"/>
      <point x="76" y="493" type="curve" smooth="yes"/>
      <point x="76" y="429"/>
      <point x="106" y="381"/>
    </contour>
    <contour>
      <point x="224" y="439" type="curve" smooth="yes"/>
      <point x="207" y="439"/>
      <point x="193" y="453"/>
      <point x="193" y="499" type="curve" smooth="yes"/>
      <point x="193" y="563"/>
      <point x="228" y="676"/>
      <point x="295" y="676" type="curve" smooth="yes"/>
      <point x="311" y="676"/>
      <point x="330" y="669"/>
      <point x="338" y="657" type="curve"/>
      <point x="314" y="562" type="line" smooth="yes"/>
      <point x="302" y="513"/>
      <point x="260" y="439"/>
    </contour>
  </outline>
</glyph>
<glyph name="guillemetleft" format="2">
  <advance width="562"/>
  <unicode hex="00AB"/>
  <outline>
    <contour>
      <point x="134" y="44" type="line"/>
      <point x="254" y="94" type="line"/>
      <point x="188" y="265" type="line"/>
      <point x="324" y="428" type="line"/>
      <point x="231" y="504" type="line"/>
      <point x="35" y="278" type="line"/>
      <point x="35" y="269" type="line"/>
    </contour>
    <contour>
      <point x="372" y="44" type="line"/>
      <point x="492" y="94" type="line"/>
      <point x="426" y="265" type="line"/>
      <point x="562" y="428" type="line"/>
      <point x="469" y="504" type="line"/>
      <point x="273" y="278" type="line"/>
      <point x="273" y="269" type="line"/>
    </contour>
  </outline>
</glyph>
<glyph name="guillemetleft.serif" format="2">
  <advance width="554"/>
  <unicode hex="00AB"/>
  <outline>
    <contour>
      <point x="376" y="70" type="line"/>
      <point x="446" y="70" type="line"/>
      <point x="388" y="270" type="line"/>
      <point x="531" y="470" type="line"/>
      <point x="461" y="470" type="line"/>
      <point x="271" y="303" type="line"/>
      <point x="260" y="251" type="line"/>
    </contour>
    <contour>
      <point x="175" y="70" type="line"/>
      <point x="245" y="70" type="line"/>
      <point x="187" y="270" type="line"/>
      <point x="330" y="470" type="line"/>
      <point x="260" y="470" type="line"/>
      <point x="70" y="303" type="line"/>
      <point x="59" y="251" type="line"/>
    </contour>
  </outline>
</glyph>
<glyph name="logicalnot" format="2">
  <advance width="572"/>
  <unicode hex="00AC"/>
  <outline>
    <contour>
      <point x="538" y="406" type="line"/>
      <point x="53" y="406" type="line"/>
      <point x="53" y="299" type="line"/>
      <point x="431" y="299" type="line"/>
      <point x="431" y="121" type="line"/>
      <point x="538" y="121" type="line"/>
    </contour>
  </outline>
</glyph>
<glyph name="logicalnot.serif" format="2">
  <advance width="559"/>
  <unicode hex="00AC"/>
  <outline>
    <contour>
      <point x="422" y="143" type="line"/>
      <point x="494" y="143" type="line"/>
      <point x="494" y="393" type="line"/>
      <point x="65" y="393" type="line"/>
      <point x="65" y="322" type="line"/>
      <point x="422" y="322" type="line"/>
    </contour>
  </outline>
</glyph>
<glyph name="registered.display" format="2">
  <advance width="788"/>
  <unicode hex="00AE"/>
  <outline>
    <contour>
      <point x="410" y="-10" type="curve" smooth="yes"/>
      <point x="604" y="-10"/>
      <point x="762" y="156"/>
      <point x="762" y="360" type="curve" smooth="yes"/>
      <point x="762" y="562"/>
      <point x="609" y="724"/>
      <point x="418" y="724" type="curve" smooth="yes"/>
      <point x="223" y="724"/>
      <point x="65" y="558"/>
      <point x="65" y="354" type="curve" smooth="yes"/>
      <point x="65" y="152"/>
      <point x="218" y="-10"/>
    </contour>
    <contour>
      <point x="410" y="43" type="curve" smooth="yes"/>
      <point x="250" y="43"/>
      <point x="120" y="183"/>
      <point x="120" y="354" type="curve" smooth="yes"/>
      <point x="120" y="528"/>
      <point x="254" y="671"/>
      <point x="417" y="671" type="curve" smooth="yes"/>
      <point x="578" y="671"/>
      <point x="708" y="531"/>
      <point x="708" y="360" type="curve" smooth="yes"/>
      <point x="708" y="186"/>
      <point x="574" y="43"/>
    </contour>
    <contour>
      <point x="291" y="142" type="line"/>
      <point x="366" y="142" type="line"/>
      <point x="366" y="312" type="line"/>
      <point x="408" y="312" type="line"/>
      <point x="495" y="142" type="line"/>
      <point x="580" y="142" type="line"/>
      <point x="479" y="329" type="line"/>
      <point x="519" y="345"/>
      <point x="564" y="382"/>
      <point x="564" y="448" type="curve" smooth="yes"/>
      <point x="564" y="531"/>
      <point x="513" y="572"/>
      <point x="407" y="572" type="curve" smooth="yes"/>
      <point x="291" y="572" type="line"/>
    </contour>
    <contour>
      <point x="400" y="372" type="curve" smooth="yes"/>
      <point x="366" y="372" type="line"/>
      <point x="366" y="510" type="line"/>
      <point x="402" y="510" type="line" smooth="yes"/>
      <point x="458" y="510"/>
      <point x="486" y="492"/>
      <point x="486" y="445" type="curve" smooth="yes"/>
      <point x="486" y="398"/>
      <point x="459" y="372"/>
    </contour>
  </outline>
</glyph>
<glyph name="registered.serif" format="2">
  <advance width="845"/>
  <unicode hex="00AE"/>
  <outline>
    <contour>
      <point x="232" y="141" type="line"/>
      <point x="435" y="141" type="line"/>
      <point x="435" y="175" type="line"/>
      <point x="421" y="175" type="line" smooth="yes"/>
      <point x="395" y="175"/>
      <point x="372" y="179"/>
      <point x="372" y="210" type="curve" smooth="yes"/>
      <point x="372" y="324" type="line"/>
      <point x="421" y="324" type="line"/>
      <point x="531" y="141" type="line"/>
      <point x="636" y="141" type="line"/>
      <point x="636" y="175" type="line"/>
      <point x="606" y="175"/>
      <point x="597" y="179"/>
      <point x="585" y="201" type="curve" smooth="yes"/>
      <point x="496" y="340" type="line"/>
      <point x="544" y="356"/>
      <point x="591" y="388"/>
      <point x="591" y="454" type="curve" smooth="yes"/>
      <point x="591" y="537"/>
      <point x="533" y="579"/>
      <point x="415" y="579" type="curve" smooth="yes"/>
      <point x="232" y="579" type="line"/>
      <point x="232" y="538" type="line"/>
      <point x="245" y="538" type="line" smooth="yes"/>
      <point x="271" y="538"/>
      <point x="294" y="534"/>
      <point x="294" y="503" type="curve" smooth="yes"/>
      <point x="294" y="210" type="line" smooth="yes"/>
      <point x="294" y="179"/>
      <point x="271" y="175"/>
      <point x="245" y="175" type="curve" smooth="yes"/>
      <point x="232" y="175" type="line"/>
    </contour>
    <contour>
      <point x="422" y="-10" type="curve" smooth="yes"/>
      <point x="636" y="-10"/>
      <point x="790" y="134"/>
      <point x="790" y="357" type="curve" smooth="yes"/>
      <point x="790" y="581"/>
      <point x="636" y="725"/>
      <point x="422" y="725" type="curve" smooth="yes"/>
      <point x="208" y="725"/>
      <point x="55" y="580"/>
      <point x="55" y="358" type="curve" smooth="yes"/>
      <point x="55" y="134"/>
      <point x="209" y="-10"/>
    </contour>
    <contour>
      <point x="414" y="368" type="curve" smooth="yes"/>
      <point x="372" y="368" type="line"/>
      <point x="372" y="532" type="line"/>
      <point x="411" y="532" type="line" smooth="yes"/>
      <point x="481" y="532"/>
      <point x="508" y="510"/>
      <point x="508" y="453" type="curve" smooth="yes"/>
      <point x="508" y="395"/>
      <point x="486" y="368"/>
    </contour>
    <contour>
      <point x="423" y="50" type="curve" smooth="yes"/>
      <point x="248" y="50"/>
      <point x="122" y="164"/>
      <point x="122" y="357" type="curve" smooth="yes"/>
      <point x="122" y="547"/>
      <point x="245" y="665"/>
      <point x="423" y="665" type="curve" smooth="yes"/>
      <point x="601" y="665"/>
      <point x="723" y="546"/>
      <point x="723" y="358" type="curve" smooth="yes"/>
      <point x="723" y="171"/>
      <point x="604" y="50"/>
    </contour>
  </outline>
</glyph>
<glyph name="degree.serif" format="2">
  <advance width="400"/>
  <unicode hex="00B0"/>
  <outline>
    <contour>
      <point x="279" y="423" type="curve" smooth="yes"/>
      <point x="371" y="423"/>
      <point x="436" y="485"/>
      <point x="436" y="574" type="curve" smooth="yes"/>
      <point x="436" y="663"/>
      <point x="371" y="726"/>
      <point x="279" y="726" type="curve" smooth="yes"/>
      <point x="187" y="726"/>
      <point x="123" y="663"/>
      <point x="123" y="574" type="curve" smooth="yes"/>
      <point x="123" y="485"/>
      <point x="187" y="423"/>
    </contour>
    <contour>
      <point x="280" y="491" type="curve" smooth="yes"/>
      <point x="229" y="491"/>
      <point x="199" y="524"/>
      <point x="199" y="575" type="curve" smooth="yes"/>
      <point x="199" y="626"/>
      <point x="230" y="658"/>
      <point x="280" y="658" type="curve" smooth="yes"/>
      <point x="329" y="658"/>
      <point x="360" y="626"/>
      <point x="360" y="575" type="curve" smooth="yes"/>
      <point x="360" y="524"/>
      <point x="330" y="491"/>
    </contour>
  </outline>
</glyph>
<glyph name="twosuperior" format="2">
  <advance width="379"/>
  <unicode hex="00B2"/>
  <outline>
    <contour>
      <point x="56" y="415" type="line"/>
      <point x="372" y="415" type="line"/>
      <point x="392" y="513" type="line"/>
      <point x="223" y="513" type="line"/>
      <point x="286" y="559" type="line" smooth="yes"/>
      <point x="375" y="624"/>
      <point x="423" y="661"/>
      <point x="423" y="744" type="curve" smooth="yes"/>
      <point x="423" y="807"/>
      <point x="372" y="853"/>
      <point x="291" y="853" type="curve" smooth="yes"/>
      <point x="220" y="853"/>
      <point x="169" y="833"/>
      <point x="121" y="796" type="curve"/>
      <point x="170" y="719" type="line"/>
      <point x="204" y="746"/>
      <point x="234" y="759"/>
      <point x="262" y="759" type="curve" smooth="yes"/>
      <point x="285" y="759"/>
      <point x="304" y="746"/>
      <point x="304" y="719" type="curve" smooth="yes"/>
      <point x="304" y="682"/>
      <point x="270" y="655"/>
      <point x="206" y="603" type="curve" smooth="yes"/>
      <point x="73" y="496" type="line"/>
    </contour>
  </outline>
</glyph>
<glyph name="threesuperior" format="2">
  <advance width="379"/>
  <unicode hex="00B3"/>
  <outline>
    <contour>
      <point x="202" y="407" type="curve" smooth="yes"/>
      <point x="298" y="407"/>
      <point x="393" y="449"/>
      <point x="393" y="547" type="curve" smooth="yes"/>
      <point x="393" y="589"/>
      <point x="372" y="620"/>
      <point x="318" y="632" type="curve"/>
      <point x="318" y="636" type="line"/>
      <point x="377" y="651"/>
      <point x="424" y="681"/>
      <point x="424" y="749" type="curve" smooth="yes"/>
      <point x="424" y="802"/>
      <point x="387" y="852"/>
      <point x="286" y="852" type="curve" smooth="yes"/>
      <point x="227" y="852"/>
      <point x="179" y="837"/>
      <point x="133" y="807" type="curve"/>
      <point x="173" y="734" type="line"/>
      <point x="204" y="754"/>
      <point x="235" y="766"/>
      <point x="265" y="766" type="curve" smooth="yes"/>
      <point x="294" y="766"/>
      <point x="312" y="753"/>
      <point x="312" y="727" type="curve" smooth="yes"/>
      <point x="312" y="690"/>
      <point x="278" y="672"/>
      <point x="224" y="672" type="curve" smooth="yes"/>
      <point x="180" y="672" type="line"/>
      <point x="163" y="594" type="line"/>
      <point x="225" y="594" type="line" smooth="yes"/>
      <point x="266" y="594"/>
      <point x="281" y="575"/>
      <point x="281" y="551" type="curve" smooth="yes"/>
      <point x="281" y="512"/>
      <point x="243" y="493"/>
      <point x="196" y="493" type="curve" smooth="yes"/>
      <point x="151" y="493"/>
      <point x="110" y="506"/>
      <point x="72" y="528" type="curve"/>
      <point x="72" y="434" type="line"/>
      <point x="104" y="418"/>
      <point x="153" y="407"/>
    </contour>
  </outline>
</glyph>
<glyph name="acute" format="2">
  <advance width="322"/>
  <unicode hex="00B4"/>
  <anchor x="181" y="546" name="_top"/>
  <outline>
    <contour>
      <point x="113" y="618" type="curve"/>
      <point x="113" y="606" type="line"/>
      <point x="215" y="606" type="line"/>
      <point x="266" y="642"/>
      <point x="356" y="722"/>
      <point x="385" y="758" type="curve"/>
      <point x="385" y="766" type="line"/>
      <point x="221" y="766" type="line"/>
      <point x="190" y="719"/>
      <point x="146" y="655"/>
    </contour>
  </outline>
</glyph>
<glyph name="acute.serif" format="2">
  <advance width="325"/>
  <unicode hex="00B4"/>
  <outline>
    <contour>
      <point x="115" y="619" type="curve"/>
      <point x="112" y="606" type="line"/>
      <point x="180" y="606" type="line"/>
      <point x="251" y="642"/>
      <point x="356" y="721"/>
      <point x="388" y="756" type="curve"/>
      <point x="391" y="766" type="line"/>
      <point x="234" y="766" type="line"/>
      <point x="203" y="721"/>
      <point x="152" y="657"/>
    </contour>
  </outline>
</glyph>
<glyph name="micro" format="2">
  <advance width="610"/>
  <unicode hex="00B5"/>
  <outline>
    <contour>
      <point x="-33" y="-240" type="line"/>
      <point x="115" y="-240" type="line"/>
      <point x="148" y="-84" type="line" smooth="yes"/>
      <point x="155" y="-51"/>
      <point x="160" y="-8"/>
      <point x="164" y="23" type="curve"/>
      <point x="169" y="23" type="line"/>
      <point x="182" y="5"/>
      <point x="208" y="-10"/>
      <point x="241" y="-10" type="curve" smooth="yes"/>
      <point x="293" y="-10"/>
      <point x="335" y="25"/>
      <point x="371" y="86" type="curve"/>
      <point x="376" y="86" type="line"/>
      <point x="367" y="0" type="line"/>
      <point x="477" y="0" type="line"/>
      <point x="593" y="546" type="line"/>
      <point x="446" y="546" type="line"/>
      <point x="398" y="317" type="line" smooth="yes"/>
      <point x="375" y="206"/>
      <point x="331" y="109"/>
      <point x="261" y="109" type="curve" smooth="yes"/>
      <point x="230" y="109"/>
      <point x="207" y="131"/>
      <point x="207" y="170" type="curve" smooth="yes"/>
      <point x="207" y="186"/>
      <point x="210" y="208"/>
      <point x="215" y="231" type="curve" smooth="yes"/>
      <point x="281" y="546" type="line"/>
      <point x="134" y="546" type="line"/>
    </contour>
  </outline>
</glyph>
<glyph name="micro.serif" format="2">
  <advance width="677"/>
  <unicode hex="00B5"/>
  <outline>
    <contour>
      <point x="63" y="-240" type="curve" smooth="yes"/>
      <point x="118" y="-240"/>
      <point x="173" y="-212"/>
      <point x="183" y="-153" type="curve"/>
      <point x="116" y="-146"/>
      <point x="102" y="-117"/>
      <point x="102" y="-72" type="curve" smooth="yes"/>
      <point x="102" y="-39"/>
      <point x="106" y="15"/>
      <point x="116" y="62" type="curve"/>
      <point x="140" y="19"/>
      <point x="181" y="-10"/>
      <point x="240" y="-10" type="curve" smooth="yes"/>
      <point x="306" y="-10"/>
      <point x="347" y="31"/>
      <point x="392" y="92" type="curve"/>
      <point x="397" y="92" type="line"/>
      <point x="397" y="39"/>
      <point x="420" y="-10"/>
      <point x="502" y="-10" type="curve" smooth="yes"/>
      <point x="581" y="-10"/>
      <point x="629" y="25"/>
      <point x="661" y="59" type="curve"/>
      <point x="637" y="93" type="line"/>
      <point x="614" y="78"/>
      <point x="599" y="70"/>
      <point x="578" y="70" type="curve" smooth="yes"/>
      <point x="556" y="70"/>
      <point x="543" y="86"/>
      <point x="543" y="115" type="curve" smooth="yes"/>
      <point x="543" y="140"/>
      <point x="549" y="175"/>
      <point x="557" y="211" type="curve" smooth="yes"/>
      <point x="626" y="536" type="line"/>
      <point x="474" y="536" type="line"/>
      <point x="415" y="260" type="line" smooth="yes"/>
      <point x="388" y="133"/>
      <point x="347" y="75"/>
      <point x="285" y="75" type="curve" smooth="yes"/>
      <point x="246" y="75"/>
      <point x="229" y="106"/>
      <point x="229" y="142" type="curve" smooth="yes"/>
      <point x="229" y="167"/>
      <point x="234" y="193"/>
      <point x="240" y="222" type="curve" smooth="yes"/>
      <point x="307" y="536" type="line"/>
      <point x="155" y="536" type="line"/>
      <point x="89" y="225" type="line" smooth="yes"/>
      <point x="47" y="25"/>
      <point x="-2" y="-88"/>
      <point x="-2" y="-168" type="curve" smooth="yes"/>
      <point x="-2" y="-222"/>
      <point x="25" y="-240"/>
    </contour>
  </outline>
</glyph>
<glyph name="paragraph" format="2">
  <advance width="655"/>
  <unicode hex="00B6"/>
  <outline>
    <contour>
      <point x="348" y="273" type="curve"/>
      <point x="348" y="-127" type="line"/>
      <point x="427" y="-127" type="line"/>
      <point x="427" y="662" type="line"/>
      <point x="508" y="662" type="line"/>
      <point x="508" y="-127" type="line"/>
      <point x="587" y="-127" type="line"/>
      <point x="587" y="760" type="line"/>
      <point x="292" y="760" type="line" smooth="yes"/>
      <point x="161" y="760"/>
      <point x="72" y="700"/>
      <point x="72" y="509" type="curve" smooth="yes"/>
      <point x="72" y="326"/>
      <point x="153" y="264"/>
      <point x="277" y="264" type="curve" smooth="yes"/>
      <point x="305" y="264"/>
      <point x="328" y="267"/>
    </contour>
  </outline>
</glyph>
<glyph name="paragraph.serif" format="2">
  <advance width="627"/>
  <unicode hex="00B6"/>
  <outline>
    <contour>
      <point x="193" y="-111" type="line"/>
      <point x="360" y="-111" type="line"/>
      <point x="360" y="698" type="line"/>
      <point x="444" y="698" type="line"/>
      <point x="444" y="-111" type="line"/>
      <point x="611" y="-111" type="line"/>
      <point x="611" y="-58" type="line"/>
      <point x="598" y="-58" type="line" smooth="yes"/>
      <point x="553" y="-58"/>
      <point x="516" y="-50"/>
      <point x="516" y="13" type="curve" smooth="yes"/>
      <point x="516" y="635" type="line" smooth="yes"/>
      <point x="516" y="698"/>
      <point x="553" y="707"/>
      <point x="598" y="707" type="curve" smooth="yes"/>
      <point x="611" y="707" type="line"/>
      <point x="611" y="760" type="line"/>
      <point x="219" y="760" type="line" smooth="yes"/>
      <point x="106" y="760"/>
      <point x="64" y="689"/>
      <point x="64" y="582" type="curve" smooth="yes"/>
      <point x="64" y="478"/>
      <point x="100" y="386"/>
      <point x="217" y="386" type="curve" smooth="yes"/>
      <point x="288" y="386" type="line"/>
      <point x="288" y="13" type="line" smooth="yes"/>
      <point x="288" y="-50"/>
      <point x="251" y="-58"/>
      <point x="206" y="-58" type="curve" smooth="yes"/>
      <point x="193" y="-58" type="line"/>
    </contour>
  </outline>
</glyph>
<glyph name="periodcentered.serif" format="2">
  <advance width="304"/>
  <unicode hex="00B7"/>
  <outline>
    <contour>
      <point x="166" y="274" type="curve" smooth="yes"/>
      <point x="208" y="274"/>
      <point x="253" y="297"/>
      <point x="253" y="364" type="curve" smooth="yes"/>
      <point x="253" y="413"/>
      <point x="218" y="436"/>
      <point x="172" y="436" type="curve" smooth="yes"/>
      <point x="119" y="436"/>
      <point x="85" y="400"/>
      <point x="85" y="346" type="curve" smooth="yes"/>
      <point x="85" y="297"/>
      <point x="118" y="274"/>
    </contour>
  </outline>
</glyph>
<glyph name="cedilla" format="2">
  <advance width="205"/>
  <unicode hex="00B8"/>
  <outline>
    <contour>
      <point x="-27" y="-240" type="curve" smooth="yes"/>
      <point x="82" y="-240"/>
      <point x="128" y="-189"/>
      <point x="128" y="-122" type="curve" smooth="yes"/>
      <point x="128" y="-73"/>
      <point x="97" y="-48"/>
      <point x="59" y="-35" type="curve"/>
      <point x="78" y="0" type="line"/>
      <point x="-12" y="0" type="line"/>
      <point x="-59" y="-75" type="line"/>
      <point x="-8" y="-81"/>
      <point x="10" y="-96"/>
      <point x="10" y="-118" type="curve" smooth="yes"/>
      <point x="10" y="-144"/>
      <point x="-7" y="-158"/>
      <point x="-40" y="-158" type="curve" smooth="yes"/>
      <point x="-63" y="-158"/>
      <point x="-87" y="-152"/>
      <point x="-101" y="-147" type="curve"/>
      <point x="-101" y="-229" type="line"/>
      <point x="-86" y="-234"/>
      <point x="-58" y="-240"/>
    </contour>
  </outline>
</glyph>
<glyph name="cedilla.serif" format="2">
  <advance width="333"/>
  <unicode hex="00B8"/>
  <outline>
    <contour>
      <point x="113" y="-240" type="curve" smooth="yes"/>
      <point x="191" y="-240"/>
      <point x="278" y="-203"/>
      <point x="278" y="-117" type="curve" smooth="yes"/>
      <point x="278" y="-74"/>
      <point x="242" y="-41"/>
      <point x="189" y="-34" type="curve"/>
      <point x="208" y="9" type="line"/>
      <point x="151" y="9" type="line"/>
      <point x="111" y="-79" type="line"/>
      <point x="148" y="-81"/>
      <point x="177" y="-99"/>
      <point x="177" y="-125" type="curve" smooth="yes"/>
      <point x="177" y="-161"/>
      <point x="144" y="-176"/>
      <point x="103" y="-176" type="curve" smooth="yes"/>
      <point x="85" y="-176"/>
      <point x="61" y="-173"/>
      <point x="38" y="-168" type="curve"/>
      <point x="25" y="-227" type="line"/>
      <point x="48" y="-235"/>
      <point x="79" y="-240"/>
    </contour>
  </outline>
</glyph>
<glyph name="onesuperior" format="2">
  <advance width="379"/>
  <unicode hex="00B9"/>
  <outline>
    <contour>
      <point x="217" y="609" type="curve" smooth="yes"/>
      <point x="176" y="415" type="line"/>
      <point x="296" y="415" type="line"/>
      <point x="387" y="843" type="line"/>
      <point x="286" y="843" type="line"/>
      <point x="91" y="722" type="line"/>
      <point x="141" y="641" type="line"/>
      <point x="205" y="681" type="line" smooth="yes"/>
      <point x="214" y="687"/>
      <point x="232" y="700"/>
      <point x="244" y="710" type="curve"/>
      <point x="237" y="687"/>
      <point x="226" y="650"/>
    </contour>
  </outline>
</glyph>
<glyph name="onesuperior.serif" format="2">
  <advance width="400"/>
  <unicode hex="00B9"/>
  <outline>
    <contour>
      <point x="84" y="387" type="line"/>
      <point x="366" y="387" type="line"/>
      <point x="375" y="431" type="line"/>
      <point x="334" y="431" type="line" smooth="yes"/>
      <point x="313" y="431"/>
      <point x="295" y="434"/>
      <point x="295" y="457" type="curve" smooth="yes"/>
      <point x="295" y="460"/>
      <point x="296" y="471"/>
      <point x="299" y="483" type="curve" smooth="yes"/>
      <point x="370" y="819" type="line"/>
      <point x="296" y="819" type="line"/>
      <point x="194" y="755"/>
      <point x="182" y="749"/>
      <point x="137" y="740" type="curve"/>
      <point x="137" y="713"/>
      <point x="147" y="691"/>
      <point x="166" y="691" type="curve" smooth="yes"/>
      <point x="190" y="691"/>
      <point x="218" y="716"/>
      <point x="256" y="753" type="curve"/>
      <point x="257" y="753" type="line"/>
      <point x="197" y="469" type="line" smooth="yes"/>
      <point x="190" y="435"/>
      <point x="169" y="431"/>
      <point x="144" y="431" type="curve" smooth="yes"/>
      <point x="93" y="431" type="line"/>
    </contour>
  </outline>
</glyph>
<glyph name="ordmasculine" format="2">
  <advance width="368"/>
  <unicode hex="00BA"/>
  <anchor x="203" y="366" name="bottom"/>
  <anchor x="282" y="728" name="top"/>
  <outline>
    <contour>
      <point x="215" y="365" type="curve" smooth="yes"/>
      <point x="358" y="365"/>
      <point x="399" y="495"/>
      <point x="399" y="581" type="curve" smooth="yes"/>
      <point x="399" y="661"/>
      <point x="362" y="720"/>
      <point x="269" y="720" type="curve" smooth="yes"/>
      <point x="146" y="720"/>
      <point x="83" y="621"/>
      <point x="83" y="505" type="curve" smooth="yes"/>
      <point x="83" y="417"/>
      <point x="128" y="365"/>
    </contour>
    <contour>
      <point x="224" y="445" type="curve" smooth="yes"/>
      <point x="199" y="445"/>
      <point x="185" y="462"/>
      <point x="185" y="499" type="curve" smooth="yes"/>
      <point x="185" y="558"/>
      <point x="211" y="640"/>
      <point x="259" y="640" type="curve" smooth="yes"/>
      <point x="283" y="640"/>
      <point x="296" y="623"/>
      <point x="296" y="588" type="curve" smooth="yes"/>
      <point x="296" y="525"/>
      <point x="272" y="445"/>
    </contour>
  </outline>
</glyph>
<glyph name="ordmasculine.serif" format="2">
  <advance width="407"/>
  <unicode hex="00BA"/>
  <anchor x="225" y="379" name="bottom"/>
  <anchor x="301" y="719" name="top"/>
  <outline>
    <contour>
      <point x="225" y="381" type="curve" smooth="yes"/>
      <point x="380" y="381"/>
      <point x="450" y="511"/>
      <point x="450" y="595" type="curve" smooth="yes"/>
      <point x="450" y="681"/>
      <point x="382" y="719"/>
      <point x="299" y="719" type="curve" smooth="yes"/>
      <point x="150" y="719"/>
      <point x="72" y="597"/>
      <point x="72" y="507" type="curve" smooth="yes"/>
      <point x="72" y="425"/>
      <point x="133" y="381"/>
    </contour>
    <contour>
      <point x="230" y="431" type="curve" smooth="yes"/>
      <point x="200" y="431"/>
      <point x="185" y="457"/>
      <point x="185" y="502" type="curve" smooth="yes"/>
      <point x="185" y="569"/>
      <point x="226" y="666"/>
      <point x="294" y="666" type="curve" smooth="yes"/>
      <point x="325" y="666"/>
      <point x="338" y="642"/>
      <point x="338" y="598" type="curve" smooth="yes"/>
      <point x="338" y="533"/>
      <point x="302" y="431"/>
    </contour>
  </outline>
</glyph>
<glyph name="guillemetright" format="2">
  <advance width="562"/>
  <unicode hex="00BB"/>
  <outline>
    <contour>
      <point x="331" y="44" type="line"/>
      <point x="527" y="270" type="line"/>
      <point x="527" y="279" type="line"/>
      <point x="428" y="504" type="line"/>
      <point x="308" y="454" type="line"/>
      <point x="374" y="283" type="line"/>
      <point x="238" y="120" type="line"/>
    </contour>
    <contour>
      <point x="93" y="44" type="line"/>
      <point x="289" y="270" type="line"/>
      <point x="289" y="279" type="line"/>
      <point x="190" y="504" type="line"/>
      <point x="70" y="454" type="line"/>
      <point x="136" y="283" type="line"/>
      <point x="0" y="120" type="line"/>
    </contour>
  </outline>
</glyph>
<glyph name="guillemetright.serif" format="2">
  <advance width="554"/>
  <unicode hex="00BB"/>
  <outline>
    <contour>
      <point x="223" y="70" type="line"/>
      <point x="293" y="70" type="line"/>
      <point x="482" y="238" type="line"/>
      <point x="493" y="290" type="line"/>
      <point x="378" y="470" type="line"/>
      <point x="308" y="470" type="line"/>
      <point x="367" y="270" type="line"/>
    </contour>
    <contour>
      <point x="22" y="70" type="line"/>
      <point x="92" y="70" type="line"/>
      <point x="281" y="238" type="line"/>
      <point x="292" y="290" type="line"/>
      <point x="177" y="470" type="line"/>
      <point x="107" y="470" type="line"/>
      <point x="166" y="270" type="line"/>
    </contour>
  </outline>
</glyph>
<glyph name="guillemotright" format="2">
  <advance width="544"/>
  <unicode hex="00BB"/>
  <outline>
    <contour>
      <point x="326" y="44" type="line"/>
      <point x="515" y="270" type="line"/>
      <point x="515" y="279" type="line"/>
      <point x="425" y="504" type="line"/>
      <point x="303" y="454" type="line"/>
      <point x="362" y="283" type="line"/>
      <point x="232" y="120" type="line"/>
    </contour>
    <contour>
      <point x="93" y="44" type="line"/>
      <point x="284" y="270" type="line"/>
      <point x="284" y="279" type="line"/>
      <point x="193" y="504" type="line"/>
      <point x="71" y="454" type="line"/>
      <point x="131" y="283" type="line"/>
      <point x="0" y="120" type="line"/>
    </contour>
  </outline>
</glyph>
<glyph name="questiondown.serif" format="2">
  <advance width="535"/>
  <unicode hex="00BF"/>
  <outline>
    <contour>
      <point x="218" y="-190" type="curve" smooth="yes"/>
      <point x="360" y="-190"/>
      <point x="449" y="-132"/>
      <point x="449" y="-60" type="curve" smooth="yes"/>
      <point x="449" y="-9"/>
      <point x="408" y="17"/>
      <point x="326" y="17" type="curve"/>
      <point x="317" y="-59"/>
      <point x="293" y="-129"/>
      <point x="230" y="-129" type="curve" smooth="yes"/>
      <point x="189" y="-129"/>
      <point x="158" y="-92"/>
      <point x="158" y="-26" type="curve" smooth="yes"/>
      <point x="158" y="83"/>
      <point x="235" y="139"/>
      <point x="353" y="182" type="curve"/>
      <point x="351" y="306" type="line"/>
      <point x="285" y="306" type="line"/>
      <point x="251" y="217" type="line"/>
      <point x="109" y="166"/>
      <point x="2" y="92"/>
      <point x="2" y="-24" type="curve"/>
      <point x="2" y="-139"/>
      <point x="85" y="-190"/>
    </contour>
    <contour>
      <point x="337" y="380" type="curve" smooth="yes"/>
      <point x="390" y="380"/>
      <point x="424" y="416"/>
      <point x="424" y="470" type="curve" smooth="yes"/>
      <point x="424" y="519"/>
      <point x="391" y="542"/>
      <point x="343" y="542" type="curve" smooth="yes"/>
      <point x="301" y="542"/>
      <point x="256" y="519"/>
      <point x="256" y="452" type="curve"/>
      <point x="256" y="403"/>
      <point x="291" y="380"/>
    </contour>
  </outline>
</glyph>
<glyph name="AE" format="2">
  <advance width="895"/>
  <unicode hex="00C6"/>
  <anchor x="390" y="0" name="bottom"/>
  <anchor x="542" y="714" name="top"/>
  <outline>
    <contour>
      <point x="-60" y="0" type="line"/>
      <point x="100" y="0" type="line"/>
      <point x="207" y="170" type="line"/>
      <point x="415" y="170" type="line"/>
      <point x="379" y="0" type="line"/>
      <point x="778" y="0" type="line"/>
      <point x="804" y="125" type="line"/>
      <point x="554" y="125" type="line"/>
      <point x="593" y="309" type="line"/>
      <point x="826" y="309" type="line"/>
      <point x="853" y="433" type="line"/>
      <point x="620" y="433" type="line"/>
      <point x="653" y="590" type="line"/>
      <point x="903" y="590" type="line"/>
      <point x="929" y="714" type="line"/>
      <point x="390" y="714" type="line"/>
    </contour>
    <contour>
      <point x="287" y="297" type="line"/>
      <point x="465" y="590" type="line"/>
      <point x="504" y="590" type="line"/>
      <point x="442" y="297" type="line"/>
    </contour>
  </outline>
</glyph>
<glyph name="AE.serif" format="2">
  <advance width="993"/>
  <unicode hex="00C6"/>
  <anchor x="440" y="0" name="bottom"/>
  <anchor x="672" y="714" name="top"/>
  <outline>
    <contour>
      <point x="-44" y="0" type="line"/>
      <point x="208" y="0" type="line"/>
      <point x="219" y="53" type="line"/>
      <point x="202" y="53" type="line" smooth="yes"/>
      <point x="168" y="53"/>
      <point x="149" y="62"/>
      <point x="149" y="83" type="curve" smooth="yes"/>
      <point x="149" y="94"/>
      <point x="157" y="117"/>
      <point x="177" y="145" type="curve" smooth="yes"/>
      <point x="236" y="229" type="line"/>
      <point x="464" y="229" type="line"/>
      <point x="440" y="113" type="line" smooth="yes"/>
      <point x="429" y="61"/>
      <point x="390" y="53"/>
      <point x="348" y="53" type="curve" smooth="yes"/>
      <point x="335" y="53" type="line"/>
      <point x="324" y="0" type="line"/>
      <point x="898" y="0" type="line"/>
      <point x="944" y="186" type="line"/>
      <point x="873" y="186" type="line"/>
      <point x="857" y="143" type="line" smooth="yes"/>
      <point x="841" y="99"/>
      <point x="807" y="61"/>
      <point x="744" y="61" type="curve" smooth="yes"/>
      <point x="586" y="61" type="line"/>
      <point x="646" y="343" type="line"/>
      <point x="873" y="343" type="line"/>
      <point x="886" y="403" type="line"/>
      <point x="659" y="403" type="line"/>
      <point x="712" y="653" type="line"/>
      <point x="845" y="653" type="line" smooth="yes"/>
      <point x="897" y="653"/>
      <point x="916" y="623"/>
      <point x="916" y="586" type="curve" smooth="yes"/>
      <point x="916" y="581"/>
      <point x="912" y="537"/>
      <point x="911" y="528" type="curve"/>
      <point x="982" y="528" type="line"/>
      <point x="1017" y="714" type="line"/>
      <point x="422" y="714" type="line"/>
      <point x="411" y="661" type="line"/>
      <point x="476" y="656" type="line"/>
      <point x="83" y="131" type="line" smooth="yes"/>
      <point x="43" y="77"/>
      <point x="14" y="53"/>
      <point x="-21" y="53" type="curve" smooth="yes"/>
      <point x="-33" y="53" type="line"/>
    </contour>
    <contour>
      <point x="281" y="289" type="line"/>
      <point x="409" y="467" type="line" smooth="yes"/>
      <point x="454" y="529"/>
      <point x="496" y="591"/>
      <point x="539" y="653" type="curve"/>
      <point x="554" y="653" type="line"/>
      <point x="477" y="289" type="line"/>
    </contour>
  </outline>
</glyph>
<glyph name="Eth.display" format="2">
  <advance width="645"/>
  <unicode hex="00D0"/>
  <anchor x="269" y="0" name="bottom"/>
  <anchor x="415" y="714" name="top"/>
  <outline>
    <contour>
      <point x="366" y="415" type="line"/>
      <point x="46" y="415" type="line"/>
      <point x="18" y="291" type="line"/>
      <point x="337" y="291" type="line"/>
    </contour>
    <component base="D"/>
  </outline>
</glyph>
<glyph name="Eth" format="2">
  <advance width="677"/>
  <unicode hex="00D0"/>
  <anchor x="281" y="0" name="bottom"/>
  <anchor x="433" y="714" name="top"/>
  <outline>
    <contour>
      <point x="379" y="415" type="line"/>
      <point x="45" y="415" type="line"/>
      <point x="18" y="291" type="line"/>
      <point x="353" y="291" type="line"/>
    </contour>
    <component base="D"/>
  </outline>
</glyph>
<glyph name="Eth.serif" format="2">
  <advance width="768"/>
  <unicode hex="00D0"/>
  <anchor x="327" y="0" name="bottom"/>
  <anchor x="479" y="714" name="top"/>
  <outline>
    <contour>
      <point x="59" y="343" type="line"/>
      <point x="425" y="343" type="line"/>
      <point x="438" y="404" type="line"/>
      <point x="72" y="404" type="line"/>
    </contour>
    <component base="D"/>
  </outline>
</glyph>
<glyph name="multiply" format="2">
  <advance width="572"/>
  <unicode hex="00D7"/>
  <outline>
    <contour>
      <point x="443" y="575" type="line"/>
      <point x="294" y="429" type="line"/>
      <point x="147" y="575" type="line"/>
      <point x="73" y="500" type="line"/>
      <point x="219" y="353" type="line"/>
      <point x="74" y="206" type="line"/>
      <point x="147" y="132" type="line"/>
      <point x="294" y="278" type="line"/>
      <point x="443" y="131" type="line"/>
      <point x="516" y="205" type="line"/>
      <point x="369" y="353" type="line"/>
      <point x="518" y="502" type="line"/>
    </contour>
  </outline>
</glyph>
<glyph name="Oslash" format="2">
  <advance width="730"/>
  <unicode hex="00D8"/>
  <anchor x="307" y="0" name="bottom"/>
  <anchor x="459" y="714" name="top"/>
  <outline>
    <contour>
      <point x="124" y="-42" type="line"/>
      <point x="177" y="25" type="line"/>
      <point x="217" y="2"/>
      <point x="266" y="-10"/>
      <point x="325" y="-10" type="curve" smooth="yes"/>
      <point x="586" y="-10"/>
      <point x="699" y="225"/>
      <point x="699" y="458" type="curve" smooth="yes"/>
      <point x="699" y="523"/>
      <point x="685" y="579"/>
      <point x="655" y="624" type="curve"/>
      <point x="712" y="695" type="line"/>
      <point x="638" y="752" type="line"/>
      <point x="587" y="688" type="line"/>
      <point x="548" y="712"/>
      <point x="498" y="725"/>
      <point x="438" y="725" type="curve" smooth="yes"/>
      <point x="178" y="725"/>
      <point x="60" y="485"/>
      <point x="60" y="262" type="curve" smooth="yes"/>
      <point x="60" y="193"/>
      <point x="76" y="133"/>
      <point x="108" y="88" type="curve"/>
      <point x="49" y="14" type="line"/>
    </contour>
    <contour>
      <point x="338" y="114" type="curve" smooth="yes"/>
      <point x="308" y="114"/>
      <point x="281" y="121"/>
      <point x="263" y="132" type="curve"/>
      <point x="551" y="493" type="line"/>
      <point x="552" y="482"/>
      <point x="553" y="465"/>
      <point x="553" y="454" type="curve" smooth="yes"/>
      <point x="553" y="249"/>
      <point x="459" y="114"/>
    </contour>
    <contour>
      <point x="502" y="581" type="curve"/>
      <point x="211" y="213" type="line"/>
      <point x="209" y="230"/>
      <point x="207" y="247"/>
      <point x="207" y="262" type="curve" smooth="yes"/>
      <point x="207" y="445"/>
      <point x="293" y="602"/>
      <point x="425" y="602" type="curve" smooth="yes"/>
      <point x="457" y="602"/>
      <point x="483" y="593"/>
    </contour>
  </outline>
</glyph>
